G04 #@! TF.GenerationSoftware,KiCad,Pcbnew,5.0.2-bee76a0~70~ubuntu18.04.1*
G04 #@! TF.CreationDate,2020-07-03T21:26:00+02:00*
G04 #@! TF.ProjectId,lmx2594,6c6d7832-3539-4342-9e6b-696361645f70,rev?*
G04 #@! TF.SameCoordinates,PX463f660PY71d9820*
G04 #@! TF.FileFunction,Paste,Top*
G04 #@! TF.FilePolarity,Positive*
%FSLAX46Y46*%
G04 Gerber Fmt 4.6, Leading zero omitted, Abs format (unit mm)*
G04 Created by KiCad (PCBNEW 5.0.2-bee76a0~70~ubuntu18.04.1) date fre  3 jul 2020 21:26:00*
%MOMM*%
%LPD*%
G01*
G04 APERTURE LIST*
%ADD10R,1.550000X0.600000*%
%ADD11R,0.705000X0.705000*%
%ADD12R,1.300000X1.500000*%
%ADD13R,1.000000X1.450000*%
%ADD14R,0.800000X0.250000*%
%ADD15R,0.250000X0.800000*%
%ADD16C,0.750000*%
%ADD17C,0.100000*%
%ADD18R,0.750000X0.800000*%
%ADD19R,0.800000X0.750000*%
%ADD20R,0.500000X0.600000*%
%ADD21R,0.600000X0.500000*%
%ADD22R,2.000000X2.500000*%
%ADD23R,0.600000X0.400000*%
%ADD24R,0.400000X0.600000*%
%ADD25R,1.270000X2.540000*%
%ADD26R,0.250000X0.700000*%
%ADD27R,0.426000X0.366000*%
%ADD28R,1.500000X4.500000*%
%ADD29R,0.400000X4.500000*%
%ADD30R,4.500000X1.500000*%
%ADD31R,4.500000X0.400000*%
%ADD32R,2.500000X1.000000*%
G04 APERTURE END LIST*
D10*
G04 #@! TO.C,U5*
X11778000Y29591000D03*
X11778000Y28321000D03*
X11778000Y27051000D03*
X11778000Y25781000D03*
X17178000Y25781000D03*
X17178000Y27051000D03*
X17178000Y28321000D03*
X17178000Y29591000D03*
D11*
X15065500Y27098500D03*
X15065500Y28273500D03*
X13890500Y27098500D03*
X13890500Y28273500D03*
G04 #@! TD*
D12*
G04 #@! TO.C,D1*
X13716000Y18128000D03*
X13716000Y20828000D03*
G04 #@! TD*
G04 #@! TO.C,D2*
X10160000Y18128000D03*
X10160000Y20828000D03*
G04 #@! TD*
G04 #@! TO.C,D3*
X11938000Y18128000D03*
X11938000Y20828000D03*
G04 #@! TD*
D13*
G04 #@! TO.C,U3*
X30338000Y27037000D03*
X31638000Y27037000D03*
X31638000Y25287000D03*
X30338000Y25287000D03*
D14*
X27988000Y23912000D03*
X27988000Y24412000D03*
X27988000Y24912000D03*
X27988000Y25412000D03*
X27988000Y25912000D03*
X27988000Y26412000D03*
X27988000Y26912000D03*
X27988000Y27412000D03*
X27988000Y27912000D03*
X27988000Y28412000D03*
D15*
X28738000Y29162000D03*
X29238000Y29162000D03*
X29738000Y29162000D03*
X30238000Y29162000D03*
X30738000Y29162000D03*
X31238000Y29162000D03*
X31738000Y29162000D03*
X32238000Y29162000D03*
X32738000Y29162000D03*
X33238000Y29162000D03*
D14*
X33988000Y28412000D03*
X33988000Y27912000D03*
X33988000Y27412000D03*
X33988000Y26912000D03*
X33988000Y26412000D03*
X33988000Y25912000D03*
X33988000Y25412000D03*
X33988000Y24912000D03*
X33988000Y24412000D03*
X33988000Y23912000D03*
D15*
X33238000Y23162000D03*
X32738000Y23162000D03*
X32238000Y23162000D03*
X31738000Y23162000D03*
X31238000Y23162000D03*
X30738000Y23162000D03*
X30238000Y23162000D03*
X29738000Y23162000D03*
X29238000Y23162000D03*
X28738000Y23162000D03*
G04 #@! TD*
D16*
G04 #@! TO.C,C19*
X34371090Y30446987D03*
D17*
G36*
X34597136Y30946515D02*
X34884148Y30253606D01*
X34145044Y29947459D01*
X33858032Y30640368D01*
X34597136Y30946515D01*
X34597136Y30946515D01*
G37*
D16*
X35756910Y31021013D03*
D17*
G36*
X35982956Y31520541D02*
X36269968Y30827632D01*
X35530864Y30521485D01*
X35243852Y31214394D01*
X35982956Y31520541D01*
X35982956Y31520541D01*
G37*
G04 #@! TD*
D18*
G04 #@! TO.C,C21*
X30988000Y20078000D03*
X30988000Y21578000D03*
G04 #@! TD*
D19*
G04 #@! TO.C,C22*
X37326000Y23876000D03*
X35826000Y23876000D03*
G04 #@! TD*
G04 #@! TO.C,C23*
X37326000Y25146000D03*
X35826000Y25146000D03*
G04 #@! TD*
D16*
G04 #@! TO.C,C24*
X29557987Y32569910D03*
D17*
G36*
X30057515Y32343864D02*
X29364606Y32056852D01*
X29058459Y32795956D01*
X29751368Y33082968D01*
X30057515Y32343864D01*
X30057515Y32343864D01*
G37*
D16*
X30132013Y31184090D03*
D17*
G36*
X30631541Y30958044D02*
X29938632Y30671032D01*
X29632485Y31410136D01*
X30325394Y31697148D01*
X30631541Y30958044D01*
X30631541Y30958044D01*
G37*
G04 #@! TD*
D19*
G04 #@! TO.C,C25*
X24650000Y24638000D03*
X26150000Y24638000D03*
G04 #@! TD*
D18*
G04 #@! TO.C,C32*
X33782000Y20078000D03*
X33782000Y21578000D03*
G04 #@! TD*
D19*
G04 #@! TO.C,C34*
X24650000Y25908000D03*
X26150000Y25908000D03*
G04 #@! TD*
G04 #@! TO.C,C35*
X24662000Y23368000D03*
X26162000Y23368000D03*
G04 #@! TD*
D16*
G04 #@! TO.C,C38*
X28414987Y32188910D03*
D17*
G36*
X28914515Y31962864D02*
X28221606Y31675852D01*
X27915459Y32414956D01*
X28608368Y32701968D01*
X28914515Y31962864D01*
X28914515Y31962864D01*
G37*
D16*
X28989013Y30803090D03*
D17*
G36*
X29488541Y30577044D02*
X28795632Y30290032D01*
X28489485Y31029136D01*
X29182394Y31316148D01*
X29488541Y30577044D01*
X29488541Y30577044D01*
G37*
G04 #@! TD*
D19*
G04 #@! TO.C,C40*
X24650000Y6973000D03*
X26150000Y6973000D03*
G04 #@! TD*
D18*
G04 #@! TO.C,C41*
X31750000Y15760000D03*
X31750000Y17260000D03*
G04 #@! TD*
D19*
G04 #@! TO.C,C42*
X40120000Y6985000D03*
X38620000Y6985000D03*
G04 #@! TD*
D18*
G04 #@! TO.C,C43*
X33274000Y15760000D03*
X33274000Y17260000D03*
G04 #@! TD*
D19*
G04 #@! TO.C,R4*
X17006000Y20828000D03*
X15506000Y20828000D03*
G04 #@! TD*
D18*
G04 #@! TO.C,R5*
X7366000Y19050000D03*
X7366000Y20550000D03*
G04 #@! TD*
G04 #@! TO.C,R6*
X14351000Y1294000D03*
X14351000Y2794000D03*
G04 #@! TD*
D19*
G04 #@! TO.C,R9*
X16994000Y22225000D03*
X15494000Y22225000D03*
G04 #@! TD*
G04 #@! TO.C,R10*
X28206000Y12954000D03*
X29706000Y12954000D03*
G04 #@! TD*
G04 #@! TO.C,R21*
X33262000Y14224000D03*
X31762000Y14224000D03*
G04 #@! TD*
G04 #@! TO.C,R3*
X30468000Y14224000D03*
X28968000Y14224000D03*
G04 #@! TD*
G04 #@! TO.C,R8*
X36044000Y14224000D03*
X34544000Y14224000D03*
G04 #@! TD*
G04 #@! TO.C,R23*
X26277000Y22098000D03*
X24777000Y22098000D03*
G04 #@! TD*
G04 #@! TO.C,R24*
X31000000Y12954000D03*
X32500000Y12954000D03*
G04 #@! TD*
G04 #@! TO.C,R25*
X37211000Y31242000D03*
X38711000Y31242000D03*
G04 #@! TD*
D16*
G04 #@! TO.C,R26*
X35109090Y29430987D03*
D17*
G36*
X35335136Y29930515D02*
X35622148Y29237606D01*
X34883044Y28931459D01*
X34596032Y29624368D01*
X35335136Y29930515D01*
X35335136Y29930515D01*
G37*
D16*
X36494910Y30005013D03*
D17*
G36*
X36720956Y30504541D02*
X37007968Y29811632D01*
X36268864Y29505485D01*
X35981852Y30198394D01*
X36720956Y30504541D01*
X36720956Y30504541D01*
G37*
G04 #@! TD*
D18*
G04 #@! TO.C,C9*
X11811000Y1294000D03*
X11811000Y2794000D03*
G04 #@! TD*
D20*
G04 #@! TO.C,C17*
X25019000Y36195000D03*
X25019000Y35095000D03*
G04 #@! TD*
G04 #@! TO.C,C18*
X32512000Y33570000D03*
X32512000Y32470000D03*
G04 #@! TD*
G04 #@! TO.C,C20*
X39116000Y36195000D03*
X39116000Y35095000D03*
G04 #@! TD*
G04 #@! TO.C,C26*
X42291000Y22056000D03*
X42291000Y23156000D03*
G04 #@! TD*
D21*
G04 #@! TO.C,C27*
X38269000Y27686000D03*
X37169000Y27686000D03*
G04 #@! TD*
D22*
G04 #@! TO.C,C46*
X12446000Y33274000D03*
X16446000Y33274000D03*
G04 #@! TD*
D20*
G04 #@! TO.C,C50*
X22098000Y38143000D03*
X22098000Y39243000D03*
G04 #@! TD*
G04 #@! TO.C,C51*
X25019000Y41275000D03*
X25019000Y40175000D03*
G04 #@! TD*
G04 #@! TO.C,C52*
X37084000Y38143000D03*
X37084000Y39243000D03*
G04 #@! TD*
G04 #@! TO.C,C53*
X39116000Y41317000D03*
X39116000Y40217000D03*
G04 #@! TD*
D21*
G04 #@! TO.C,L2*
X22987000Y40259000D03*
X24087000Y40259000D03*
G04 #@! TD*
G04 #@! TO.C,L4*
X37084000Y40259000D03*
X38184000Y40259000D03*
G04 #@! TD*
D23*
G04 #@! TO.C,R11*
X32131000Y30792000D03*
X32131000Y31692000D03*
G04 #@! TD*
G04 #@! TO.C,R12*
X32893000Y31692000D03*
X32893000Y30792000D03*
G04 #@! TD*
D24*
G04 #@! TO.C,R13*
X35491000Y27305000D03*
X36391000Y27305000D03*
G04 #@! TD*
G04 #@! TO.C,R16*
X36391000Y28067000D03*
X35491000Y28067000D03*
G04 #@! TD*
D18*
G04 #@! TO.C,R27*
X10795000Y22999000D03*
X10795000Y24499000D03*
G04 #@! TD*
G04 #@! TO.C,R28*
X20955000Y37743000D03*
X20955000Y39243000D03*
G04 #@! TD*
G04 #@! TO.C,R29*
X35052000Y37743000D03*
X35052000Y39243000D03*
G04 #@! TD*
D25*
G04 #@! TO.C,U2*
X11811000Y5461000D03*
X14351000Y5461000D03*
X16891000Y5461000D03*
X16891000Y14361000D03*
X14351000Y14361000D03*
X11811000Y14361000D03*
G04 #@! TD*
D26*
G04 #@! TO.C,U6*
X24011000Y37302000D03*
X24511000Y37302000D03*
X25011000Y37302000D03*
X25011000Y39152000D03*
X24511000Y39152000D03*
X24011000Y39152000D03*
D27*
X24866000Y38227000D03*
X24156000Y38227000D03*
G04 #@! TD*
D26*
G04 #@! TO.C,U7*
X38108000Y37302000D03*
X38608000Y37302000D03*
X39108000Y37302000D03*
X39108000Y39152000D03*
X38608000Y39152000D03*
X38108000Y39152000D03*
D27*
X38963000Y38227000D03*
X38253000Y38227000D03*
G04 #@! TD*
D28*
G04 #@! TO.C,J1*
X19729000Y45879000D03*
X25229000Y45879000D03*
X25229000Y45879000D03*
X19729000Y45879000D03*
D29*
X22479000Y45879000D03*
G04 #@! TD*
D28*
G04 #@! TO.C,J2*
X39414000Y45879000D03*
X44914000Y45879000D03*
X44914000Y45879000D03*
X39414000Y45879000D03*
D29*
X42164000Y45879000D03*
G04 #@! TD*
D30*
G04 #@! TO.C,J4*
X45879000Y20784000D03*
X45879000Y15284000D03*
X45879000Y15284000D03*
X45879000Y20784000D03*
D31*
X45879000Y18034000D03*
G04 #@! TD*
D30*
G04 #@! TO.C,J5*
X45752000Y40088000D03*
X45752000Y34588000D03*
X45752000Y34588000D03*
X45752000Y40088000D03*
D31*
X45752000Y37338000D03*
G04 #@! TD*
D28*
G04 #@! TO.C,J7*
X25356000Y2508000D03*
X19856000Y2508000D03*
X19856000Y2508000D03*
X25356000Y2508000D03*
D29*
X22606000Y2508000D03*
G04 #@! TD*
D28*
G04 #@! TO.C,J9*
X44914000Y2508000D03*
X39414000Y2508000D03*
X39414000Y2508000D03*
X44914000Y2508000D03*
D29*
X42164000Y2508000D03*
G04 #@! TD*
D20*
G04 #@! TO.C,C55*
X22987000Y38143000D03*
X22987000Y39243000D03*
G04 #@! TD*
D21*
G04 #@! TO.C,C56*
X23198000Y37211000D03*
X22098000Y37211000D03*
G04 #@! TD*
G04 #@! TO.C,C57*
X37168000Y37211000D03*
X36068000Y37211000D03*
G04 #@! TD*
D20*
G04 #@! TO.C,C58*
X36195000Y38143000D03*
X36195000Y39243000D03*
G04 #@! TD*
G04 #@! TO.C,C33*
X42291000Y33316000D03*
X42291000Y32216000D03*
G04 #@! TD*
D18*
G04 #@! TO.C,C16*
X19304000Y29718000D03*
X19304000Y28218000D03*
G04 #@! TD*
G04 #@! TO.C,C45*
X9398000Y25424000D03*
X9398000Y26924000D03*
G04 #@! TD*
D19*
G04 #@! TO.C,C44*
X15518000Y23622000D03*
X17018000Y23622000D03*
G04 #@! TD*
G04 #@! TO.C,C59*
X9791000Y16256000D03*
X11291000Y16256000D03*
G04 #@! TD*
D32*
G04 #@! TO.C,C10*
X14859000Y38735000D03*
X14859000Y41735000D03*
G04 #@! TD*
G04 #@! TO.C,C15*
X14859000Y46966000D03*
X14859000Y43966000D03*
G04 #@! TD*
D16*
G04 #@! TO.C,C36*
X27017987Y32188910D03*
D17*
G36*
X27517515Y31962864D02*
X26824606Y31675852D01*
X26518459Y32414956D01*
X27211368Y32701968D01*
X27517515Y31962864D01*
X27517515Y31962864D01*
G37*
D16*
X27592013Y30803090D03*
D17*
G36*
X28091541Y30577044D02*
X27398632Y30290032D01*
X27092485Y31029136D01*
X27785394Y31316148D01*
X28091541Y30577044D01*
X28091541Y30577044D01*
G37*
G04 #@! TD*
D18*
G04 #@! TO.C,C37*
X28702000Y20090000D03*
X28702000Y21590000D03*
G04 #@! TD*
D19*
G04 #@! TO.C,C39*
X24650000Y27432000D03*
X26150000Y27432000D03*
G04 #@! TD*
D24*
G04 #@! TO.C,R18*
X26681000Y35052000D03*
X25781000Y35052000D03*
G04 #@! TD*
G04 #@! TO.C,R19*
X39878000Y35052000D03*
X40778000Y35052000D03*
G04 #@! TD*
G04 #@! TO.C,R20*
X25781000Y36195000D03*
X26681000Y36195000D03*
G04 #@! TD*
G04 #@! TO.C,R22*
X40778000Y36195000D03*
X39878000Y36195000D03*
G04 #@! TD*
M02*
