M48
;DRILL file {KiCad 5.0.2-bee76a0~70~ubuntu18.04.1} date fre  3 jul 2020 21:26:10
;FORMAT={-:-/ absolute / metric / decimal}
FMAT,2
METRIC,TZ
T1C0.200
T2C0.300
T3C0.400
T4C1.143
T5C1.200
%
G90
G05
T1
X17.526Y24.564
X26.67Y28.702
X26.67Y21.844
X26.928Y28.186
X27.988Y26.412
X28.702Y20.09
X29.718Y29.845
X29.972Y27.559
X29.972Y26.924
X29.972Y26.289
X29.972Y25.654
X29.972Y25.019
X30.607Y27.559
X30.607Y26.924
X30.607Y26.289
X30.607Y25.654
X30.607Y25.019
X31.242Y27.559
X31.242Y26.924
X31.242Y26.289
X31.242Y25.654
X31.242Y25.019
X31.738Y29.162
X31.877Y27.559
X31.877Y26.924
X31.877Y26.289
X31.877Y25.654
X31.877Y25.019
X33.528Y26.416
X33.942Y28.412
X33.942Y26.912
X34.532Y24.389
T2
X26.15Y24.638
X30.988Y21.578
X35.757Y31.021
X35.826Y25.146
X35.826Y23.876
X36.495Y30.005
X37.326Y25.146
X38.711Y31.242
X38.874Y25.146
X40.374Y25.146
T3
X1.397Y5.993
X1.397Y4.675
X6.096Y6.882
X9.397Y24.764
X9.779Y16.256
X10.033Y40.64
X10.795Y23.012
X11.811Y29.591
X11.811Y28.321
X11.811Y1.294
X11.938Y18.161
X12.446Y34.163
X12.446Y33.274
X12.446Y32.385
X13.589Y28.575
X13.589Y27.686
X13.589Y26.797
X14.351Y1.294
X14.478Y28.575
X14.478Y27.686
X14.478Y26.797
X14.859Y43.966
X14.859Y41.735
X15.367Y28.575
X15.367Y27.686
X15.367Y26.797
X15.748Y43.942
X15.748Y41.783
X16.383Y34.163
X16.383Y32.385
X16.446Y33.274
X16.891Y5.461
X17.145Y29.591
X17.526Y21.753
X18.796Y37.973
X18.796Y36.576
X18.796Y35.306
X19.685Y47.625
X19.685Y46.736
X19.685Y44.958
X19.685Y43.942
X19.685Y4.318
X19.685Y3.429
X19.685Y1.524
X19.685Y0.635
X19.729Y45.879
X19.856Y2.508
X19.939Y11.303
X19.939Y8.89
X19.982Y10.033
X20.574Y14.478
X20.652Y15.784
X20.955Y37.743
X21.844Y17.145
X21.844Y14.351
X22.098Y38.143
X22.098Y37.211
X22.733Y17.107
X22.733Y14.351
X22.987Y38.143
X23.198Y37.211
X23.622Y17.107
X23.622Y14.351
X24.164Y38.191
X24.257Y39.116
X24.257Y37.478
X24.65Y27.432
X24.65Y25.908
X24.65Y24.638
X24.662Y23.368
X24.765Y21.209
X24.874Y38.191
X25.229Y45.879
X25.273Y47.625
X25.273Y46.736
X25.273Y44.958
X25.273Y43.942
X25.356Y2.508
X25.4Y4.318
X25.4Y3.429
X25.4Y1.524
X25.4Y0.635
X26.67Y35.052
X26.719Y36.185
X26.797Y18.923
X26.797Y17.78
X26.797Y16.764
X27.018Y32.189
X28.415Y32.189
X28.956Y36.195
X28.968Y14.224
X29.091Y32.57
X29.604Y21.32
X29.845Y43.18
X29.845Y36.195
X30.532Y30.659
X30.607Y36.195
X30.861Y43.156
X30.988Y20.078
X31.75Y43.18
X32.004Y35.699
X32.512Y33.57
X32.512Y32.47
X33.782Y20.078
X34.459Y32.512
X35.052Y37.743
X36.044Y14.224
X36.068Y37.211
X36.195Y38.143
X37.084Y38.143
X37.168Y37.211
X37.169Y27.686
X37.297Y17.78
X37.297Y17.78
X37.326Y23.876
X37.338Y18.923
X37.338Y16.764
X37.719Y30.099
X38.253Y38.227
X38.269Y27.686
X38.354Y39.243
X38.354Y37.338
X38.963Y38.227
X39.37Y47.625
X39.37Y46.736
X39.37Y44.958
X39.37Y43.942
X39.37Y4.318
X39.37Y3.429
X39.37Y1.524
X39.37Y0.635
X39.414Y45.879
X39.414Y2.508
X40.616Y21.59
X40.64Y22.479
X40.64Y20.701
X40.767Y36.195
X40.767Y35.052
X43.942Y40.132
X43.942Y34.544
X43.942Y20.828
X43.942Y15.24
X44.831Y40.132
X44.831Y34.544
X44.831Y20.828
X44.831Y15.24
X44.914Y45.879
X44.914Y2.508
X44.958Y47.625
X44.958Y46.736
X44.958Y44.958
X44.958Y43.942
X44.958Y4.318
X44.958Y3.429
X44.958Y1.524
X44.958Y0.635
X45.752Y40.088
X45.752Y34.588
X45.879Y20.784
X45.879Y15.284
X46.736Y40.132
X46.736Y34.544
X46.736Y20.828
X46.736Y15.24
X47.625Y40.132
X47.625Y34.544
X47.625Y20.828
X47.625Y15.24
T4
X4.064Y8.89
X4.064Y6.35
X4.064Y3.81
X12.192Y45.466
X12.192Y42.926
X12.192Y40.386
T5
X3.556Y46.736
X3.556Y44.196
X3.556Y41.656
X3.556Y39.116
X3.556Y36.576
X3.556Y34.036
X3.556Y31.496
X3.556Y28.956
X3.556Y26.416
X3.556Y23.876
X3.556Y21.336
X3.556Y18.796
X3.556Y16.256
T0
M30
