G04 #@! TF.GenerationSoftware,KiCad,Pcbnew,5.0.2-bee76a0~70~ubuntu18.04.1*
G04 #@! TF.CreationDate,2020-07-03T21:26:00+02:00*
G04 #@! TF.ProjectId,lmx2594,6c6d7832-3539-4342-9e6b-696361645f70,rev?*
G04 #@! TF.SameCoordinates,PX463f660PY71d9820*
G04 #@! TF.FileFunction,Copper,L4,Bot*
G04 #@! TF.FilePolarity,Positive*
%FSLAX46Y46*%
G04 Gerber Fmt 4.6, Leading zero omitted, Abs format (unit mm)*
G04 Created by KiCad (PCBNEW 5.0.2-bee76a0~70~ubuntu18.04.1) date fre  3 jul 2020 21:26:00*
%MOMM*%
%LPD*%
G01*
G04 APERTURE LIST*
G04 #@! TA.AperFunction,NonConductor*
%ADD10C,0.300000*%
G04 #@! TD*
G04 #@! TA.AperFunction,ComponentPad*
%ADD11R,2.600000X2.000000*%
G04 #@! TD*
G04 #@! TA.AperFunction,ComponentPad*
%ADD12O,2.600000X2.000000*%
G04 #@! TD*
G04 #@! TA.AperFunction,SMDPad,CuDef*
%ADD13R,2.900680X4.500880*%
G04 #@! TD*
G04 #@! TA.AperFunction,ComponentPad*
%ADD14O,2.540000X2.032000*%
G04 #@! TD*
G04 #@! TA.AperFunction,SMDPad,CuDef*
%ADD15R,0.750000X0.800000*%
G04 #@! TD*
G04 #@! TA.AperFunction,SMDPad,CuDef*
%ADD16R,0.800000X0.750000*%
G04 #@! TD*
G04 #@! TA.AperFunction,SMDPad,CuDef*
%ADD17R,0.600000X0.500000*%
G04 #@! TD*
G04 #@! TA.AperFunction,SMDPad,CuDef*
%ADD18R,0.500000X0.600000*%
G04 #@! TD*
G04 #@! TA.AperFunction,SMDPad,CuDef*
%ADD19R,1.500000X4.500000*%
G04 #@! TD*
G04 #@! TA.AperFunction,SMDPad,CuDef*
%ADD20R,4.500000X1.500000*%
G04 #@! TD*
G04 #@! TA.AperFunction,SMDPad,CuDef*
%ADD21R,2.500000X1.000000*%
G04 #@! TD*
G04 #@! TA.AperFunction,SMDPad,CuDef*
%ADD22R,1.000000X2.500000*%
G04 #@! TD*
G04 #@! TA.AperFunction,ViaPad*
%ADD23C,0.800000*%
G04 #@! TD*
G04 #@! TA.AperFunction,ViaPad*
%ADD24C,0.450000*%
G04 #@! TD*
G04 #@! TA.AperFunction,ViaPad*
%ADD25C,0.600000*%
G04 #@! TD*
G04 #@! TA.AperFunction,Conductor*
%ADD26C,0.088900*%
G04 #@! TD*
G04 #@! TA.AperFunction,Conductor*
%ADD27C,0.500000*%
G04 #@! TD*
G04 #@! TA.AperFunction,Conductor*
%ADD28C,1.500000*%
G04 #@! TD*
G04 #@! TA.AperFunction,Conductor*
%ADD29C,1.000000*%
G04 #@! TD*
G04 #@! TA.AperFunction,Conductor*
%ADD30C,0.292100*%
G04 #@! TD*
G04 #@! TA.AperFunction,Conductor*
%ADD31C,2.000000*%
G04 #@! TD*
G04 #@! TA.AperFunction,Conductor*
%ADD32C,0.250000*%
G04 #@! TD*
G04 #@! TA.AperFunction,Conductor*
%ADD33C,0.205000*%
G04 #@! TD*
G04 #@! TA.AperFunction,Conductor*
%ADD34C,0.254000*%
G04 #@! TD*
G04 APERTURE END LIST*
D10*
X45652571Y10826715D02*
X46652571Y10826715D01*
X45081142Y10469572D02*
X46152571Y10112429D01*
X46152571Y11041000D01*
D11*
G04 #@! TO.P,J3,1*
G04 #@! TO.N,/VIN*
X3556000Y16256000D03*
D12*
G04 #@! TO.P,J3,2*
G04 #@! TO.N,/5V_unfilt*
X3556000Y18796000D03*
G04 #@! TO.P,J3,3*
G04 #@! TO.N,GND*
X3556000Y21336000D03*
G04 #@! TO.P,J3,4*
G04 #@! TO.N,/3V3*
X3556000Y23876000D03*
G04 #@! TO.P,J3,5*
G04 #@! TO.N,/SYNC*
X3556000Y26416000D03*
G04 #@! TO.P,J3,6*
G04 #@! TO.N,/CE*
X3556000Y28956000D03*
G04 #@! TO.P,J3,7*
G04 #@! TO.N,/RAMPDIR*
X3556000Y31496000D03*
G04 #@! TO.P,J3,8*
G04 #@! TO.N,/RAMPCLK*
X3556000Y34036000D03*
G04 #@! TO.P,J3,9*
G04 #@! TO.N,/SCK*
X3556000Y36576000D03*
G04 #@! TO.P,J3,10*
G04 #@! TO.N,/SDI*
X3556000Y39116000D03*
G04 #@! TO.P,J3,11*
G04 #@! TO.N,/MUX*
X3556000Y41656000D03*
G04 #@! TO.P,J3,12*
G04 #@! TO.N,/CSB*
X3556000Y44196000D03*
G04 #@! TO.P,J3,13*
G04 #@! TO.N,/SYSREFREQ*
X3556000Y46736000D03*
G04 #@! TD*
D13*
G04 #@! TO.P,L1,1*
G04 #@! TO.N,/3V3*
X26797000Y17780000D03*
G04 #@! TO.P,L1,2*
G04 #@! TO.N,/VRF*
X37297360Y17780000D03*
G04 #@! TD*
G04 #@! TO.P,L3,1*
G04 #@! TO.N,/5V_unfilt*
X9481820Y10033000D03*
G04 #@! TO.P,L3,2*
G04 #@! TO.N,/5V*
X19982180Y10033000D03*
G04 #@! TD*
G04 #@! TO.P,L5,1*
G04 #@! TO.N,/3V3*
X18836640Y36576000D03*
G04 #@! TO.P,L5,2*
G04 #@! TO.N,/VCC*
X29337000Y36576000D03*
G04 #@! TD*
D14*
G04 #@! TO.P,U1,2*
G04 #@! TO.N,GND*
X12192000Y42926000D03*
G04 #@! TO.P,U1,3*
G04 #@! TO.N,/9V*
X12192000Y45466000D03*
G04 #@! TO.P,U1,1*
G04 #@! TO.N,/VIN*
X12192000Y40386000D03*
G04 #@! TD*
D15*
G04 #@! TO.P,C2,2*
G04 #@! TO.N,GND*
X10033000Y42140000D03*
G04 #@! TO.P,C2,1*
G04 #@! TO.N,/VIN*
X10033000Y40640000D03*
G04 #@! TD*
G04 #@! TO.P,C3,2*
G04 #@! TO.N,GND*
X6096000Y6882000D03*
G04 #@! TO.P,C3,1*
G04 #@! TO.N,/5V_unfilt*
X6096000Y8382000D03*
G04 #@! TD*
G04 #@! TO.P,C6,2*
G04 #@! TO.N,GND*
X20574000Y15978000D03*
G04 #@! TO.P,C6,1*
G04 #@! TO.N,/5V*
X20574000Y14478000D03*
G04 #@! TD*
D16*
G04 #@! TO.P,C8,2*
G04 #@! TO.N,GND*
X40374000Y25146000D03*
G04 #@! TO.P,C8,1*
G04 #@! TO.N,/VRF*
X38874000Y25146000D03*
G04 #@! TD*
D15*
G04 #@! TO.P,C14,2*
G04 #@! TO.N,GND*
X32004000Y35699000D03*
G04 #@! TO.P,C14,1*
G04 #@! TO.N,/VCC*
X32004000Y37199000D03*
G04 #@! TD*
D16*
G04 #@! TO.P,C28,2*
G04 #@! TO.N,GND*
X30214000Y26416000D03*
G04 #@! TO.P,C28,1*
G04 #@! TO.N,/VTUNE*
X28714000Y26416000D03*
G04 #@! TD*
G04 #@! TO.P,C29,2*
G04 #@! TO.N,GND*
X30202000Y25019000D03*
G04 #@! TO.P,C29,1*
G04 #@! TO.N,Net-(C29-Pad1)*
X28702000Y25019000D03*
G04 #@! TD*
G04 #@! TO.P,C30,2*
G04 #@! TO.N,Net-(C30-Pad2)*
X33032000Y23622000D03*
G04 #@! TO.P,C30,1*
G04 #@! TO.N,/CPOUT*
X34532000Y23622000D03*
G04 #@! TD*
G04 #@! TO.P,C31,2*
G04 #@! TO.N,GND*
X33032000Y25146000D03*
G04 #@! TO.P,C31,1*
G04 #@! TO.N,/CPOUT*
X34532000Y25146000D03*
G04 #@! TD*
G04 #@! TO.P,R1,2*
G04 #@! TO.N,/5V_unfilt*
X13994000Y10033000D03*
G04 #@! TO.P,R1,1*
G04 #@! TO.N,/5V*
X15494000Y10033000D03*
G04 #@! TD*
G04 #@! TO.P,R2,2*
G04 #@! TO.N,/3V3*
X31369000Y17780000D03*
G04 #@! TO.P,R2,1*
G04 #@! TO.N,/VRF*
X32869000Y17780000D03*
G04 #@! TD*
G04 #@! TO.P,R7,2*
G04 #@! TO.N,/3V3*
X24269000Y36576000D03*
G04 #@! TO.P,R7,1*
G04 #@! TO.N,/VCC*
X25769000Y36576000D03*
G04 #@! TD*
D15*
G04 #@! TO.P,R14,2*
G04 #@! TO.N,/VTUNE*
X27305000Y26404000D03*
G04 #@! TO.P,R14,1*
G04 #@! TO.N,Net-(C29-Pad1)*
X27305000Y24904000D03*
G04 #@! TD*
D16*
G04 #@! TO.P,R15,2*
G04 #@! TO.N,Net-(C29-Pad1)*
X28714000Y23622000D03*
G04 #@! TO.P,R15,1*
G04 #@! TO.N,/CPOUT*
X30214000Y23622000D03*
G04 #@! TD*
D15*
G04 #@! TO.P,R17,2*
G04 #@! TO.N,Net-(C30-Pad2)*
X31623000Y23634000D03*
G04 #@! TO.P,R17,1*
G04 #@! TO.N,GND*
X31623000Y25134000D03*
G04 #@! TD*
D17*
G04 #@! TO.P,L7,1*
G04 #@! TO.N,/RFA_BIAS*
X33359000Y32512000D03*
G04 #@! TO.P,L7,2*
G04 #@! TO.N,/VRF*
X34459000Y32512000D03*
G04 #@! TD*
D18*
G04 #@! TO.P,L8,1*
G04 #@! TO.N,/RFB_BIAS*
X37211000Y28279000D03*
G04 #@! TO.P,L8,2*
G04 #@! TO.N,/VRF*
X37211000Y29379000D03*
G04 #@! TD*
D14*
G04 #@! TO.P,U4,2*
G04 #@! TO.N,GND*
X4064000Y6350000D03*
G04 #@! TO.P,U4,3*
G04 #@! TO.N,/5V_unfilt*
X4064000Y8890000D03*
G04 #@! TO.P,U4,1*
G04 #@! TO.N,/VIN*
X4064000Y3810000D03*
G04 #@! TD*
D19*
G04 #@! TO.P,J1,2*
G04 #@! TO.N,GND*
X25229000Y45879000D03*
X19729000Y45879000D03*
G04 #@! TD*
G04 #@! TO.P,J2,2*
G04 #@! TO.N,GND*
X44914000Y45879000D03*
X39414000Y45879000D03*
G04 #@! TD*
D20*
G04 #@! TO.P,J4,2*
G04 #@! TO.N,GND*
X45879000Y15284000D03*
X45879000Y20784000D03*
G04 #@! TD*
G04 #@! TO.P,J5,2*
G04 #@! TO.N,GND*
X45752000Y34588000D03*
X45752000Y40088000D03*
G04 #@! TD*
D19*
G04 #@! TO.P,J7,2*
G04 #@! TO.N,GND*
X19856000Y2508000D03*
X25356000Y2508000D03*
G04 #@! TD*
G04 #@! TO.P,J9,2*
G04 #@! TO.N,GND*
X39414000Y2508000D03*
X44914000Y2508000D03*
G04 #@! TD*
D15*
G04 #@! TO.P,C11,2*
G04 #@! TO.N,GND*
X14097000Y42406000D03*
G04 #@! TO.P,C11,1*
G04 #@! TO.N,/VIN*
X14097000Y40906000D03*
G04 #@! TD*
G04 #@! TO.P,C12,2*
G04 #@! TO.N,GND*
X14097000Y43688000D03*
G04 #@! TO.P,C12,1*
G04 #@! TO.N,/9V*
X14097000Y45188000D03*
G04 #@! TD*
D21*
G04 #@! TO.P,C1,1*
G04 #@! TO.N,/VIN*
X1397000Y1675000D03*
G04 #@! TO.P,C1,2*
G04 #@! TO.N,GND*
X1397000Y4675000D03*
G04 #@! TD*
G04 #@! TO.P,C4,1*
G04 #@! TO.N,/5V_unfilt*
X1397000Y8993000D03*
G04 #@! TO.P,C4,2*
G04 #@! TO.N,GND*
X1397000Y5993000D03*
G04 #@! TD*
G04 #@! TO.P,C5,1*
G04 #@! TO.N,/5V*
X22733000Y14351000D03*
G04 #@! TO.P,C5,2*
G04 #@! TO.N,GND*
X22733000Y17351000D03*
G04 #@! TD*
G04 #@! TO.P,C13,1*
G04 #@! TO.N,/VCC*
X30861000Y40156000D03*
G04 #@! TO.P,C13,2*
G04 #@! TO.N,GND*
X30861000Y43156000D03*
G04 #@! TD*
D22*
G04 #@! TO.P,C7,1*
G04 #@! TO.N,/VRF*
X37616000Y21590000D03*
G04 #@! TO.P,C7,2*
G04 #@! TO.N,GND*
X40616000Y21590000D03*
G04 #@! TD*
D23*
G04 #@! TO.N,GND*
X36044000Y14224000D03*
X28968000Y14224000D03*
D24*
X31242000Y25019000D03*
D23*
X24650000Y27432000D03*
X24662000Y23368000D03*
X24650000Y24638000D03*
X24650000Y25908000D03*
X37326000Y23876000D03*
X30988000Y20078000D03*
X33782000Y20078000D03*
D24*
X28702000Y20090000D03*
X31242000Y25654000D03*
X30607000Y26289000D03*
X29972000Y27559000D03*
X30607000Y27559000D03*
X31242000Y27559000D03*
X31877000Y27559000D03*
X29972000Y26924000D03*
X31877000Y26924000D03*
X31242000Y26924000D03*
X30607000Y26924000D03*
X29972000Y26289000D03*
X31877000Y26289000D03*
X31242000Y26289000D03*
X30607000Y25654000D03*
X31877000Y25654000D03*
X29972000Y25654000D03*
X29972000Y25019000D03*
X31877000Y25019000D03*
X30607000Y25019000D03*
D25*
X37326000Y25146000D03*
X40374000Y25146000D03*
X35756910Y31021013D03*
D23*
X44914000Y45879000D03*
X45752000Y40088000D03*
X39414000Y45879000D03*
X25229000Y45879000D03*
X19729000Y45879000D03*
X14859000Y43966000D03*
X14859000Y41735000D03*
X16446000Y33274000D03*
X9397376Y24764376D03*
X45879000Y20784000D03*
X45879000Y15284000D03*
X44914000Y2508000D03*
X39414000Y2508000D03*
X25356000Y2508000D03*
X19856000Y2508000D03*
X6096000Y6882000D03*
X24874000Y38191000D03*
X24164000Y38191000D03*
X22987000Y38143000D03*
X22098000Y38143000D03*
X24257000Y39116000D03*
X24257000Y37478002D03*
X23198000Y37211000D03*
X38963000Y38227000D03*
X38253000Y38227000D03*
X38354000Y37338000D03*
X38354000Y39243000D03*
X37168000Y37211000D03*
X37084000Y38143000D03*
X36195000Y38143000D03*
X45752000Y34588000D03*
X22733000Y17106950D03*
X20651845Y15783626D03*
X32512000Y33570000D03*
X38269000Y27686000D03*
X1397000Y4675000D03*
X1397000Y5993000D03*
X30861000Y43156000D03*
X32004000Y35699000D03*
X40616000Y21590000D03*
X14478000Y27686000D03*
X15367000Y27686000D03*
X13589000Y27686000D03*
X13589000Y26797000D03*
X14478000Y26797000D03*
X15367000Y26797000D03*
X15367000Y28575000D03*
X14478000Y28575000D03*
X13589000Y28575000D03*
X16383000Y32385000D03*
X16383000Y34163000D03*
X19685000Y43942000D03*
X19685000Y44958000D03*
X19685000Y47625000D03*
X19685000Y46736000D03*
X25273000Y47625000D03*
X25273000Y46736000D03*
X25273000Y44958000D03*
X25273000Y43942000D03*
X29090949Y32569910D03*
X28414987Y32188910D03*
X27017987Y32188910D03*
X39370000Y47625000D03*
X39370000Y43942000D03*
X39370000Y44958000D03*
X39370000Y46736000D03*
X44958000Y47625000D03*
X44958000Y43942000D03*
X44958000Y44958000D03*
X44958000Y46736000D03*
X47625000Y40132000D03*
X46736000Y40132000D03*
X43942000Y40132000D03*
X44831000Y40132000D03*
X47625000Y34544000D03*
X43942000Y34544000D03*
X44831000Y34544000D03*
X46736000Y34544000D03*
X47625000Y20828000D03*
X43942000Y20828000D03*
X44831000Y20828000D03*
X46736000Y20828000D03*
X47625000Y15240000D03*
X46736000Y15240000D03*
X44831000Y15240000D03*
X43942000Y15240000D03*
X44958000Y635000D03*
X44958000Y1524000D03*
X44958000Y4318000D03*
X44958000Y3429000D03*
X39370000Y635000D03*
X39370000Y1524000D03*
X39370000Y3429000D03*
X39370000Y4318000D03*
X25400000Y635000D03*
X25400000Y1524000D03*
X25400000Y4318000D03*
X25400000Y3429000D03*
X19685000Y635000D03*
X19685000Y1524000D03*
X19685000Y3429000D03*
X19685000Y4318000D03*
X15748000Y43942000D03*
X15748000Y41783000D03*
X11938000Y18161000D03*
X23622000Y17106950D03*
X21844000Y17145000D03*
X31750000Y43180000D03*
X29845000Y43180000D03*
X40640000Y22479000D03*
X40640000Y20701000D03*
X9779000Y16256000D03*
X14351000Y1294000D03*
X11811000Y1294000D03*
X16891000Y5461000D03*
X26670000Y35052000D03*
X40767000Y36195000D03*
X40767000Y35052000D03*
G04 #@! TO.N,/VIN*
X10033000Y40640000D03*
D25*
G04 #@! TO.N,/VRF*
X38874000Y25146000D03*
D23*
X37297360Y17780000D03*
X37338000Y18923000D03*
D25*
X38711000Y31242000D03*
D23*
X37297360Y17780000D03*
X37338000Y16764000D03*
X34459000Y32512000D03*
X37719000Y30099000D03*
D25*
G04 #@! TO.N,/VCC*
X35826000Y23876000D03*
X26150000Y24638000D03*
D23*
X30532015Y30659015D03*
D25*
X35826000Y25146000D03*
D23*
X24765000Y21209000D03*
D25*
X36494910Y30005013D03*
X30988000Y21578000D03*
D23*
X30607000Y36195000D03*
X29845000Y36195000D03*
X28956000Y36195000D03*
G04 #@! TO.N,GND*
X26718782Y36185304D03*
D24*
G04 #@! TO.N,/MUX*
X33941998Y28412000D03*
X17526000Y24564500D03*
G04 #@! TO.N,/RAMPDIR*
X26928043Y28185914D03*
G04 #@! TO.N,/RAMPCLK*
X26670000Y28702000D03*
G04 #@! TO.N,/SCK*
X33528000Y26416000D03*
G04 #@! TO.N,/SDI*
X33941998Y26912000D03*
G04 #@! TO.N,/CSB*
X31738000Y29162000D03*
G04 #@! TO.N,/CE*
X26670000Y21844000D03*
D23*
G04 #@! TO.N,/SYNC*
X29604002Y21320492D03*
G04 #@! TO.N,/3V3*
X26797000Y17780000D03*
X12446000Y33274000D03*
X11811000Y28321000D03*
X11811000Y29591000D03*
X17526000Y21752980D03*
X12446000Y32385000D03*
X12446000Y34163000D03*
X26797000Y18923000D03*
X26797000Y16764000D03*
X18796000Y36576000D03*
X18796000Y37973000D03*
X18796000Y35306000D03*
G04 #@! TO.N,/RFA_BIAS*
X32512000Y32470000D03*
G04 #@! TO.N,/RFB_BIAS*
X37169000Y27686000D03*
D24*
G04 #@! TO.N,/VTUNE*
X27988000Y26412000D03*
G04 #@! TO.N,/CPOUT*
X34532000Y24389000D03*
D23*
G04 #@! TO.N,/5V*
X19982180Y10033000D03*
X17145000Y29591000D03*
X10795000Y23011980D03*
X20574000Y14478000D03*
X22733000Y14351000D03*
X19939000Y8890000D03*
X19939000Y11303000D03*
X23622000Y14351000D03*
X21844000Y14351000D03*
G04 #@! TO.N,/9V*
X22098000Y37211000D03*
X36068000Y37211000D03*
X35052000Y37743000D03*
X20955000Y37743000D03*
D24*
G04 #@! TO.N,Net-(U3-Pad28)*
X29718000Y29845000D03*
G04 #@! TD*
D26*
G04 #@! TO.N,GND*
X30480000Y27588979D02*
X30988000Y27588979D01*
X29972000Y27588979D02*
X30480000Y27588979D01*
D27*
X32004000Y25146000D02*
X31877000Y25019000D01*
X33032000Y25146000D02*
X32004000Y25146000D01*
X11406000Y42140000D02*
X12192000Y42926000D01*
X10033000Y42140000D02*
X11406000Y42140000D01*
X13962000Y42926000D02*
X14097000Y42926000D01*
X12192000Y42926000D02*
X13962000Y42926000D01*
X14097000Y43688000D02*
X14097000Y42926000D01*
X14097000Y42926000D02*
X14097000Y42406000D01*
X22733000Y17351000D02*
X22733000Y17106950D01*
X20574000Y15978000D02*
X20574000Y15861471D01*
X20574000Y15861471D02*
X20651845Y15783626D01*
D28*
X1397000Y4675000D02*
X1397000Y5993000D01*
D27*
X19685000Y43942000D02*
X19685000Y44958000D01*
X19685000Y47625000D02*
X19685000Y46736000D01*
X25273000Y47625000D02*
X25273000Y46736000D01*
X25229000Y45879000D02*
X25229000Y43986000D01*
X25229000Y43986000D02*
X25273000Y43942000D01*
X39370000Y47625000D02*
X39370000Y43942000D01*
X39370000Y44958000D02*
X39370000Y46736000D01*
X44958000Y47625000D02*
X44958000Y43942000D01*
X44958000Y44958000D02*
X44958000Y46736000D01*
X47625000Y40132000D02*
X46736000Y40132000D01*
X43942000Y40132000D02*
X44831000Y40132000D01*
X47625000Y34544000D02*
X43942000Y34544000D01*
X44831000Y34544000D02*
X46736000Y34544000D01*
X47625000Y20828000D02*
X43942000Y20828000D01*
X44831000Y20828000D02*
X46736000Y20828000D01*
X47625000Y15240000D02*
X46736000Y15240000D01*
X44831000Y15240000D02*
X43942000Y15240000D01*
X44914000Y2508000D02*
X44914000Y4274000D01*
X44914000Y4274000D02*
X44958000Y4318000D01*
X39414000Y2508000D02*
X39414000Y679000D01*
X39414000Y679000D02*
X39370000Y635000D01*
X39370000Y1524000D02*
X39370000Y3429000D01*
X25356000Y2508000D02*
X25356000Y679000D01*
X25356000Y679000D02*
X25400000Y635000D01*
X25400000Y1524000D02*
X25400000Y4318000D01*
X19856000Y2508000D02*
X19856000Y806000D01*
X19856000Y806000D02*
X19685000Y635000D01*
X19685000Y1524000D02*
X19685000Y3429000D01*
X22733000Y17351000D02*
X23377950Y17351000D01*
X23377950Y17351000D02*
X23622000Y17106950D01*
X22733000Y17351000D02*
X22050000Y17351000D01*
X22050000Y17351000D02*
X21844000Y17145000D01*
X30861000Y43156000D02*
X31726000Y43156000D01*
X31726000Y43156000D02*
X31750000Y43180000D01*
X30861000Y43156000D02*
X29869000Y43156000D01*
X29869000Y43156000D02*
X29845000Y43180000D01*
X40616000Y21590000D02*
X40616000Y22455000D01*
X40616000Y22455000D02*
X40640000Y22479000D01*
X40616000Y21590000D02*
X40616000Y20725000D01*
X40616000Y20725000D02*
X40640000Y20701000D01*
D28*
G04 #@! TO.N,/VIN*
X1929000Y1675000D02*
X4064000Y3810000D01*
X1397000Y1675000D02*
X1929000Y1675000D01*
D29*
X12712000Y40906000D02*
X12192000Y40386000D01*
X14097000Y40906000D02*
X12712000Y40906000D01*
D30*
G04 #@! TO.N,/VRF*
X37297360Y17780000D02*
X37297360Y18882360D01*
X37297360Y18882360D02*
X37338000Y18923000D01*
X37297360Y17780000D02*
X37297360Y16677640D01*
X37805360Y18963640D02*
X37846000Y18923000D01*
D29*
X32869000Y17780000D02*
X37297360Y17780000D01*
D31*
X37616000Y21590000D02*
X37616000Y18098640D01*
X37616000Y18098640D02*
X37297360Y17780000D01*
D27*
X37229000Y29379000D02*
X37211000Y29379000D01*
X37719000Y30099000D02*
X37229000Y29379000D01*
D30*
G04 #@! TO.N,/VCC*
X30312360Y36576000D02*
X30312360Y37424360D01*
X30312360Y37424360D02*
X31242000Y38354000D01*
D32*
X29337000Y36576000D02*
X30226000Y36576000D01*
X30226000Y36576000D02*
X30607000Y36195000D01*
X30607000Y36195000D02*
X29845000Y36195000D01*
X29337000Y36576000D02*
X28956000Y36195000D01*
D29*
X29960000Y37199000D02*
X29337000Y36576000D01*
X32004000Y37199000D02*
X29960000Y37199000D01*
D31*
X30861000Y38100000D02*
X29337000Y36576000D01*
X30861000Y40156000D02*
X30861000Y38100000D01*
D29*
X25769000Y36576000D02*
X25769000Y37580000D01*
X25769000Y37580000D02*
X26416000Y38227000D01*
X26416000Y38227000D02*
X28321000Y38227000D01*
X28321000Y37719000D02*
X29718000Y36322000D01*
X28321000Y38227000D02*
X28321000Y37719000D01*
D30*
G04 #@! TO.N,Net-(C29-Pad1)*
X28714000Y25007000D02*
X28702000Y25019000D01*
X28714000Y23622000D02*
X28714000Y25007000D01*
X27420000Y25019000D02*
X27305000Y24904000D01*
X28702000Y25019000D02*
X27420000Y25019000D01*
G04 #@! TO.N,Net-(C30-Pad2)*
X31635000Y23622000D02*
X31623000Y23634000D01*
X33032000Y23622000D02*
X31635000Y23622000D01*
D33*
G04 #@! TO.N,/MUX*
X28526010Y29893990D02*
X23675184Y29893990D01*
X33941998Y28412000D02*
X33646499Y28707499D01*
X29712501Y28707499D02*
X28526010Y29893990D01*
X23675184Y29893990D02*
X17965684Y24184489D01*
X33646499Y28707499D02*
X29712501Y28707499D01*
X17965684Y24184489D02*
X17217511Y24184489D01*
D32*
X17301001Y24339501D02*
X17301001Y24267979D01*
X17526000Y24564500D02*
X17301001Y24339501D01*
X17301001Y24267979D02*
X17240011Y24206989D01*
D33*
X17217511Y24184489D02*
X17240011Y24206989D01*
X3556000Y41656000D02*
X5061000Y41656000D01*
X9319990Y37397010D02*
X9319990Y27891010D01*
X5061000Y41656000D02*
X9319990Y37397010D01*
X17197076Y24204924D02*
X17217511Y24184489D01*
X13006076Y24204924D02*
X17197076Y24204924D01*
X9319990Y27891010D02*
X13006076Y24204924D01*
G04 #@! TO.N,/RAMPDIR*
X26928043Y28185914D02*
X26323576Y28185914D01*
X26323576Y28185914D02*
X26162000Y28347490D01*
X24038635Y28347490D02*
X18450635Y22759490D01*
X26162000Y28347490D02*
X24038635Y28347490D01*
X12270010Y22781990D02*
X18493010Y22781990D01*
X3556000Y31496000D02*
X12270010Y22781990D01*
G04 #@! TO.N,/RAMPCLK*
X23891793Y28702000D02*
X18303793Y23114000D01*
X26670000Y28702000D02*
X23891793Y28702000D01*
X12484467Y23114000D02*
X18303793Y23114000D01*
X5085510Y30512957D02*
X12484467Y23114000D01*
X5085510Y32806490D02*
X5085510Y30512957D01*
X3856000Y34036000D02*
X5085510Y32806490D01*
X3556000Y34036000D02*
X3856000Y34036000D01*
G04 #@! TO.N,/SCK*
X28232467Y29210000D02*
X23930260Y29210000D01*
X28272010Y29170457D02*
X28232467Y29210000D01*
X33528000Y26416000D02*
X33020000Y26924000D01*
X29437455Y28043479D02*
X28310477Y29170457D01*
X33020000Y26924000D02*
X33020000Y27940000D01*
X33020000Y27940000D02*
X32916521Y28043479D01*
X23930260Y29210000D02*
X18240730Y23520469D01*
X32916521Y28043479D02*
X29437455Y28043479D01*
X28310477Y29170457D02*
X28272010Y29170457D01*
X8655970Y32981030D02*
X8655970Y27412030D01*
X3556000Y36576000D02*
X5061000Y36576000D01*
X5061000Y36576000D02*
X8655970Y32981030D01*
X12547531Y23520469D02*
X18240730Y23520469D01*
X8655970Y27412030D02*
X12547531Y23520469D01*
G04 #@! TO.N,/SDI*
X28409533Y29502467D02*
X28350020Y29561980D01*
X33941998Y26912000D02*
X33487497Y27366501D01*
X23812707Y29561980D02*
X18103207Y23852479D01*
X28448000Y29502467D02*
X28409533Y29502467D01*
X33487497Y27366501D02*
X33487497Y28234503D01*
X33487497Y28234503D02*
X33346511Y28375489D01*
X33346511Y28375489D02*
X29574978Y28375489D01*
X28350020Y29561980D02*
X23812707Y29561980D01*
X29574978Y28375489D02*
X28448000Y29502467D01*
X8987980Y35189020D02*
X8987980Y27588020D01*
X3556000Y39116000D02*
X5061000Y39116000D01*
X5061000Y39116000D02*
X8987980Y35189020D01*
X12723521Y23852479D02*
X18103207Y23852479D01*
X8987980Y27588020D02*
X12723521Y23852479D01*
G04 #@! TO.N,/CSB*
X29744338Y29162000D02*
X28680338Y30226000D01*
X18288000Y25019000D02*
X16764000Y25019000D01*
X28680338Y30226000D02*
X23537662Y30226000D01*
X31738000Y29162000D02*
X29744338Y29162000D01*
X23537662Y30226000D02*
X18288000Y25019000D01*
X16764000Y25019000D02*
X16281934Y24536934D01*
X16281934Y24536934D02*
X16244368Y24574500D01*
X16281934Y24536934D02*
X13563066Y24536934D01*
X13563066Y24536934D02*
X9652000Y28448000D01*
X3856000Y44196000D02*
X3556000Y44196000D01*
X9652000Y38400000D02*
X3856000Y44196000D01*
X9652000Y28448000D02*
X9652000Y38400000D01*
G04 #@! TO.N,/CE*
X3856000Y28956000D02*
X3556000Y28956000D01*
X26670000Y21844000D02*
X24130000Y21844000D01*
X21336000Y24638000D02*
X20862317Y24638000D01*
X20862317Y24638000D02*
X18606797Y22382480D01*
X24130000Y21844000D02*
X21336000Y24638000D01*
X18606797Y22382480D02*
X10429520Y22382480D01*
X10429520Y22382480D02*
X3856000Y28956000D01*
D32*
G04 #@! TO.N,/SYNC*
X5894648Y26416000D02*
X11101648Y21209000D01*
X3556000Y26416000D02*
X5894648Y26416000D01*
X17105018Y21209000D02*
X17232018Y21082000D01*
X11101648Y21209000D02*
X17105018Y21209000D01*
X17232018Y21082000D02*
X17907000Y21082000D01*
X17907000Y21082000D02*
X20320000Y23495000D01*
X23258001Y20556999D02*
X26398999Y20556999D01*
X20320000Y23495000D02*
X23258001Y20556999D01*
X26398999Y20556999D02*
X27162492Y21320492D01*
X27162492Y21320492D02*
X29604002Y21320492D01*
D29*
G04 #@! TO.N,/3V3*
X31369000Y17780000D02*
X26797000Y17780000D01*
X21213038Y36576000D02*
X21848038Y35941000D01*
X18836640Y36576000D02*
X21213038Y36576000D01*
X21848038Y35941000D02*
X23876000Y35941000D01*
D27*
X23876000Y36183000D02*
X24269000Y36576000D01*
X23876000Y35941000D02*
X23876000Y36183000D01*
X18836640Y36576000D02*
X18836640Y36108640D01*
X18836640Y36108640D02*
X18161000Y35433000D01*
X26797000Y17780000D02*
X26797000Y18923000D01*
D28*
X18836640Y36576000D02*
X18796000Y36576000D01*
X18796000Y36576000D02*
X18796000Y37973000D01*
X18796000Y36576000D02*
X18796000Y35306000D01*
D27*
G04 #@! TO.N,/RFA_BIAS*
X32554000Y32512000D02*
X32512000Y32470000D01*
X33359000Y32512000D02*
X32554000Y32512000D01*
G04 #@! TO.N,/RFB_BIAS*
X37211000Y27728000D02*
X37169000Y27686000D01*
X37211000Y28279000D02*
X37211000Y27728000D01*
D30*
G04 #@! TO.N,/VTUNE*
X28702000Y26404000D02*
X28714000Y26416000D01*
X27305000Y26404000D02*
X28702000Y26404000D01*
G04 #@! TO.N,/CPOUT*
X30239000Y23622000D02*
X31001000Y24384000D01*
X30214000Y23622000D02*
X30239000Y23622000D01*
X34532000Y25146000D02*
X34532000Y24384000D01*
X34532000Y24384000D02*
X34532000Y23622000D01*
X31001000Y24384000D02*
X34532000Y24389000D01*
X34532000Y24389000D02*
X34532000Y24384000D01*
D31*
G04 #@! TO.N,/5V_unfilt*
X5207000Y10033000D02*
X4064000Y8890000D01*
D29*
X6096000Y9906000D02*
X6223000Y10033000D01*
D31*
X9481820Y10033000D02*
X6223000Y10033000D01*
D29*
X6096000Y8382000D02*
X6096000Y9906000D01*
D31*
X6223000Y10033000D02*
X5207000Y10033000D01*
D29*
X13994000Y10033000D02*
X9481820Y10033000D01*
D28*
X4064000Y11406000D02*
X4064000Y8890000D01*
X1378999Y14091001D02*
X4064000Y11406000D01*
X1378999Y17957601D02*
X1378999Y14091001D01*
X2217398Y18796000D02*
X1378999Y17957601D01*
X3556000Y18796000D02*
X2217398Y18796000D01*
X3961000Y8993000D02*
X4064000Y8890000D01*
X1397000Y8993000D02*
X3961000Y8993000D01*
D29*
G04 #@! TO.N,/5V*
X15494000Y10033000D02*
X19982180Y10033000D01*
D27*
X19982180Y10033000D02*
X19982180Y8933180D01*
X19982180Y8933180D02*
X19939000Y8890000D01*
X19982180Y10033000D02*
X19982180Y11259820D01*
X19982180Y11259820D02*
X19939000Y11303000D01*
X22733000Y14351000D02*
X23622000Y14351000D01*
X22733000Y14351000D02*
X21844000Y14351000D01*
G04 #@! TO.N,/9V*
X12470000Y45188000D02*
X12192000Y45466000D01*
X14097000Y45188000D02*
X12470000Y45188000D01*
D30*
G04 #@! TO.N,Net-(U3-Pad28)*
X29763999Y30525999D02*
X29763999Y32811999D01*
X29763999Y32811999D02*
X30480000Y33528000D01*
D32*
X29718000Y30480000D02*
X29763999Y30525999D01*
X29718000Y29845000D02*
X29718000Y30480000D01*
G04 #@! TD*
D34*
G04 #@! TO.N,GND*
G36*
X17127324Y34325560D02*
X17145000Y34236695D01*
X17145000Y34036000D01*
X17154667Y33987399D01*
X17182197Y33946197D01*
X17223399Y33918667D01*
X17272000Y33909000D01*
X24257000Y33909000D01*
X24257000Y30607000D01*
X22860000Y30607000D01*
X22811399Y30597333D01*
X22770197Y30569803D01*
X17727394Y25527000D01*
X13260606Y25527000D01*
X10287000Y28500606D01*
X10287000Y29721089D01*
X11157000Y29721089D01*
X11157000Y29460911D01*
X11256565Y29220539D01*
X11440539Y29036565D01*
X11635041Y28956000D01*
X11440539Y28875435D01*
X11256565Y28691461D01*
X11157000Y28451089D01*
X11157000Y28190911D01*
X11256565Y27950539D01*
X11440539Y27766565D01*
X11680911Y27667000D01*
X11941089Y27667000D01*
X12181461Y27766565D01*
X12365435Y27950539D01*
X12465000Y28190911D01*
X12465000Y28451089D01*
X12365435Y28691461D01*
X12181461Y28875435D01*
X11986959Y28956000D01*
X12181461Y29036565D01*
X12365435Y29220539D01*
X12465000Y29460911D01*
X12465000Y29721089D01*
X16491000Y29721089D01*
X16491000Y29460911D01*
X16590565Y29220539D01*
X16774539Y29036565D01*
X17014911Y28937000D01*
X17275089Y28937000D01*
X17515461Y29036565D01*
X17699435Y29220539D01*
X17799000Y29460911D01*
X17799000Y29721089D01*
X17699435Y29961461D01*
X17515461Y30145435D01*
X17275089Y30245000D01*
X17014911Y30245000D01*
X16774539Y30145435D01*
X16590565Y29961461D01*
X16491000Y29721089D01*
X12465000Y29721089D01*
X12365435Y29961461D01*
X12181461Y30145435D01*
X11941089Y30245000D01*
X11680911Y30245000D01*
X11440539Y30145435D01*
X11256565Y29961461D01*
X11157000Y29721089D01*
X10287000Y29721089D01*
X10287000Y34293089D01*
X11792000Y34293089D01*
X11792000Y34032911D01*
X11891565Y33792539D01*
X11965604Y33718500D01*
X11891565Y33644461D01*
X11792000Y33404089D01*
X11792000Y33143911D01*
X11891565Y32903539D01*
X11965604Y32829500D01*
X11891565Y32755461D01*
X11792000Y32515089D01*
X11792000Y32254911D01*
X11891565Y32014539D01*
X12075539Y31830565D01*
X12315911Y31731000D01*
X12576089Y31731000D01*
X12816461Y31830565D01*
X13000435Y32014539D01*
X13100000Y32254911D01*
X13100000Y32515089D01*
X13000435Y32755461D01*
X12926396Y32829500D01*
X13000435Y32903539D01*
X13100000Y33143911D01*
X13100000Y33404089D01*
X13000435Y33644461D01*
X12926396Y33718500D01*
X13000435Y33792539D01*
X13100000Y34032911D01*
X13100000Y34293089D01*
X13000435Y34533461D01*
X12816461Y34717435D01*
X12576089Y34817000D01*
X12315911Y34817000D01*
X12075539Y34717435D01*
X11891565Y34533461D01*
X11792000Y34293089D01*
X10287000Y34293089D01*
X10287000Y34925000D01*
X17127324Y34925000D01*
X17127324Y34325560D01*
X17127324Y34325560D01*
G37*
X17127324Y34325560D02*
X17145000Y34236695D01*
X17145000Y34036000D01*
X17154667Y33987399D01*
X17182197Y33946197D01*
X17223399Y33918667D01*
X17272000Y33909000D01*
X24257000Y33909000D01*
X24257000Y30607000D01*
X22860000Y30607000D01*
X22811399Y30597333D01*
X22770197Y30569803D01*
X17727394Y25527000D01*
X13260606Y25527000D01*
X10287000Y28500606D01*
X10287000Y29721089D01*
X11157000Y29721089D01*
X11157000Y29460911D01*
X11256565Y29220539D01*
X11440539Y29036565D01*
X11635041Y28956000D01*
X11440539Y28875435D01*
X11256565Y28691461D01*
X11157000Y28451089D01*
X11157000Y28190911D01*
X11256565Y27950539D01*
X11440539Y27766565D01*
X11680911Y27667000D01*
X11941089Y27667000D01*
X12181461Y27766565D01*
X12365435Y27950539D01*
X12465000Y28190911D01*
X12465000Y28451089D01*
X12365435Y28691461D01*
X12181461Y28875435D01*
X11986959Y28956000D01*
X12181461Y29036565D01*
X12365435Y29220539D01*
X12465000Y29460911D01*
X12465000Y29721089D01*
X16491000Y29721089D01*
X16491000Y29460911D01*
X16590565Y29220539D01*
X16774539Y29036565D01*
X17014911Y28937000D01*
X17275089Y28937000D01*
X17515461Y29036565D01*
X17699435Y29220539D01*
X17799000Y29460911D01*
X17799000Y29721089D01*
X17699435Y29961461D01*
X17515461Y30145435D01*
X17275089Y30245000D01*
X17014911Y30245000D01*
X16774539Y30145435D01*
X16590565Y29961461D01*
X16491000Y29721089D01*
X12465000Y29721089D01*
X12365435Y29961461D01*
X12181461Y30145435D01*
X11941089Y30245000D01*
X11680911Y30245000D01*
X11440539Y30145435D01*
X11256565Y29961461D01*
X11157000Y29721089D01*
X10287000Y29721089D01*
X10287000Y34293089D01*
X11792000Y34293089D01*
X11792000Y34032911D01*
X11891565Y33792539D01*
X11965604Y33718500D01*
X11891565Y33644461D01*
X11792000Y33404089D01*
X11792000Y33143911D01*
X11891565Y32903539D01*
X11965604Y32829500D01*
X11891565Y32755461D01*
X11792000Y32515089D01*
X11792000Y32254911D01*
X11891565Y32014539D01*
X12075539Y31830565D01*
X12315911Y31731000D01*
X12576089Y31731000D01*
X12816461Y31830565D01*
X13000435Y32014539D01*
X13100000Y32254911D01*
X13100000Y32515089D01*
X13000435Y32755461D01*
X12926396Y32829500D01*
X13000435Y32903539D01*
X13100000Y33143911D01*
X13100000Y33404089D01*
X13000435Y33644461D01*
X12926396Y33718500D01*
X13000435Y33792539D01*
X13100000Y34032911D01*
X13100000Y34293089D01*
X13000435Y34533461D01*
X12816461Y34717435D01*
X12576089Y34817000D01*
X12315911Y34817000D01*
X12075539Y34717435D01*
X11891565Y34533461D01*
X11792000Y34293089D01*
X10287000Y34293089D01*
X10287000Y34925000D01*
X17127324Y34925000D01*
X17127324Y34325560D01*
G04 #@! TD*
M02*
