G04 #@! TF.GenerationSoftware,KiCad,Pcbnew,5.0.2-bee76a0~70~ubuntu18.04.1*
G04 #@! TF.CreationDate,2020-07-03T21:26:00+02:00*
G04 #@! TF.ProjectId,lmx2594,6c6d7832-3539-4342-9e6b-696361645f70,rev?*
G04 #@! TF.SameCoordinates,PX463f660PY71d9820*
G04 #@! TF.FileFunction,Soldermask,Top*
G04 #@! TF.FilePolarity,Negative*
%FSLAX46Y46*%
G04 Gerber Fmt 4.6, Leading zero omitted, Abs format (unit mm)*
G04 Created by KiCad (PCBNEW 5.0.2-bee76a0~70~ubuntu18.04.1) date fre  3 jul 2020 21:26:00*
%MOMM*%
%LPD*%
G01*
G04 APERTURE LIST*
%ADD10C,0.100000*%
G04 APERTURE END LIST*
D10*
G36*
X45715000Y207000D02*
X44113000Y207000D01*
X44113000Y4809000D01*
X45715000Y4809000D01*
X45715000Y207000D01*
X45715000Y207000D01*
G37*
G36*
X42415000Y207000D02*
X41913000Y207000D01*
X41913000Y4809000D01*
X42415000Y4809000D01*
X42415000Y207000D01*
X42415000Y207000D01*
G37*
G36*
X40215000Y207000D02*
X38613000Y207000D01*
X38613000Y4809000D01*
X40215000Y4809000D01*
X40215000Y207000D01*
X40215000Y207000D01*
G37*
G36*
X22857000Y207000D02*
X22355000Y207000D01*
X22355000Y4809000D01*
X22857000Y4809000D01*
X22857000Y207000D01*
X22857000Y207000D01*
G37*
G36*
X26157000Y207000D02*
X24555000Y207000D01*
X24555000Y4809000D01*
X26157000Y4809000D01*
X26157000Y207000D01*
X26157000Y207000D01*
G37*
G36*
X20657000Y207000D02*
X19055000Y207000D01*
X19055000Y4809000D01*
X20657000Y4809000D01*
X20657000Y207000D01*
X20657000Y207000D01*
G37*
G36*
X14777000Y843000D02*
X13925000Y843000D01*
X13925000Y1745000D01*
X14777000Y1745000D01*
X14777000Y843000D01*
X14777000Y843000D01*
G37*
G36*
X12237000Y843000D02*
X11385000Y843000D01*
X11385000Y1745000D01*
X12237000Y1745000D01*
X12237000Y843000D01*
X12237000Y843000D01*
G37*
G36*
X14777000Y2343000D02*
X13925000Y2343000D01*
X13925000Y3245000D01*
X14777000Y3245000D01*
X14777000Y2343000D01*
X14777000Y2343000D01*
G37*
G36*
X12237000Y2343000D02*
X11385000Y2343000D01*
X11385000Y3245000D01*
X12237000Y3245000D01*
X12237000Y2343000D01*
X12237000Y2343000D01*
G37*
G36*
X4433114Y4870824D02*
X4527168Y4861561D01*
X4728299Y4800549D01*
X4760899Y4783124D01*
X4913662Y4701471D01*
X5076133Y4568133D01*
X5209471Y4405662D01*
X5291124Y4252899D01*
X5308549Y4220299D01*
X5369561Y4019168D01*
X5390162Y3810000D01*
X5369561Y3600832D01*
X5308549Y3399701D01*
X5308546Y3399696D01*
X5209471Y3214338D01*
X5076133Y3051867D01*
X4913662Y2918529D01*
X4760899Y2836876D01*
X4728299Y2819451D01*
X4527168Y2758439D01*
X4433114Y2749176D01*
X4370413Y2743000D01*
X3757587Y2743000D01*
X3694886Y2749176D01*
X3600832Y2758439D01*
X3399701Y2819451D01*
X3367101Y2836876D01*
X3214338Y2918529D01*
X3051867Y3051867D01*
X2918529Y3214338D01*
X2819454Y3399696D01*
X2819451Y3399701D01*
X2758439Y3600832D01*
X2737838Y3810000D01*
X2758439Y4019168D01*
X2819451Y4220299D01*
X2836876Y4252899D01*
X2918529Y4405662D01*
X3051867Y4568133D01*
X3214338Y4701471D01*
X3367101Y4783124D01*
X3399701Y4800549D01*
X3600832Y4861561D01*
X3694886Y4870824D01*
X3757587Y4877000D01*
X4370413Y4877000D01*
X4433114Y4870824D01*
X4433114Y4870824D01*
G37*
G36*
X15037000Y4140000D02*
X13665000Y4140000D01*
X13665000Y6782000D01*
X15037000Y6782000D01*
X15037000Y4140000D01*
X15037000Y4140000D01*
G37*
G36*
X12497000Y4140000D02*
X11125000Y4140000D01*
X11125000Y6782000D01*
X12497000Y6782000D01*
X12497000Y4140000D01*
X12497000Y4140000D01*
G37*
G36*
X17577000Y4140000D02*
X16205000Y4140000D01*
X16205000Y6782000D01*
X17577000Y6782000D01*
X17577000Y4140000D01*
X17577000Y4140000D01*
G37*
G36*
X4431331Y7411000D02*
X4527168Y7401561D01*
X4728299Y7340549D01*
X4760899Y7323124D01*
X4913662Y7241471D01*
X5076133Y7108133D01*
X5209471Y6945662D01*
X5291124Y6792899D01*
X5308549Y6760299D01*
X5369561Y6559168D01*
X5390162Y6350000D01*
X5369561Y6140832D01*
X5308549Y5939701D01*
X5308546Y5939696D01*
X5209471Y5754338D01*
X5076133Y5591867D01*
X4913662Y5458529D01*
X4760899Y5376876D01*
X4728299Y5359451D01*
X4527168Y5298439D01*
X4433114Y5289176D01*
X4370413Y5283000D01*
X3757587Y5283000D01*
X3694886Y5289176D01*
X3600832Y5298439D01*
X3399701Y5359451D01*
X3367101Y5376876D01*
X3214338Y5458529D01*
X3051867Y5591867D01*
X2918529Y5754338D01*
X2819454Y5939696D01*
X2819451Y5939701D01*
X2758439Y6140832D01*
X2737838Y6350000D01*
X2758439Y6559168D01*
X2819451Y6760299D01*
X2836876Y6792899D01*
X2918529Y6945662D01*
X3051867Y7108133D01*
X3214338Y7241471D01*
X3367101Y7323124D01*
X3399701Y7340549D01*
X3600832Y7401561D01*
X3696669Y7411000D01*
X3757587Y7417000D01*
X4370413Y7417000D01*
X4431331Y7411000D01*
X4431331Y7411000D01*
G37*
G36*
X25101000Y6547000D02*
X24199000Y6547000D01*
X24199000Y7399000D01*
X25101000Y7399000D01*
X25101000Y6547000D01*
X25101000Y6547000D01*
G37*
G36*
X26601000Y6547000D02*
X25699000Y6547000D01*
X25699000Y7399000D01*
X26601000Y7399000D01*
X26601000Y6547000D01*
X26601000Y6547000D01*
G37*
G36*
X40571000Y6559000D02*
X39669000Y6559000D01*
X39669000Y7411000D01*
X40571000Y7411000D01*
X40571000Y6559000D01*
X40571000Y6559000D01*
G37*
G36*
X39071000Y6559000D02*
X38169000Y6559000D01*
X38169000Y7411000D01*
X39071000Y7411000D01*
X39071000Y6559000D01*
X39071000Y6559000D01*
G37*
G36*
X4433114Y9950824D02*
X4527168Y9941561D01*
X4728299Y9880549D01*
X4760899Y9863124D01*
X4913662Y9781471D01*
X5076133Y9648133D01*
X5209471Y9485662D01*
X5291124Y9332899D01*
X5308549Y9300299D01*
X5369561Y9099168D01*
X5390162Y8890000D01*
X5369561Y8680832D01*
X5308549Y8479701D01*
X5308546Y8479696D01*
X5209471Y8294338D01*
X5076133Y8131867D01*
X4913662Y7998529D01*
X4760899Y7916876D01*
X4728299Y7899451D01*
X4527168Y7838439D01*
X4433114Y7829176D01*
X4370413Y7823000D01*
X3757587Y7823000D01*
X3694886Y7829176D01*
X3600832Y7838439D01*
X3399701Y7899451D01*
X3367101Y7916876D01*
X3214338Y7998529D01*
X3051867Y8131867D01*
X2918529Y8294338D01*
X2819454Y8479696D01*
X2819451Y8479701D01*
X2758439Y8680832D01*
X2737838Y8890000D01*
X2758439Y9099168D01*
X2819451Y9300299D01*
X2836876Y9332899D01*
X2918529Y9485662D01*
X3051867Y9648133D01*
X3214338Y9781471D01*
X3367101Y9863124D01*
X3399701Y9880549D01*
X3600832Y9941561D01*
X3694886Y9950824D01*
X3757587Y9957000D01*
X4370413Y9957000D01*
X4433114Y9950824D01*
X4433114Y9950824D01*
G37*
G36*
X32951000Y12528000D02*
X32049000Y12528000D01*
X32049000Y13380000D01*
X32951000Y13380000D01*
X32951000Y12528000D01*
X32951000Y12528000D01*
G37*
G36*
X30157000Y12528000D02*
X29255000Y12528000D01*
X29255000Y13380000D01*
X30157000Y13380000D01*
X30157000Y12528000D01*
X30157000Y12528000D01*
G37*
G36*
X28657000Y12528000D02*
X27755000Y12528000D01*
X27755000Y13380000D01*
X28657000Y13380000D01*
X28657000Y12528000D01*
X28657000Y12528000D01*
G37*
G36*
X31451000Y12528000D02*
X30549000Y12528000D01*
X30549000Y13380000D01*
X31451000Y13380000D01*
X31451000Y12528000D01*
X31451000Y12528000D01*
G37*
G36*
X11742000Y15807000D02*
X11744402Y15782614D01*
X11751515Y15759165D01*
X11763066Y15737554D01*
X11778612Y15718612D01*
X11797554Y15703066D01*
X11819165Y15691515D01*
X11842614Y15684402D01*
X11867000Y15682000D01*
X12497000Y15682000D01*
X12497000Y13040000D01*
X11125000Y13040000D01*
X11125000Y15705000D01*
X11122598Y15729386D01*
X11115485Y15752835D01*
X11103934Y15774446D01*
X11088388Y15793388D01*
X11069446Y15808934D01*
X11047835Y15820485D01*
X11024386Y15827598D01*
X11000000Y15830000D01*
X10840000Y15830000D01*
X10840000Y16682000D01*
X11742000Y16682000D01*
X11742000Y15807000D01*
X11742000Y15807000D01*
G37*
G36*
X17577000Y13040000D02*
X16205000Y13040000D01*
X16205000Y15682000D01*
X17577000Y15682000D01*
X17577000Y13040000D01*
X17577000Y13040000D01*
G37*
G36*
X15037000Y13040000D02*
X13665000Y13040000D01*
X13665000Y15682000D01*
X15037000Y15682000D01*
X15037000Y13040000D01*
X15037000Y13040000D01*
G37*
G36*
X36495000Y13798000D02*
X35593000Y13798000D01*
X35593000Y14650000D01*
X36495000Y14650000D01*
X36495000Y13798000D01*
X36495000Y13798000D01*
G37*
G36*
X34995000Y13798000D02*
X34093000Y13798000D01*
X34093000Y14650000D01*
X34995000Y14650000D01*
X34995000Y13798000D01*
X34995000Y13798000D01*
G37*
G36*
X32213000Y13798000D02*
X31311000Y13798000D01*
X31311000Y14650000D01*
X32213000Y14650000D01*
X32213000Y13798000D01*
X32213000Y13798000D01*
G37*
G36*
X29419000Y13798000D02*
X28517000Y13798000D01*
X28517000Y14650000D01*
X29419000Y14650000D01*
X29419000Y13798000D01*
X29419000Y13798000D01*
G37*
G36*
X30919000Y13798000D02*
X30017000Y13798000D01*
X30017000Y14650000D01*
X30919000Y14650000D01*
X30919000Y13798000D01*
X30919000Y13798000D01*
G37*
G36*
X33713000Y13798000D02*
X32811000Y13798000D01*
X32811000Y14650000D01*
X33713000Y14650000D01*
X33713000Y13798000D01*
X33713000Y13798000D01*
G37*
G36*
X48180000Y14483000D02*
X43578000Y14483000D01*
X43578000Y16085000D01*
X48180000Y16085000D01*
X48180000Y14483000D01*
X48180000Y14483000D01*
G37*
G36*
X4907000Y15205000D02*
X2205000Y15205000D01*
X2205000Y17307000D01*
X4907000Y17307000D01*
X4907000Y15205000D01*
X4907000Y15205000D01*
G37*
G36*
X32176000Y15309000D02*
X31324000Y15309000D01*
X31324000Y16211000D01*
X32176000Y16211000D01*
X32176000Y15309000D01*
X32176000Y15309000D01*
G37*
G36*
X33700000Y15309000D02*
X32848000Y15309000D01*
X32848000Y16211000D01*
X33700000Y16211000D01*
X33700000Y15309000D01*
X33700000Y15309000D01*
G37*
G36*
X10242000Y15830000D02*
X9340000Y15830000D01*
X9340000Y16682000D01*
X10242000Y16682000D01*
X10242000Y15830000D01*
X10242000Y15830000D01*
G37*
G36*
X33700000Y16809000D02*
X32848000Y16809000D01*
X32848000Y17711000D01*
X33700000Y17711000D01*
X33700000Y16809000D01*
X33700000Y16809000D01*
G37*
G36*
X32176000Y16809000D02*
X31324000Y16809000D01*
X31324000Y17711000D01*
X32176000Y17711000D01*
X32176000Y16809000D01*
X32176000Y16809000D01*
G37*
G36*
X12639000Y17327000D02*
X11237000Y17327000D01*
X11237000Y18929000D01*
X12639000Y18929000D01*
X12639000Y17327000D01*
X12639000Y17327000D01*
G37*
G36*
X10861000Y17327000D02*
X9459000Y17327000D01*
X9459000Y18929000D01*
X10861000Y18929000D01*
X10861000Y17327000D01*
X10861000Y17327000D01*
G37*
G36*
X14417000Y17327000D02*
X13015000Y17327000D01*
X13015000Y18929000D01*
X14417000Y18929000D01*
X14417000Y17327000D01*
X14417000Y17327000D01*
G37*
G36*
X3938510Y19843959D02*
X4062032Y19831793D01*
X4260146Y19771695D01*
X4442729Y19674103D01*
X4602765Y19542765D01*
X4734103Y19382729D01*
X4831695Y19200146D01*
X4891793Y19002032D01*
X4912085Y18796000D01*
X4891793Y18589968D01*
X4831695Y18391854D01*
X4734103Y18209271D01*
X4602765Y18049235D01*
X4442729Y17917897D01*
X4260146Y17820305D01*
X4062032Y17760207D01*
X3938510Y17748041D01*
X3907631Y17745000D01*
X3204369Y17745000D01*
X3173490Y17748041D01*
X3049968Y17760207D01*
X2851854Y17820305D01*
X2669271Y17917897D01*
X2509235Y18049235D01*
X2377897Y18209271D01*
X2280305Y18391854D01*
X2220207Y18589968D01*
X2199915Y18796000D01*
X2220207Y19002032D01*
X2280305Y19200146D01*
X2377897Y19382729D01*
X2509235Y19542765D01*
X2669271Y19674103D01*
X2851854Y19771695D01*
X3049968Y19831793D01*
X3173490Y19843959D01*
X3204369Y19847000D01*
X3907631Y19847000D01*
X3938510Y19843959D01*
X3938510Y19843959D01*
G37*
G36*
X48180000Y17783000D02*
X43578000Y17783000D01*
X43578000Y18285000D01*
X48180000Y18285000D01*
X48180000Y17783000D01*
X48180000Y17783000D01*
G37*
G36*
X7792000Y18599000D02*
X6940000Y18599000D01*
X6940000Y19501000D01*
X7792000Y19501000D01*
X7792000Y18599000D01*
X7792000Y18599000D01*
G37*
G36*
X34208000Y19627000D02*
X33356000Y19627000D01*
X33356000Y20529000D01*
X34208000Y20529000D01*
X34208000Y19627000D01*
X34208000Y19627000D01*
G37*
G36*
X31414000Y19627000D02*
X30562000Y19627000D01*
X30562000Y20529000D01*
X31414000Y20529000D01*
X31414000Y19627000D01*
X31414000Y19627000D01*
G37*
G36*
X29128000Y19639000D02*
X28276000Y19639000D01*
X28276000Y20541000D01*
X29128000Y20541000D01*
X29128000Y19639000D01*
X29128000Y19639000D01*
G37*
G36*
X48180000Y19983000D02*
X43578000Y19983000D01*
X43578000Y21585000D01*
X48180000Y21585000D01*
X48180000Y19983000D01*
X48180000Y19983000D01*
G37*
G36*
X10861000Y20027000D02*
X9459000Y20027000D01*
X9459000Y21629000D01*
X10861000Y21629000D01*
X10861000Y20027000D01*
X10861000Y20027000D01*
G37*
G36*
X12639000Y20027000D02*
X11237000Y20027000D01*
X11237000Y21629000D01*
X12639000Y21629000D01*
X12639000Y20027000D01*
X12639000Y20027000D01*
G37*
G36*
X14417000Y20027000D02*
X13015000Y20027000D01*
X13015000Y21629000D01*
X14417000Y21629000D01*
X14417000Y20027000D01*
X14417000Y20027000D01*
G37*
G36*
X7792000Y20099000D02*
X6940000Y20099000D01*
X6940000Y21001000D01*
X7792000Y21001000D01*
X7792000Y20099000D01*
X7792000Y20099000D01*
G37*
G36*
X3938510Y22383959D02*
X4062032Y22371793D01*
X4260146Y22311695D01*
X4442729Y22214103D01*
X4602765Y22082765D01*
X4734103Y21922729D01*
X4831695Y21740146D01*
X4891793Y21542032D01*
X4912085Y21336000D01*
X4891793Y21129968D01*
X4831695Y20931854D01*
X4734103Y20749271D01*
X4602765Y20589235D01*
X4442729Y20457897D01*
X4260146Y20360305D01*
X4062032Y20300207D01*
X3938510Y20288041D01*
X3907631Y20285000D01*
X3204369Y20285000D01*
X3173490Y20288041D01*
X3049968Y20300207D01*
X2851854Y20360305D01*
X2669271Y20457897D01*
X2509235Y20589235D01*
X2377897Y20749271D01*
X2280305Y20931854D01*
X2220207Y21129968D01*
X2199915Y21336000D01*
X2220207Y21542032D01*
X2280305Y21740146D01*
X2377897Y21922729D01*
X2509235Y22082765D01*
X2669271Y22214103D01*
X2851854Y22311695D01*
X3049968Y22371793D01*
X3173490Y22383959D01*
X3204369Y22387000D01*
X3907631Y22387000D01*
X3938510Y22383959D01*
X3938510Y22383959D01*
G37*
G36*
X17457000Y20402000D02*
X16555000Y20402000D01*
X16555000Y21254000D01*
X17457000Y21254000D01*
X17457000Y20402000D01*
X17457000Y20402000D01*
G37*
G36*
X15957000Y20402000D02*
X15055000Y20402000D01*
X15055000Y21254000D01*
X15957000Y21254000D01*
X15957000Y20402000D01*
X15957000Y20402000D01*
G37*
G36*
X31414000Y21127000D02*
X30562000Y21127000D01*
X30562000Y22029000D01*
X31414000Y22029000D01*
X31414000Y21127000D01*
X31414000Y21127000D01*
G37*
G36*
X34208000Y21127000D02*
X33356000Y21127000D01*
X33356000Y22029000D01*
X34208000Y22029000D01*
X34208000Y21127000D01*
X34208000Y21127000D01*
G37*
G36*
X29128000Y21139000D02*
X28276000Y21139000D01*
X28276000Y22041000D01*
X29128000Y22041000D01*
X29128000Y21139000D01*
X29128000Y21139000D01*
G37*
G36*
X25228000Y21672000D02*
X24326000Y21672000D01*
X24326000Y22524000D01*
X25228000Y22524000D01*
X25228000Y21672000D01*
X25228000Y21672000D01*
G37*
G36*
X26728000Y21672000D02*
X25826000Y21672000D01*
X25826000Y22524000D01*
X26728000Y22524000D01*
X26728000Y21672000D01*
X26728000Y21672000D01*
G37*
G36*
X42592000Y21705000D02*
X41990000Y21705000D01*
X41990000Y22407000D01*
X42592000Y22407000D01*
X42592000Y21705000D01*
X42592000Y21705000D01*
G37*
G36*
X17445000Y21799000D02*
X16543000Y21799000D01*
X16543000Y22651000D01*
X17445000Y22651000D01*
X17445000Y21799000D01*
X17445000Y21799000D01*
G37*
G36*
X15945000Y21799000D02*
X15043000Y21799000D01*
X15043000Y22651000D01*
X15945000Y22651000D01*
X15945000Y21799000D01*
X15945000Y21799000D01*
G37*
G36*
X11221000Y22548000D02*
X10369000Y22548000D01*
X10369000Y23450000D01*
X11221000Y23450000D01*
X11221000Y22548000D01*
X11221000Y22548000D01*
G37*
G36*
X33463000Y28762000D02*
X33465402Y28737614D01*
X33472515Y28714165D01*
X33484066Y28692554D01*
X33499612Y28673612D01*
X33518554Y28658066D01*
X33540165Y28646515D01*
X33563614Y28639402D01*
X33588000Y28637000D01*
X34488000Y28637000D01*
X34488000Y23687000D01*
X33588000Y23687000D01*
X33563614Y23684598D01*
X33540165Y23677485D01*
X33518554Y23665934D01*
X33499612Y23650388D01*
X33484066Y23631446D01*
X33472515Y23609835D01*
X33465402Y23586386D01*
X33463000Y23562000D01*
X33463000Y22662000D01*
X28513000Y22662000D01*
X28513000Y23562000D01*
X28510598Y23586386D01*
X28503485Y23609835D01*
X28491934Y23631446D01*
X28476388Y23650388D01*
X28457446Y23665934D01*
X28435835Y23677485D01*
X28412386Y23684598D01*
X28388000Y23687000D01*
X27488000Y23687000D01*
X27488000Y28537000D01*
X28488000Y28537000D01*
X28488000Y23787000D01*
X28490402Y23762614D01*
X28497515Y23739165D01*
X28509066Y23717554D01*
X28524612Y23698612D01*
X28543554Y23683066D01*
X28565165Y23671515D01*
X28588614Y23664402D01*
X28613000Y23662000D01*
X33363000Y23662000D01*
X33387386Y23664402D01*
X33410835Y23671515D01*
X33432446Y23683066D01*
X33451388Y23698612D01*
X33466934Y23717554D01*
X33478485Y23739165D01*
X33485598Y23762614D01*
X33488000Y23787000D01*
X33488000Y28537000D01*
X33485598Y28561386D01*
X33478485Y28584835D01*
X33466934Y28606446D01*
X33451388Y28625388D01*
X33432446Y28640934D01*
X33410835Y28652485D01*
X33387386Y28659598D01*
X33363000Y28662000D01*
X28613000Y28662000D01*
X28588614Y28659598D01*
X28565165Y28652485D01*
X28543554Y28640934D01*
X28524612Y28625388D01*
X28509066Y28606446D01*
X28497515Y28584835D01*
X28490402Y28561386D01*
X28488000Y28537000D01*
X27488000Y28537000D01*
X27488000Y28637000D01*
X28388000Y28637000D01*
X28412386Y28639402D01*
X28435835Y28646515D01*
X28457446Y28658066D01*
X28476388Y28673612D01*
X28491934Y28692554D01*
X28503485Y28714165D01*
X28510598Y28737614D01*
X28513000Y28762000D01*
X28513000Y29662000D01*
X33463000Y29662000D01*
X33463000Y28762000D01*
X33463000Y28762000D01*
G37*
G36*
X32339000Y24361000D02*
X29637000Y24361000D01*
X29637000Y27963000D01*
X32339000Y27963000D01*
X32339000Y24361000D01*
X32339000Y24361000D01*
G37*
G36*
X42592000Y22805000D02*
X41990000Y22805000D01*
X41990000Y23507000D01*
X42592000Y23507000D01*
X42592000Y22805000D01*
X42592000Y22805000D01*
G37*
G36*
X3938510Y24923959D02*
X4062032Y24911793D01*
X4260146Y24851695D01*
X4442729Y24754103D01*
X4602765Y24622765D01*
X4734103Y24462729D01*
X4831695Y24280146D01*
X4891793Y24082032D01*
X4912085Y23876000D01*
X4891793Y23669968D01*
X4831695Y23471854D01*
X4734103Y23289271D01*
X4602765Y23129235D01*
X4442729Y22997897D01*
X4260146Y22900305D01*
X4062032Y22840207D01*
X3938510Y22828041D01*
X3907631Y22825000D01*
X3204369Y22825000D01*
X3173490Y22828041D01*
X3049968Y22840207D01*
X2851854Y22900305D01*
X2669271Y22997897D01*
X2509235Y23129235D01*
X2377897Y23289271D01*
X2280305Y23471854D01*
X2220207Y23669968D01*
X2199915Y23876000D01*
X2220207Y24082032D01*
X2280305Y24280146D01*
X2377897Y24462729D01*
X2509235Y24622765D01*
X2669271Y24754103D01*
X2851854Y24851695D01*
X3049968Y24911793D01*
X3173490Y24923959D01*
X3204369Y24927000D01*
X3907631Y24927000D01*
X3938510Y24923959D01*
X3938510Y24923959D01*
G37*
G36*
X26613000Y22942000D02*
X25711000Y22942000D01*
X25711000Y23794000D01*
X26613000Y23794000D01*
X26613000Y22942000D01*
X26613000Y22942000D01*
G37*
G36*
X25113000Y22942000D02*
X24211000Y22942000D01*
X24211000Y23794000D01*
X25113000Y23794000D01*
X25113000Y22942000D01*
X25113000Y22942000D01*
G37*
G36*
X17469000Y23196000D02*
X16567000Y23196000D01*
X16567000Y24048000D01*
X17469000Y24048000D01*
X17469000Y23196000D01*
X17469000Y23196000D01*
G37*
G36*
X15969000Y23196000D02*
X15067000Y23196000D01*
X15067000Y24048000D01*
X15969000Y24048000D01*
X15969000Y23196000D01*
X15969000Y23196000D01*
G37*
G36*
X37777000Y23450000D02*
X36875000Y23450000D01*
X36875000Y24302000D01*
X37777000Y24302000D01*
X37777000Y23450000D01*
X37777000Y23450000D01*
G37*
G36*
X36277000Y23450000D02*
X35375000Y23450000D01*
X35375000Y24302000D01*
X36277000Y24302000D01*
X36277000Y23450000D01*
X36277000Y23450000D01*
G37*
G36*
X11221000Y24048000D02*
X10369000Y24048000D01*
X10369000Y24950000D01*
X11221000Y24950000D01*
X11221000Y24048000D01*
X11221000Y24048000D01*
G37*
G36*
X25101000Y24212000D02*
X24199000Y24212000D01*
X24199000Y25064000D01*
X25101000Y25064000D01*
X25101000Y24212000D01*
X25101000Y24212000D01*
G37*
G36*
X26601000Y24212000D02*
X25699000Y24212000D01*
X25699000Y25064000D01*
X26601000Y25064000D01*
X26601000Y24212000D01*
X26601000Y24212000D01*
G37*
G36*
X37777000Y24720000D02*
X36875000Y24720000D01*
X36875000Y25572000D01*
X37777000Y25572000D01*
X37777000Y24720000D01*
X37777000Y24720000D01*
G37*
G36*
X36277000Y24720000D02*
X35375000Y24720000D01*
X35375000Y25572000D01*
X36277000Y25572000D01*
X36277000Y24720000D01*
X36277000Y24720000D01*
G37*
G36*
X9824000Y24973000D02*
X8972000Y24973000D01*
X8972000Y25875000D01*
X9824000Y25875000D01*
X9824000Y24973000D01*
X9824000Y24973000D01*
G37*
G36*
X3938510Y27463959D02*
X4062032Y27451793D01*
X4260146Y27391695D01*
X4442729Y27294103D01*
X4602765Y27162765D01*
X4734103Y27002729D01*
X4831695Y26820146D01*
X4891793Y26622032D01*
X4912085Y26416000D01*
X4891793Y26209968D01*
X4831695Y26011854D01*
X4734103Y25829271D01*
X4602765Y25669235D01*
X4442729Y25537897D01*
X4260146Y25440305D01*
X4062032Y25380207D01*
X3938510Y25368041D01*
X3907631Y25365000D01*
X3204369Y25365000D01*
X3173490Y25368041D01*
X3049968Y25380207D01*
X2851854Y25440305D01*
X2669271Y25537897D01*
X2509235Y25669235D01*
X2377897Y25829271D01*
X2280305Y26011854D01*
X2220207Y26209968D01*
X2199915Y26416000D01*
X2220207Y26622032D01*
X2280305Y26820146D01*
X2377897Y27002729D01*
X2509235Y27162765D01*
X2669271Y27294103D01*
X2851854Y27391695D01*
X3049968Y27451793D01*
X3173490Y27463959D01*
X3204369Y27467000D01*
X3907631Y27467000D01*
X3938510Y27463959D01*
X3938510Y27463959D01*
G37*
G36*
X12604000Y25430000D02*
X10952000Y25430000D01*
X10952000Y26132000D01*
X12604000Y26132000D01*
X12604000Y25430000D01*
X12604000Y25430000D01*
G37*
G36*
X18004000Y25430000D02*
X16352000Y25430000D01*
X16352000Y26132000D01*
X18004000Y26132000D01*
X18004000Y25430000D01*
X18004000Y25430000D01*
G37*
G36*
X26601000Y25482000D02*
X25699000Y25482000D01*
X25699000Y26334000D01*
X26601000Y26334000D01*
X26601000Y25482000D01*
X26601000Y25482000D01*
G37*
G36*
X25101000Y25482000D02*
X24199000Y25482000D01*
X24199000Y26334000D01*
X25101000Y26334000D01*
X25101000Y25482000D01*
X25101000Y25482000D01*
G37*
G36*
X15704000Y26460000D02*
X13252000Y26460000D01*
X13252000Y28912000D01*
X15704000Y28912000D01*
X15704000Y26460000D01*
X15704000Y26460000D01*
G37*
G36*
X9824000Y26473000D02*
X8972000Y26473000D01*
X8972000Y27375000D01*
X9824000Y27375000D01*
X9824000Y26473000D01*
X9824000Y26473000D01*
G37*
G36*
X12604000Y26700000D02*
X10952000Y26700000D01*
X10952000Y27402000D01*
X12604000Y27402000D01*
X12604000Y26700000D01*
X12604000Y26700000D01*
G37*
G36*
X18004000Y26700000D02*
X16352000Y26700000D01*
X16352000Y27402000D01*
X18004000Y27402000D01*
X18004000Y26700000D01*
X18004000Y26700000D01*
G37*
G36*
X36642000Y28112000D02*
X36644402Y28087614D01*
X36651515Y28064165D01*
X36663066Y28042554D01*
X36678612Y28023612D01*
X36697554Y28008066D01*
X36719165Y27996515D01*
X36742614Y27989402D01*
X36767000Y27987000D01*
X37520000Y27987000D01*
X37520000Y27385000D01*
X36767000Y27385000D01*
X36742614Y27382598D01*
X36719165Y27375485D01*
X36697554Y27363934D01*
X36678612Y27348388D01*
X36663066Y27329446D01*
X36651515Y27307835D01*
X36644402Y27284386D01*
X36642000Y27260000D01*
X36642000Y26954000D01*
X36140000Y26954000D01*
X36140000Y28418000D01*
X36642000Y28418000D01*
X36642000Y28112000D01*
X36642000Y28112000D01*
G37*
G36*
X35742000Y26954000D02*
X35240000Y26954000D01*
X35240000Y28418000D01*
X35742000Y28418000D01*
X35742000Y26954000D01*
X35742000Y26954000D01*
G37*
G36*
X25101000Y27006000D02*
X24199000Y27006000D01*
X24199000Y27858000D01*
X25101000Y27858000D01*
X25101000Y27006000D01*
X25101000Y27006000D01*
G37*
G36*
X26601000Y27006000D02*
X25699000Y27006000D01*
X25699000Y27858000D01*
X26601000Y27858000D01*
X26601000Y27006000D01*
X26601000Y27006000D01*
G37*
G36*
X38620000Y27385000D02*
X37918000Y27385000D01*
X37918000Y27987000D01*
X38620000Y27987000D01*
X38620000Y27385000D01*
X38620000Y27385000D01*
G37*
G36*
X19730000Y27767000D02*
X18878000Y27767000D01*
X18878000Y28669000D01*
X19730000Y28669000D01*
X19730000Y27767000D01*
X19730000Y27767000D01*
G37*
G36*
X3938510Y30003959D02*
X4062032Y29991793D01*
X4260146Y29931695D01*
X4442729Y29834103D01*
X4602765Y29702765D01*
X4734103Y29542729D01*
X4831695Y29360146D01*
X4891793Y29162032D01*
X4912085Y28956000D01*
X4891793Y28749968D01*
X4831695Y28551854D01*
X4734103Y28369271D01*
X4602765Y28209235D01*
X4442729Y28077897D01*
X4260146Y27980305D01*
X4062032Y27920207D01*
X3938510Y27908041D01*
X3907631Y27905000D01*
X3204369Y27905000D01*
X3173490Y27908041D01*
X3049968Y27920207D01*
X2851854Y27980305D01*
X2669271Y28077897D01*
X2509235Y28209235D01*
X2377897Y28369271D01*
X2280305Y28551854D01*
X2220207Y28749968D01*
X2199915Y28956000D01*
X2220207Y29162032D01*
X2280305Y29360146D01*
X2377897Y29542729D01*
X2509235Y29702765D01*
X2669271Y29834103D01*
X2851854Y29931695D01*
X3049968Y29991793D01*
X3173490Y30003959D01*
X3204369Y30007000D01*
X3907631Y30007000D01*
X3938510Y30003959D01*
X3938510Y30003959D01*
G37*
G36*
X12604000Y27970000D02*
X10952000Y27970000D01*
X10952000Y28672000D01*
X12604000Y28672000D01*
X12604000Y27970000D01*
X12604000Y27970000D01*
G37*
G36*
X18004000Y27970000D02*
X16352000Y27970000D01*
X16352000Y28672000D01*
X18004000Y28672000D01*
X18004000Y27970000D01*
X18004000Y27970000D01*
G37*
G36*
X35676359Y29240000D02*
X35688783Y29210004D01*
X34855443Y28864824D01*
X34732337Y29162028D01*
X34529397Y29651969D01*
X34529397Y29651970D01*
X35362737Y29997150D01*
X35676359Y29240000D01*
X35676359Y29240000D01*
G37*
G36*
X18004000Y29240000D02*
X16352000Y29240000D01*
X16352000Y29942000D01*
X18004000Y29942000D01*
X18004000Y29240000D01*
X18004000Y29240000D01*
G37*
G36*
X12604000Y29240000D02*
X10952000Y29240000D01*
X10952000Y29942000D01*
X12604000Y29942000D01*
X12604000Y29240000D01*
X12604000Y29240000D01*
G37*
G36*
X19730000Y29267000D02*
X18878000Y29267000D01*
X18878000Y30169000D01*
X19730000Y30169000D01*
X19730000Y29267000D01*
X19730000Y29267000D01*
G37*
G36*
X37053863Y29834103D02*
X37074603Y29784030D01*
X36241263Y29438850D01*
X35915217Y30225995D01*
X35915217Y30225996D01*
X36748557Y30571176D01*
X37053863Y29834103D01*
X37053863Y29834103D01*
G37*
G36*
X34828880Y30520306D02*
X34950783Y30226004D01*
X34117443Y29880824D01*
X33974465Y30226004D01*
X33791397Y30667969D01*
X33791397Y30667970D01*
X34624737Y31013150D01*
X34828880Y30520306D01*
X34828880Y30520306D01*
G37*
G36*
X29506081Y30667969D02*
X29555176Y30549443D01*
X28768031Y30223397D01*
X28768030Y30223397D01*
X28422850Y31056737D01*
X28870103Y31241995D01*
X29209995Y31382783D01*
X29209996Y31382783D01*
X29506081Y30667969D01*
X29506081Y30667969D01*
G37*
G36*
X28109081Y30667969D02*
X28158176Y30549443D01*
X27371031Y30223397D01*
X27371030Y30223397D01*
X27025850Y31056737D01*
X27473103Y31241995D01*
X27812995Y31382783D01*
X27812996Y31382783D01*
X28109081Y30667969D01*
X28109081Y30667969D01*
G37*
G36*
X3938510Y32543959D02*
X4062032Y32531793D01*
X4260146Y32471695D01*
X4442729Y32374103D01*
X4602765Y32242765D01*
X4734103Y32082729D01*
X4831695Y31900146D01*
X4891793Y31702032D01*
X4912085Y31496000D01*
X4891793Y31289968D01*
X4831695Y31091854D01*
X4734103Y30909271D01*
X4602765Y30749235D01*
X4442729Y30617897D01*
X4260146Y30520305D01*
X4062032Y30460207D01*
X3938510Y30448041D01*
X3907631Y30445000D01*
X3204369Y30445000D01*
X3173490Y30448041D01*
X3049968Y30460207D01*
X2851854Y30520305D01*
X2669271Y30617897D01*
X2509235Y30749235D01*
X2377897Y30909271D01*
X2280305Y31091854D01*
X2220207Y31289968D01*
X2199915Y31496000D01*
X2220207Y31702032D01*
X2280305Y31900146D01*
X2377897Y32082729D01*
X2509235Y32242765D01*
X2669271Y32374103D01*
X2851854Y32471695D01*
X3049968Y32531793D01*
X3173490Y32543959D01*
X3204369Y32547000D01*
X3907631Y32547000D01*
X3938510Y32543959D01*
X3938510Y32543959D01*
G37*
G36*
X36334144Y30805968D02*
X36336603Y30800030D01*
X35503263Y30454850D01*
X35381325Y30749235D01*
X35177217Y31241995D01*
X35177217Y31241996D01*
X36010557Y31587176D01*
X36334144Y30805968D01*
X36334144Y30805968D01*
G37*
G36*
X33244000Y30541000D02*
X31780000Y30541000D01*
X31780000Y31043000D01*
X33244000Y31043000D01*
X33244000Y30541000D01*
X33244000Y30541000D01*
G37*
G36*
X30631318Y31091852D02*
X30698176Y30930443D01*
X29911031Y30604397D01*
X29911030Y30604397D01*
X29565850Y31437737D01*
X29573728Y31441000D01*
X30352995Y31763783D01*
X30352996Y31763783D01*
X30631318Y31091852D01*
X30631318Y31091852D01*
G37*
G36*
X37662000Y30816000D02*
X36834223Y30816000D01*
X36809837Y30813598D01*
X36786388Y30806485D01*
X36772710Y30799174D01*
X36760000Y30805968D01*
X36760000Y31668000D01*
X37662000Y31668000D01*
X37662000Y30816000D01*
X37662000Y30816000D01*
G37*
G36*
X39162000Y30816000D02*
X38260000Y30816000D01*
X38260000Y31668000D01*
X39162000Y31668000D01*
X39162000Y30816000D01*
X39162000Y30816000D01*
G37*
G36*
X32813000Y32068000D02*
X32815402Y32043614D01*
X32822515Y32020165D01*
X32834066Y31998554D01*
X32849612Y31979612D01*
X32868554Y31964066D01*
X32890165Y31952515D01*
X32913614Y31945402D01*
X32938000Y31943000D01*
X33244000Y31943000D01*
X33244000Y31441000D01*
X31780000Y31441000D01*
X31780000Y31943000D01*
X32086000Y31943000D01*
X32110386Y31945402D01*
X32133835Y31952515D01*
X32155446Y31964066D01*
X32174388Y31979612D01*
X32189934Y31998554D01*
X32201485Y32020165D01*
X32208598Y32043614D01*
X32211000Y32068000D01*
X32211000Y32821000D01*
X32813000Y32821000D01*
X32813000Y32068000D01*
X32813000Y32068000D01*
G37*
G36*
X27557934Y31998554D02*
X27584150Y31935263D01*
X26797005Y31609217D01*
X26797004Y31609217D01*
X26451824Y32442557D01*
X26752256Y32567000D01*
X27238969Y32768603D01*
X27238970Y32768603D01*
X27557934Y31998554D01*
X27557934Y31998554D01*
G37*
G36*
X28954934Y31998554D02*
X28981150Y31935263D01*
X28194005Y31609217D01*
X28194004Y31609217D01*
X27848824Y32442557D01*
X28149256Y32567000D01*
X28635969Y32768603D01*
X28635970Y32768603D01*
X28954934Y31998554D01*
X28954934Y31998554D01*
G37*
G36*
X42592000Y31865000D02*
X41990000Y31865000D01*
X41990000Y32567000D01*
X42592000Y32567000D01*
X42592000Y31865000D01*
X42592000Y31865000D01*
G37*
G36*
X13497000Y31973000D02*
X11395000Y31973000D01*
X11395000Y34575000D01*
X13497000Y34575000D01*
X13497000Y31973000D01*
X13497000Y31973000D01*
G37*
G36*
X17497000Y31973000D02*
X15395000Y31973000D01*
X15395000Y34575000D01*
X17497000Y34575000D01*
X17497000Y31973000D01*
X17497000Y31973000D01*
G37*
G36*
X30071837Y32442557D02*
X30124150Y32316263D01*
X29337005Y31990217D01*
X29337004Y31990217D01*
X28991824Y32823557D01*
X29333298Y32965000D01*
X29778969Y33149603D01*
X29778970Y33149603D01*
X30071837Y32442557D01*
X30071837Y32442557D01*
G37*
G36*
X42592000Y32965000D02*
X41990000Y32965000D01*
X41990000Y33667000D01*
X42592000Y33667000D01*
X42592000Y32965000D01*
X42592000Y32965000D01*
G37*
G36*
X3938510Y35083959D02*
X4062032Y35071793D01*
X4260146Y35011695D01*
X4442729Y34914103D01*
X4602765Y34782765D01*
X4734103Y34622729D01*
X4831695Y34440146D01*
X4891793Y34242032D01*
X4912085Y34036000D01*
X4891793Y33829968D01*
X4831695Y33631854D01*
X4734103Y33449271D01*
X4602765Y33289235D01*
X4442729Y33157897D01*
X4260146Y33060305D01*
X4062032Y33000207D01*
X3938510Y32988041D01*
X3907631Y32985000D01*
X3204369Y32985000D01*
X3173490Y32988041D01*
X3049968Y33000207D01*
X2851854Y33060305D01*
X2669271Y33157897D01*
X2509235Y33289235D01*
X2377897Y33449271D01*
X2280305Y33631854D01*
X2220207Y33829968D01*
X2199915Y34036000D01*
X2220207Y34242032D01*
X2280305Y34440146D01*
X2377897Y34622729D01*
X2509235Y34782765D01*
X2669271Y34914103D01*
X2851854Y35011695D01*
X3049968Y35071793D01*
X3173490Y35083959D01*
X3204369Y35087000D01*
X3907631Y35087000D01*
X3938510Y35083959D01*
X3938510Y35083959D01*
G37*
G36*
X32813000Y33219000D02*
X32211000Y33219000D01*
X32211000Y33921000D01*
X32813000Y33921000D01*
X32813000Y33219000D01*
X32813000Y33219000D01*
G37*
G36*
X48053000Y33787000D02*
X43451000Y33787000D01*
X43451000Y35389000D01*
X48053000Y35389000D01*
X48053000Y33787000D01*
X48053000Y33787000D01*
G37*
G36*
X39453612Y35439612D02*
X39472554Y35424066D01*
X39494165Y35412515D01*
X39517614Y35405402D01*
X39542000Y35403000D01*
X40129000Y35403000D01*
X40129000Y34701000D01*
X39595631Y34701000D01*
X39590388Y34707388D01*
X39571446Y34722934D01*
X39549835Y34734485D01*
X39526386Y34741598D01*
X39502000Y34744000D01*
X38815000Y34744000D01*
X38815000Y35446000D01*
X39448369Y35446000D01*
X39453612Y35439612D01*
X39453612Y35439612D01*
G37*
G36*
X41029000Y34701000D02*
X40527000Y34701000D01*
X40527000Y35403000D01*
X41029000Y35403000D01*
X41029000Y34701000D01*
X41029000Y34701000D01*
G37*
G36*
X26932000Y34701000D02*
X26430000Y34701000D01*
X26430000Y35403000D01*
X26932000Y35403000D01*
X26932000Y34701000D01*
X26932000Y34701000D01*
G37*
G36*
X25356612Y35439612D02*
X25375554Y35424066D01*
X25397165Y35412515D01*
X25420614Y35405402D01*
X25445000Y35403000D01*
X26032000Y35403000D01*
X26032000Y34701000D01*
X25498631Y34701000D01*
X25493388Y34707388D01*
X25474446Y34722934D01*
X25452835Y34734485D01*
X25429386Y34741598D01*
X25405000Y34744000D01*
X24718000Y34744000D01*
X24718000Y35446000D01*
X25351369Y35446000D01*
X25356612Y35439612D01*
X25356612Y35439612D01*
G37*
G36*
X3938510Y37623959D02*
X4062032Y37611793D01*
X4260146Y37551695D01*
X4442729Y37454103D01*
X4602765Y37322765D01*
X4734103Y37162729D01*
X4831695Y36980146D01*
X4891793Y36782032D01*
X4912085Y36576000D01*
X4891793Y36369968D01*
X4831695Y36171854D01*
X4734103Y35989271D01*
X4602765Y35829235D01*
X4442729Y35697897D01*
X4260146Y35600305D01*
X4062032Y35540207D01*
X3938510Y35528041D01*
X3907631Y35525000D01*
X3204369Y35525000D01*
X3173490Y35528041D01*
X3049968Y35540207D01*
X2851854Y35600305D01*
X2669271Y35697897D01*
X2509235Y35829235D01*
X2377897Y35989271D01*
X2280305Y36171854D01*
X2220207Y36369968D01*
X2199915Y36576000D01*
X2220207Y36782032D01*
X2280305Y36980146D01*
X2377897Y37162729D01*
X2509235Y37322765D01*
X2669271Y37454103D01*
X2851854Y37551695D01*
X3049968Y37611793D01*
X3173490Y37623959D01*
X3204369Y37627000D01*
X3907631Y37627000D01*
X3938510Y37623959D01*
X3938510Y37623959D01*
G37*
G36*
X26032000Y35844000D02*
X24718000Y35844000D01*
X24718000Y36546000D01*
X26032000Y36546000D01*
X26032000Y35844000D01*
X26032000Y35844000D01*
G37*
G36*
X26932000Y35844000D02*
X26430000Y35844000D01*
X26430000Y36546000D01*
X26932000Y36546000D01*
X26932000Y35844000D01*
X26932000Y35844000D01*
G37*
G36*
X41029000Y35844000D02*
X40527000Y35844000D01*
X40527000Y36546000D01*
X41029000Y36546000D01*
X41029000Y35844000D01*
X41029000Y35844000D01*
G37*
G36*
X40129000Y35844000D02*
X38815000Y35844000D01*
X38815000Y36546000D01*
X40129000Y36546000D01*
X40129000Y35844000D01*
X40129000Y35844000D01*
G37*
G36*
X25187000Y38708000D02*
X25189402Y38683614D01*
X25196515Y38660165D01*
X25208066Y38638554D01*
X25223612Y38619612D01*
X25242554Y38604066D01*
X25264165Y38592515D01*
X25272000Y38590138D01*
X25272000Y37863862D01*
X25264165Y37861485D01*
X25242554Y37849934D01*
X25223612Y37834388D01*
X25208066Y37815446D01*
X25196515Y37793835D01*
X25189402Y37770386D01*
X25187000Y37746000D01*
X25187000Y36901000D01*
X23835000Y36901000D01*
X23835000Y37746000D01*
X23832598Y37770386D01*
X23825485Y37793835D01*
X23813934Y37815446D01*
X23798388Y37834388D01*
X23779446Y37849934D01*
X23757835Y37861485D01*
X23750000Y37863862D01*
X23750000Y38590138D01*
X23757835Y38592515D01*
X23779446Y38604066D01*
X23798388Y38619612D01*
X23813934Y38638554D01*
X23825485Y38660165D01*
X23832598Y38683614D01*
X23835000Y38708000D01*
X23835000Y39553000D01*
X25187000Y39553000D01*
X25187000Y38708000D01*
X25187000Y38708000D01*
G37*
G36*
X39284000Y38708000D02*
X39286402Y38683614D01*
X39293515Y38660165D01*
X39305066Y38638554D01*
X39320612Y38619612D01*
X39339554Y38604066D01*
X39361165Y38592515D01*
X39369000Y38590138D01*
X39369000Y37863862D01*
X39361165Y37861485D01*
X39339554Y37849934D01*
X39320612Y37834388D01*
X39305066Y37815446D01*
X39293515Y37793835D01*
X39286402Y37770386D01*
X39284000Y37746000D01*
X39284000Y36901000D01*
X37932000Y36901000D01*
X37932000Y37746000D01*
X37929598Y37770386D01*
X37922485Y37793835D01*
X37910934Y37815446D01*
X37895388Y37834388D01*
X37876446Y37849934D01*
X37854835Y37861485D01*
X37847000Y37863862D01*
X37847000Y38590138D01*
X37854835Y38592515D01*
X37876446Y38604066D01*
X37895388Y38619612D01*
X37910934Y38638554D01*
X37922485Y38660165D01*
X37929598Y38683614D01*
X37932000Y38708000D01*
X37932000Y39553000D01*
X39284000Y39553000D01*
X39284000Y38708000D01*
X39284000Y38708000D01*
G37*
G36*
X23549000Y36910000D02*
X22847000Y36910000D01*
X22847000Y37512000D01*
X23549000Y37512000D01*
X23549000Y36910000D01*
X23549000Y36910000D01*
G37*
G36*
X22449000Y36910000D02*
X21747000Y36910000D01*
X21747000Y37512000D01*
X22449000Y37512000D01*
X22449000Y36910000D01*
X22449000Y36910000D01*
G37*
G36*
X37519000Y36910000D02*
X36817000Y36910000D01*
X36817000Y37512000D01*
X37519000Y37512000D01*
X37519000Y36910000D01*
X37519000Y36910000D01*
G37*
G36*
X35478000Y37637000D02*
X35480402Y37612614D01*
X35487515Y37589165D01*
X35499066Y37567554D01*
X35514612Y37548612D01*
X35533554Y37533066D01*
X35555165Y37521515D01*
X35578614Y37514402D01*
X35603000Y37512000D01*
X36419000Y37512000D01*
X36419000Y36910000D01*
X35717000Y36910000D01*
X35717000Y37167000D01*
X35714598Y37191386D01*
X35707485Y37214835D01*
X35695934Y37236446D01*
X35680388Y37255388D01*
X35661446Y37270934D01*
X35639835Y37282485D01*
X35616386Y37289598D01*
X35592000Y37292000D01*
X34626000Y37292000D01*
X34626000Y38194000D01*
X35478000Y38194000D01*
X35478000Y37637000D01*
X35478000Y37637000D01*
G37*
G36*
X48053000Y37087000D02*
X43451000Y37087000D01*
X43451000Y37589000D01*
X48053000Y37589000D01*
X48053000Y37087000D01*
X48053000Y37087000D01*
G37*
G36*
X21381000Y37292000D02*
X20529000Y37292000D01*
X20529000Y38194000D01*
X21381000Y38194000D01*
X21381000Y37292000D01*
X21381000Y37292000D01*
G37*
G36*
X22399000Y37792000D02*
X21797000Y37792000D01*
X21797000Y38494000D01*
X22399000Y38494000D01*
X22399000Y37792000D01*
X22399000Y37792000D01*
G37*
G36*
X36496000Y37792000D02*
X35894000Y37792000D01*
X35894000Y38494000D01*
X36496000Y38494000D01*
X36496000Y37792000D01*
X36496000Y37792000D01*
G37*
G36*
X37385000Y37792000D02*
X36783000Y37792000D01*
X36783000Y38494000D01*
X37385000Y38494000D01*
X37385000Y37792000D01*
X37385000Y37792000D01*
G37*
G36*
X23288000Y37792000D02*
X22686000Y37792000D01*
X22686000Y38494000D01*
X23288000Y38494000D01*
X23288000Y37792000D01*
X23288000Y37792000D01*
G37*
G36*
X3938510Y40163959D02*
X4062032Y40151793D01*
X4260146Y40091695D01*
X4442729Y39994103D01*
X4602765Y39862765D01*
X4734103Y39702729D01*
X4831695Y39520146D01*
X4891793Y39322032D01*
X4912085Y39116000D01*
X4891793Y38909968D01*
X4831695Y38711854D01*
X4734103Y38529271D01*
X4602765Y38369235D01*
X4442729Y38237897D01*
X4260146Y38140305D01*
X4062032Y38080207D01*
X3938510Y38068041D01*
X3907631Y38065000D01*
X3204369Y38065000D01*
X3173490Y38068041D01*
X3049968Y38080207D01*
X2851854Y38140305D01*
X2669271Y38237897D01*
X2509235Y38369235D01*
X2377897Y38529271D01*
X2280305Y38711854D01*
X2220207Y38909968D01*
X2199915Y39116000D01*
X2220207Y39322032D01*
X2280305Y39520146D01*
X2377897Y39702729D01*
X2509235Y39862765D01*
X2669271Y39994103D01*
X2851854Y40091695D01*
X3049968Y40151793D01*
X3173490Y40163959D01*
X3204369Y40167000D01*
X3907631Y40167000D01*
X3938510Y40163959D01*
X3938510Y40163959D01*
G37*
G36*
X16160000Y38184000D02*
X13558000Y38184000D01*
X13558000Y39286000D01*
X16160000Y39286000D01*
X16160000Y38184000D01*
X16160000Y38184000D01*
G37*
G36*
X35478000Y38792000D02*
X34626000Y38792000D01*
X34626000Y39694000D01*
X35478000Y39694000D01*
X35478000Y38792000D01*
X35478000Y38792000D01*
G37*
G36*
X21381000Y38792000D02*
X20529000Y38792000D01*
X20529000Y39694000D01*
X21381000Y39694000D01*
X21381000Y38792000D01*
X21381000Y38792000D01*
G37*
G36*
X36496000Y38892000D02*
X35894000Y38892000D01*
X35894000Y39594000D01*
X36496000Y39594000D01*
X36496000Y38892000D01*
X36496000Y38892000D01*
G37*
G36*
X37385000Y38892000D02*
X36783000Y38892000D01*
X36783000Y39594000D01*
X37385000Y39594000D01*
X37385000Y38892000D01*
X37385000Y38892000D01*
G37*
G36*
X23288000Y38892000D02*
X22686000Y38892000D01*
X22686000Y39594000D01*
X23288000Y39594000D01*
X23288000Y38892000D01*
X23288000Y38892000D01*
G37*
G36*
X22399000Y38892000D02*
X21797000Y38892000D01*
X21797000Y39594000D01*
X22399000Y39594000D01*
X22399000Y38892000D01*
X22399000Y38892000D01*
G37*
G36*
X48053000Y39287000D02*
X43451000Y39287000D01*
X43451000Y40889000D01*
X48053000Y40889000D01*
X48053000Y39287000D01*
X48053000Y39287000D01*
G37*
G36*
X12561114Y41446824D02*
X12655168Y41437561D01*
X12856299Y41376549D01*
X12888899Y41359124D01*
X13041662Y41277471D01*
X13204133Y41144133D01*
X13336374Y40982998D01*
X13337196Y40982176D01*
X13386999Y40889000D01*
X13436549Y40796299D01*
X13497561Y40595168D01*
X13518162Y40386000D01*
X13497561Y40176832D01*
X13436549Y39975701D01*
X13419124Y39943101D01*
X13337471Y39790338D01*
X13204133Y39627867D01*
X13041662Y39494529D01*
X12888899Y39412876D01*
X12856299Y39395451D01*
X12655168Y39334439D01*
X12561114Y39325176D01*
X12498413Y39319000D01*
X11885587Y39319000D01*
X11822886Y39325176D01*
X11728832Y39334439D01*
X11527701Y39395451D01*
X11495101Y39412876D01*
X11342338Y39494529D01*
X11179867Y39627867D01*
X11046529Y39790338D01*
X10964876Y39943101D01*
X10947451Y39975701D01*
X10886439Y40176832D01*
X10865838Y40386000D01*
X10886439Y40595168D01*
X10947451Y40796299D01*
X10997001Y40889000D01*
X11046529Y40981662D01*
X11179867Y41144133D01*
X11342338Y41277471D01*
X11495101Y41359124D01*
X11527701Y41376549D01*
X11728832Y41437561D01*
X11822886Y41446824D01*
X11885587Y41453000D01*
X12498413Y41453000D01*
X12561114Y41446824D01*
X12561114Y41446824D01*
G37*
G36*
X25320000Y39824000D02*
X24718000Y39824000D01*
X24718000Y40526000D01*
X25320000Y40526000D01*
X25320000Y39824000D01*
X25320000Y39824000D01*
G37*
G36*
X39417000Y39866000D02*
X38815000Y39866000D01*
X38815000Y40568000D01*
X39417000Y40568000D01*
X39417000Y39866000D01*
X39417000Y39866000D01*
G37*
G36*
X23338000Y39958000D02*
X22636000Y39958000D01*
X22636000Y40560000D01*
X23338000Y40560000D01*
X23338000Y39958000D01*
X23338000Y39958000D01*
G37*
G36*
X24438000Y39958000D02*
X23736000Y39958000D01*
X23736000Y40560000D01*
X24438000Y40560000D01*
X24438000Y39958000D01*
X24438000Y39958000D01*
G37*
G36*
X38535000Y39958000D02*
X37833000Y39958000D01*
X37833000Y40560000D01*
X38535000Y40560000D01*
X38535000Y39958000D01*
X38535000Y39958000D01*
G37*
G36*
X37435000Y39958000D02*
X36733000Y39958000D01*
X36733000Y40560000D01*
X37435000Y40560000D01*
X37435000Y39958000D01*
X37435000Y39958000D01*
G37*
G36*
X3938510Y42703959D02*
X4062032Y42691793D01*
X4260146Y42631695D01*
X4442729Y42534103D01*
X4602765Y42402765D01*
X4734103Y42242729D01*
X4831695Y42060146D01*
X4891793Y41862032D01*
X4912085Y41656000D01*
X4891793Y41449968D01*
X4831695Y41251854D01*
X4734103Y41069271D01*
X4602765Y40909235D01*
X4442729Y40777897D01*
X4260146Y40680305D01*
X4062032Y40620207D01*
X3938510Y40608041D01*
X3907631Y40605000D01*
X3204369Y40605000D01*
X3173490Y40608041D01*
X3049968Y40620207D01*
X2851854Y40680305D01*
X2669271Y40777897D01*
X2509235Y40909235D01*
X2377897Y41069271D01*
X2280305Y41251854D01*
X2220207Y41449968D01*
X2199915Y41656000D01*
X2220207Y41862032D01*
X2280305Y42060146D01*
X2377897Y42242729D01*
X2509235Y42402765D01*
X2669271Y42534103D01*
X2851854Y42631695D01*
X3049968Y42691793D01*
X3173490Y42703959D01*
X3204369Y42707000D01*
X3907631Y42707000D01*
X3938510Y42703959D01*
X3938510Y42703959D01*
G37*
G36*
X25320000Y40924000D02*
X24718000Y40924000D01*
X24718000Y41626000D01*
X25320000Y41626000D01*
X25320000Y40924000D01*
X25320000Y40924000D01*
G37*
G36*
X39417000Y40966000D02*
X38815000Y40966000D01*
X38815000Y41668000D01*
X39417000Y41668000D01*
X39417000Y40966000D01*
X39417000Y40966000D01*
G37*
G36*
X16160000Y41184000D02*
X13558000Y41184000D01*
X13558000Y42249703D01*
X13555598Y42274089D01*
X13551985Y42286000D01*
X16160000Y42286000D01*
X16160000Y41184000D01*
X16160000Y41184000D01*
G37*
G36*
X16160000Y43415000D02*
X13581218Y43415000D01*
X13556832Y43412598D01*
X13533383Y43405485D01*
X13511772Y43393934D01*
X13492830Y43378388D01*
X13477284Y43359446D01*
X13465733Y43337835D01*
X13458620Y43314386D01*
X13456218Y43290000D01*
X13461600Y43253718D01*
X13497561Y43135168D01*
X13518162Y42926000D01*
X13497561Y42716832D01*
X13436549Y42515701D01*
X13436548Y42515700D01*
X13412080Y42469924D01*
X13402703Y42447285D01*
X13397923Y42423251D01*
X13397923Y42398747D01*
X13402704Y42374714D01*
X13404252Y42370978D01*
X13385165Y42365188D01*
X13363554Y42353637D01*
X13336374Y42329002D01*
X13204133Y42167867D01*
X13041662Y42034529D01*
X12888899Y41952876D01*
X12856299Y41935451D01*
X12655168Y41874439D01*
X12561114Y41865176D01*
X12498413Y41859000D01*
X11885587Y41859000D01*
X11822886Y41865176D01*
X11728832Y41874439D01*
X11527701Y41935451D01*
X11495101Y41952876D01*
X11342338Y42034529D01*
X11179867Y42167867D01*
X11046529Y42330338D01*
X10947454Y42515696D01*
X10947451Y42515701D01*
X10886439Y42716832D01*
X10865838Y42926000D01*
X10886439Y43135168D01*
X10947451Y43336299D01*
X10988234Y43412598D01*
X11046529Y43521662D01*
X11179867Y43684133D01*
X11342338Y43817471D01*
X11495101Y43899124D01*
X11527701Y43916549D01*
X11728832Y43977561D01*
X11822886Y43986824D01*
X11885587Y43993000D01*
X12498413Y43993000D01*
X12561114Y43986824D01*
X12655168Y43977561D01*
X12856299Y43916549D01*
X12888899Y43899124D01*
X13041662Y43817471D01*
X13204133Y43684133D01*
X13336374Y43522998D01*
X13353701Y43505671D01*
X13374076Y43492057D01*
X13396715Y43482679D01*
X13420748Y43477899D01*
X13445252Y43477899D01*
X13469286Y43482680D01*
X13491925Y43492057D01*
X13512299Y43505671D01*
X13529626Y43522998D01*
X13543240Y43543373D01*
X13552618Y43566012D01*
X13558000Y43602297D01*
X13558000Y44517000D01*
X16160000Y44517000D01*
X16160000Y43415000D01*
X16160000Y43415000D01*
G37*
G36*
X3938510Y45243959D02*
X4062032Y45231793D01*
X4260146Y45171695D01*
X4442729Y45074103D01*
X4602765Y44942765D01*
X4734103Y44782729D01*
X4831695Y44600146D01*
X4891793Y44402032D01*
X4912085Y44196000D01*
X4891793Y43989968D01*
X4831695Y43791854D01*
X4734103Y43609271D01*
X4602765Y43449235D01*
X4442729Y43317897D01*
X4260146Y43220305D01*
X4062032Y43160207D01*
X3938510Y43148041D01*
X3907631Y43145000D01*
X3204369Y43145000D01*
X3173490Y43148041D01*
X3049968Y43160207D01*
X2851854Y43220305D01*
X2669271Y43317897D01*
X2509235Y43449235D01*
X2377897Y43609271D01*
X2280305Y43791854D01*
X2220207Y43989968D01*
X2199915Y44196000D01*
X2220207Y44402032D01*
X2280305Y44600146D01*
X2377897Y44782729D01*
X2509235Y44942765D01*
X2669271Y45074103D01*
X2851854Y45171695D01*
X3049968Y45231793D01*
X3173490Y45243959D01*
X3204369Y45247000D01*
X3907631Y45247000D01*
X3938510Y45243959D01*
X3938510Y45243959D01*
G37*
G36*
X26030000Y43578000D02*
X24428000Y43578000D01*
X24428000Y48180000D01*
X26030000Y48180000D01*
X26030000Y43578000D01*
X26030000Y43578000D01*
G37*
G36*
X20530000Y43578000D02*
X18928000Y43578000D01*
X18928000Y48180000D01*
X20530000Y48180000D01*
X20530000Y43578000D01*
X20530000Y43578000D01*
G37*
G36*
X42415000Y43578000D02*
X41913000Y43578000D01*
X41913000Y48180000D01*
X42415000Y48180000D01*
X42415000Y43578000D01*
X42415000Y43578000D01*
G37*
G36*
X40215000Y43578000D02*
X38613000Y43578000D01*
X38613000Y48180000D01*
X40215000Y48180000D01*
X40215000Y43578000D01*
X40215000Y43578000D01*
G37*
G36*
X22730000Y43578000D02*
X22228000Y43578000D01*
X22228000Y48180000D01*
X22730000Y48180000D01*
X22730000Y43578000D01*
X22730000Y43578000D01*
G37*
G36*
X45715000Y43578000D02*
X44113000Y43578000D01*
X44113000Y48180000D01*
X45715000Y48180000D01*
X45715000Y43578000D01*
X45715000Y43578000D01*
G37*
G36*
X12561114Y46526824D02*
X12655168Y46517561D01*
X12856299Y46456549D01*
X12888899Y46439124D01*
X13041662Y46357471D01*
X13204133Y46224133D01*
X13337471Y46061662D01*
X13419124Y45908899D01*
X13436549Y45876299D01*
X13497561Y45675168D01*
X13518162Y45466000D01*
X13497561Y45256832D01*
X13436549Y45055701D01*
X13436546Y45055696D01*
X13337471Y44870338D01*
X13204133Y44707867D01*
X13041662Y44574529D01*
X12888899Y44492876D01*
X12856299Y44475451D01*
X12655168Y44414439D01*
X12561114Y44405176D01*
X12498413Y44399000D01*
X11885587Y44399000D01*
X11822886Y44405176D01*
X11728832Y44414439D01*
X11527701Y44475451D01*
X11495101Y44492876D01*
X11342338Y44574529D01*
X11179867Y44707867D01*
X11046529Y44870338D01*
X10947454Y45055696D01*
X10947451Y45055701D01*
X10886439Y45256832D01*
X10865838Y45466000D01*
X10886439Y45675168D01*
X10947451Y45876299D01*
X10964876Y45908899D01*
X11046529Y46061662D01*
X11179867Y46224133D01*
X11342338Y46357471D01*
X11495101Y46439124D01*
X11527701Y46456549D01*
X11728832Y46517561D01*
X11822886Y46526824D01*
X11885587Y46533000D01*
X12498413Y46533000D01*
X12561114Y46526824D01*
X12561114Y46526824D01*
G37*
G36*
X3938510Y47783959D02*
X4062032Y47771793D01*
X4260146Y47711695D01*
X4442729Y47614103D01*
X4602765Y47482765D01*
X4734103Y47322729D01*
X4831695Y47140146D01*
X4891793Y46942032D01*
X4912085Y46736000D01*
X4891793Y46529968D01*
X4831695Y46331854D01*
X4734103Y46149271D01*
X4602765Y45989235D01*
X4442729Y45857897D01*
X4260146Y45760305D01*
X4062032Y45700207D01*
X3938510Y45688041D01*
X3907631Y45685000D01*
X3204369Y45685000D01*
X3173490Y45688041D01*
X3049968Y45700207D01*
X2851854Y45760305D01*
X2669271Y45857897D01*
X2509235Y45989235D01*
X2377897Y46149271D01*
X2280305Y46331854D01*
X2220207Y46529968D01*
X2199915Y46736000D01*
X2220207Y46942032D01*
X2280305Y47140146D01*
X2377897Y47322729D01*
X2509235Y47482765D01*
X2669271Y47614103D01*
X2851854Y47711695D01*
X3049968Y47771793D01*
X3173490Y47783959D01*
X3204369Y47787000D01*
X3907631Y47787000D01*
X3938510Y47783959D01*
X3938510Y47783959D01*
G37*
G36*
X16160000Y46415000D02*
X13558000Y46415000D01*
X13558000Y47517000D01*
X16160000Y47517000D01*
X16160000Y46415000D01*
X16160000Y46415000D01*
G37*
M02*
