G04 #@! TF.GenerationSoftware,KiCad,Pcbnew,5.0.2-bee76a0~70~ubuntu18.04.1*
G04 #@! TF.CreationDate,2020-07-03T21:26:00+02:00*
G04 #@! TF.ProjectId,lmx2594,6c6d7832-3539-4342-9e6b-696361645f70,rev?*
G04 #@! TF.SameCoordinates,PX463f660PY71d9820*
G04 #@! TF.FileFunction,Paste,Bot*
G04 #@! TF.FilePolarity,Positive*
%FSLAX46Y46*%
G04 Gerber Fmt 4.6, Leading zero omitted, Abs format (unit mm)*
G04 Created by KiCad (PCBNEW 5.0.2-bee76a0~70~ubuntu18.04.1) date fre  3 jul 2020 21:26:00*
%MOMM*%
%LPD*%
G01*
G04 APERTURE LIST*
%ADD10R,2.900680X4.500880*%
%ADD11R,0.750000X0.800000*%
%ADD12R,0.800000X0.750000*%
%ADD13R,0.600000X0.500000*%
%ADD14R,0.500000X0.600000*%
%ADD15R,2.500000X1.000000*%
%ADD16R,1.000000X2.500000*%
G04 APERTURE END LIST*
D10*
G04 #@! TO.C,L1*
X26797000Y17780000D03*
X37297360Y17780000D03*
G04 #@! TD*
G04 #@! TO.C,L3*
X9481820Y10033000D03*
X19982180Y10033000D03*
G04 #@! TD*
G04 #@! TO.C,L5*
X18836640Y36576000D03*
X29337000Y36576000D03*
G04 #@! TD*
D11*
G04 #@! TO.C,C2*
X10033000Y42140000D03*
X10033000Y40640000D03*
G04 #@! TD*
G04 #@! TO.C,C3*
X6096000Y6882000D03*
X6096000Y8382000D03*
G04 #@! TD*
G04 #@! TO.C,C6*
X20574000Y15978000D03*
X20574000Y14478000D03*
G04 #@! TD*
D12*
G04 #@! TO.C,C8*
X40374000Y25146000D03*
X38874000Y25146000D03*
G04 #@! TD*
D11*
G04 #@! TO.C,C14*
X32004000Y35699000D03*
X32004000Y37199000D03*
G04 #@! TD*
D12*
G04 #@! TO.C,C28*
X30214000Y26416000D03*
X28714000Y26416000D03*
G04 #@! TD*
G04 #@! TO.C,C29*
X30202000Y25019000D03*
X28702000Y25019000D03*
G04 #@! TD*
G04 #@! TO.C,C30*
X33032000Y23622000D03*
X34532000Y23622000D03*
G04 #@! TD*
G04 #@! TO.C,C31*
X33032000Y25146000D03*
X34532000Y25146000D03*
G04 #@! TD*
G04 #@! TO.C,R1*
X13994000Y10033000D03*
X15494000Y10033000D03*
G04 #@! TD*
G04 #@! TO.C,R2*
X31369000Y17780000D03*
X32869000Y17780000D03*
G04 #@! TD*
G04 #@! TO.C,R7*
X24269000Y36576000D03*
X25769000Y36576000D03*
G04 #@! TD*
D11*
G04 #@! TO.C,R14*
X27305000Y26404000D03*
X27305000Y24904000D03*
G04 #@! TD*
D12*
G04 #@! TO.C,R15*
X28714000Y23622000D03*
X30214000Y23622000D03*
G04 #@! TD*
D11*
G04 #@! TO.C,R17*
X31623000Y23634000D03*
X31623000Y25134000D03*
G04 #@! TD*
D13*
G04 #@! TO.C,L7*
X33359000Y32512000D03*
X34459000Y32512000D03*
G04 #@! TD*
D14*
G04 #@! TO.C,L8*
X37211000Y28279000D03*
X37211000Y29379000D03*
G04 #@! TD*
D11*
G04 #@! TO.C,C11*
X14097000Y42406000D03*
X14097000Y40906000D03*
G04 #@! TD*
G04 #@! TO.C,C12*
X14097000Y43688000D03*
X14097000Y45188000D03*
G04 #@! TD*
D15*
G04 #@! TO.C,C1*
X1397000Y1675000D03*
X1397000Y4675000D03*
G04 #@! TD*
G04 #@! TO.C,C4*
X1397000Y8993000D03*
X1397000Y5993000D03*
G04 #@! TD*
G04 #@! TO.C,C5*
X22733000Y14351000D03*
X22733000Y17351000D03*
G04 #@! TD*
G04 #@! TO.C,C13*
X30861000Y40156000D03*
X30861000Y43156000D03*
G04 #@! TD*
D16*
G04 #@! TO.C,C7*
X37616000Y21590000D03*
X40616000Y21590000D03*
G04 #@! TD*
M02*
