G04 #@! TF.GenerationSoftware,KiCad,Pcbnew,5.0.2-bee76a0~70~ubuntu18.04.1*
G04 #@! TF.CreationDate,2020-07-03T21:26:00+02:00*
G04 #@! TF.ProjectId,lmx2594,6c6d7832-3539-4342-9e6b-696361645f70,rev?*
G04 #@! TF.SameCoordinates,PX463f660PY71d9820*
G04 #@! TF.FileFunction,Copper,L1,Top*
G04 #@! TF.FilePolarity,Positive*
%FSLAX46Y46*%
G04 Gerber Fmt 4.6, Leading zero omitted, Abs format (unit mm)*
G04 Created by KiCad (PCBNEW 5.0.2-bee76a0~70~ubuntu18.04.1) date fre  3 jul 2020 21:26:00*
%MOMM*%
%LPD*%
G01*
G04 APERTURE LIST*
G04 #@! TA.AperFunction,NonConductor*
%ADD10C,0.300000*%
G04 #@! TD*
G04 #@! TA.AperFunction,SMDPad,CuDef*
%ADD11R,1.550000X0.600000*%
G04 #@! TD*
G04 #@! TA.AperFunction,SMDPad,CuDef*
%ADD12R,1.175000X1.175000*%
G04 #@! TD*
G04 #@! TA.AperFunction,SMDPad,CuDef*
%ADD13R,1.300000X1.500000*%
G04 #@! TD*
G04 #@! TA.AperFunction,ComponentPad*
%ADD14R,2.600000X2.000000*%
G04 #@! TD*
G04 #@! TA.AperFunction,ComponentPad*
%ADD15O,2.600000X2.000000*%
G04 #@! TD*
G04 #@! TA.AperFunction,ComponentPad*
%ADD16O,2.540000X2.032000*%
G04 #@! TD*
G04 #@! TA.AperFunction,SMDPad,CuDef*
%ADD17R,1.300000X1.750000*%
G04 #@! TD*
G04 #@! TA.AperFunction,SMDPad,CuDef*
%ADD18R,0.800000X0.250000*%
G04 #@! TD*
G04 #@! TA.AperFunction,SMDPad,CuDef*
%ADD19R,0.250000X0.800000*%
G04 #@! TD*
G04 #@! TA.AperFunction,SMDPad,CuDef*
%ADD20C,0.750000*%
G04 #@! TD*
G04 #@! TA.AperFunction,Conductor*
%ADD21C,0.100000*%
G04 #@! TD*
G04 #@! TA.AperFunction,SMDPad,CuDef*
%ADD22R,0.750000X0.800000*%
G04 #@! TD*
G04 #@! TA.AperFunction,SMDPad,CuDef*
%ADD23R,0.800000X0.750000*%
G04 #@! TD*
G04 #@! TA.AperFunction,SMDPad,CuDef*
%ADD24R,0.500000X0.600000*%
G04 #@! TD*
G04 #@! TA.AperFunction,SMDPad,CuDef*
%ADD25R,0.600000X0.500000*%
G04 #@! TD*
G04 #@! TA.AperFunction,SMDPad,CuDef*
%ADD26R,2.000000X2.500000*%
G04 #@! TD*
G04 #@! TA.AperFunction,SMDPad,CuDef*
%ADD27R,0.600000X0.400000*%
G04 #@! TD*
G04 #@! TA.AperFunction,SMDPad,CuDef*
%ADD28R,0.400000X0.600000*%
G04 #@! TD*
G04 #@! TA.AperFunction,SMDPad,CuDef*
%ADD29R,1.270000X2.540000*%
G04 #@! TD*
G04 #@! TA.AperFunction,SMDPad,CuDef*
%ADD30R,0.250000X0.700000*%
G04 #@! TD*
G04 #@! TA.AperFunction,SMDPad,CuDef*
%ADD31R,0.710000X0.610000*%
G04 #@! TD*
G04 #@! TA.AperFunction,SMDPad,CuDef*
%ADD32R,1.500000X4.500000*%
G04 #@! TD*
G04 #@! TA.AperFunction,SMDPad,CuDef*
%ADD33R,0.400000X4.500000*%
G04 #@! TD*
G04 #@! TA.AperFunction,SMDPad,CuDef*
%ADD34R,4.500000X1.500000*%
G04 #@! TD*
G04 #@! TA.AperFunction,SMDPad,CuDef*
%ADD35R,4.500000X0.400000*%
G04 #@! TD*
G04 #@! TA.AperFunction,SMDPad,CuDef*
%ADD36R,2.500000X1.000000*%
G04 #@! TD*
G04 #@! TA.AperFunction,ViaPad*
%ADD37C,0.800000*%
G04 #@! TD*
G04 #@! TA.AperFunction,ViaPad*
%ADD38C,0.450000*%
G04 #@! TD*
G04 #@! TA.AperFunction,ViaPad*
%ADD39C,0.600000*%
G04 #@! TD*
G04 #@! TA.AperFunction,Conductor*
%ADD40C,0.250000*%
G04 #@! TD*
G04 #@! TA.AperFunction,Conductor*
%ADD41C,0.088900*%
G04 #@! TD*
G04 #@! TA.AperFunction,Conductor*
%ADD42C,0.500000*%
G04 #@! TD*
G04 #@! TA.AperFunction,Conductor*
%ADD43C,0.292100*%
G04 #@! TD*
G04 #@! TA.AperFunction,Conductor*
%ADD44C,1.500000*%
G04 #@! TD*
G04 #@! TA.AperFunction,Conductor*
%ADD45C,2.000000*%
G04 #@! TD*
G04 #@! TA.AperFunction,Conductor*
%ADD46C,1.000000*%
G04 #@! TD*
G04 #@! TA.AperFunction,Conductor*
%ADD47C,0.205000*%
G04 #@! TD*
G04 #@! TA.AperFunction,Conductor*
%ADD48C,0.254000*%
G04 #@! TD*
G04 APERTURE END LIST*
D10*
X46652571Y6778572D02*
X46652571Y5921429D01*
X46652571Y6350000D02*
X45152571Y6350000D01*
X45366857Y6207143D01*
X45509714Y6064286D01*
X45581142Y5921429D01*
D11*
G04 #@! TO.P,U5,1*
G04 #@! TO.N,/3V3*
X11778000Y29591000D03*
G04 #@! TO.P,U5,2*
X11778000Y28321000D03*
G04 #@! TO.P,U5,3*
G04 #@! TO.N,Net-(C45-Pad1)*
X11778000Y27051000D03*
G04 #@! TO.P,U5,4*
G04 #@! TO.N,Net-(R27-Pad1)*
X11778000Y25781000D03*
G04 #@! TO.P,U5,5*
G04 #@! TO.N,Net-(C44-Pad1)*
X17178000Y25781000D03*
G04 #@! TO.P,U5,6*
X17178000Y27051000D03*
G04 #@! TO.P,U5,7*
G04 #@! TO.N,Net-(C16-Pad1)*
X17178000Y28321000D03*
G04 #@! TO.P,U5,8*
G04 #@! TO.N,/5V*
X17178000Y29591000D03*
D12*
G04 #@! TO.P,U5,9*
G04 #@! TO.N,GND*
X15065500Y27098500D03*
X15065500Y28273500D03*
X13890500Y27098500D03*
X13890500Y28273500D03*
G04 #@! TD*
D13*
G04 #@! TO.P,D1,1*
G04 #@! TO.N,GND*
X13716000Y18128000D03*
G04 #@! TO.P,D1,2*
G04 #@! TO.N,Net-(D1-Pad2)*
X13716000Y20828000D03*
G04 #@! TD*
G04 #@! TO.P,D2,1*
G04 #@! TO.N,GND*
X10160000Y18128000D03*
G04 #@! TO.P,D2,2*
G04 #@! TO.N,Net-(D2-Pad2)*
X10160000Y20828000D03*
G04 #@! TD*
G04 #@! TO.P,D3,1*
G04 #@! TO.N,GND*
X11938000Y18128000D03*
G04 #@! TO.P,D3,2*
G04 #@! TO.N,Net-(D3-Pad2)*
X11938000Y20828000D03*
G04 #@! TD*
D14*
G04 #@! TO.P,J3,1*
G04 #@! TO.N,/VIN*
X3556000Y16256000D03*
D15*
G04 #@! TO.P,J3,2*
G04 #@! TO.N,/5V_unfilt*
X3556000Y18796000D03*
G04 #@! TO.P,J3,3*
G04 #@! TO.N,GND*
X3556000Y21336000D03*
G04 #@! TO.P,J3,4*
G04 #@! TO.N,/3V3*
X3556000Y23876000D03*
G04 #@! TO.P,J3,5*
G04 #@! TO.N,/SYNC*
X3556000Y26416000D03*
G04 #@! TO.P,J3,6*
G04 #@! TO.N,/CE*
X3556000Y28956000D03*
G04 #@! TO.P,J3,7*
G04 #@! TO.N,/RAMPDIR*
X3556000Y31496000D03*
G04 #@! TO.P,J3,8*
G04 #@! TO.N,/RAMPCLK*
X3556000Y34036000D03*
G04 #@! TO.P,J3,9*
G04 #@! TO.N,/SCK*
X3556000Y36576000D03*
G04 #@! TO.P,J3,10*
G04 #@! TO.N,/SDI*
X3556000Y39116000D03*
G04 #@! TO.P,J3,11*
G04 #@! TO.N,/MUX*
X3556000Y41656000D03*
G04 #@! TO.P,J3,12*
G04 #@! TO.N,/CSB*
X3556000Y44196000D03*
G04 #@! TO.P,J3,13*
G04 #@! TO.N,/SYSREFREQ*
X3556000Y46736000D03*
G04 #@! TD*
D16*
G04 #@! TO.P,U1,2*
G04 #@! TO.N,GND*
X12192000Y42926000D03*
G04 #@! TO.P,U1,3*
G04 #@! TO.N,/9V*
X12192000Y45466000D03*
G04 #@! TO.P,U1,1*
G04 #@! TO.N,/VIN*
X12192000Y40386000D03*
G04 #@! TD*
D17*
G04 #@! TO.P,U3,41*
G04 #@! TO.N,GND*
X30338000Y27037000D03*
X31638000Y27037000D03*
X31638000Y25287000D03*
X30338000Y25287000D03*
D18*
G04 #@! TO.P,U3,40*
X27988000Y23912000D03*
G04 #@! TO.P,U3,39*
X27988000Y24412000D03*
G04 #@! TO.P,U3,38*
G04 #@! TO.N,Net-(C35-Pad1)*
X27988000Y24912000D03*
G04 #@! TO.P,U3,37*
G04 #@! TO.N,/VCC*
X27988000Y25412000D03*
G04 #@! TO.P,U3,36*
G04 #@! TO.N,Net-(C34-Pad1)*
X27988000Y25912000D03*
G04 #@! TO.P,U3,35*
G04 #@! TO.N,/VTUNE*
X27988000Y26412000D03*
G04 #@! TO.P,U3,34*
G04 #@! TO.N,GND*
X27988000Y26912000D03*
G04 #@! TO.P,U3,33*
G04 #@! TO.N,Net-(C39-Pad1)*
X27988000Y27412000D03*
G04 #@! TO.P,U3,32*
G04 #@! TO.N,/RAMPDIR*
X27988000Y27912000D03*
G04 #@! TO.P,U3,31*
G04 #@! TO.N,GND*
X27988000Y28412000D03*
D19*
G04 #@! TO.P,U3,30*
G04 #@! TO.N,/RAMPCLK*
X28738000Y29162000D03*
G04 #@! TO.P,U3,29*
G04 #@! TO.N,Net-(C36-Pad1)*
X29238000Y29162000D03*
G04 #@! TO.P,U3,28*
G04 #@! TO.N,Net-(U3-Pad28)*
X29738000Y29162000D03*
G04 #@! TO.P,U3,27*
G04 #@! TO.N,Net-(C38-Pad1)*
X30238000Y29162000D03*
G04 #@! TO.P,U3,26*
G04 #@! TO.N,/VCC*
X30738000Y29162000D03*
G04 #@! TO.P,U3,25*
G04 #@! TO.N,GND*
X31238000Y29162000D03*
G04 #@! TO.P,U3,24*
G04 #@! TO.N,/CSB*
X31738000Y29162000D03*
G04 #@! TO.P,U3,23*
G04 #@! TO.N,/RFOUT_A_P*
X32238000Y29162000D03*
G04 #@! TO.P,U3,22*
G04 #@! TO.N,/RFOUT_A_N*
X32738000Y29162000D03*
G04 #@! TO.P,U3,21*
G04 #@! TO.N,Net-(C19-Pad2)*
X33238000Y29162000D03*
D18*
G04 #@! TO.P,U3,20*
G04 #@! TO.N,/MUX*
X33988000Y28412000D03*
G04 #@! TO.P,U3,19*
G04 #@! TO.N,/RFOUT_B_P*
X33988000Y27912000D03*
G04 #@! TO.P,U3,18*
G04 #@! TO.N,/RFOUT_B_N*
X33988000Y27412000D03*
G04 #@! TO.P,U3,17*
G04 #@! TO.N,/SDI*
X33988000Y26912000D03*
G04 #@! TO.P,U3,16*
G04 #@! TO.N,/SCK*
X33988000Y26412000D03*
G04 #@! TO.P,U3,15*
G04 #@! TO.N,/VCC*
X33988000Y25912000D03*
G04 #@! TO.P,U3,14*
G04 #@! TO.N,GND*
X33988000Y25412000D03*
G04 #@! TO.P,U3,13*
X33988000Y24912000D03*
G04 #@! TO.P,U3,12*
G04 #@! TO.N,/CPOUT*
X33988000Y24412000D03*
G04 #@! TO.P,U3,11*
G04 #@! TO.N,/VCC*
X33988000Y23912000D03*
D19*
G04 #@! TO.P,U3,10*
G04 #@! TO.N,Net-(C32-Pad1)*
X33238000Y23162000D03*
G04 #@! TO.P,U3,9*
G04 #@! TO.N,/OSCIN_N*
X32738000Y23162000D03*
G04 #@! TO.P,U3,8*
G04 #@! TO.N,/OSCIN_P*
X32238000Y23162000D03*
G04 #@! TO.P,U3,7*
G04 #@! TO.N,/VCC*
X31738000Y23162000D03*
G04 #@! TO.P,U3,6*
G04 #@! TO.N,GND*
X31238000Y23162000D03*
G04 #@! TO.P,U3,5*
G04 #@! TO.N,/SYNC*
X30738000Y23162000D03*
G04 #@! TO.P,U3,4*
G04 #@! TO.N,GND*
X30238000Y23162000D03*
G04 #@! TO.P,U3,3*
G04 #@! TO.N,Net-(C37-Pad1)*
X29738000Y23162000D03*
G04 #@! TO.P,U3,2*
G04 #@! TO.N,GND*
X29238000Y23162000D03*
G04 #@! TO.P,U3,1*
G04 #@! TO.N,/CE*
X28738000Y23162000D03*
G04 #@! TD*
D20*
G04 #@! TO.P,C19,2*
G04 #@! TO.N,Net-(C19-Pad2)*
X34371090Y30446987D03*
D21*
G04 #@! TD*
G04 #@! TO.N,Net-(C19-Pad2)*
G04 #@! TO.C,C19*
G36*
X34597136Y30946515D02*
X34884148Y30253606D01*
X34145044Y29947459D01*
X33858032Y30640368D01*
X34597136Y30946515D01*
X34597136Y30946515D01*
G37*
D20*
G04 #@! TO.P,C19,1*
G04 #@! TO.N,GND*
X35756910Y31021013D03*
D21*
G04 #@! TD*
G04 #@! TO.N,GND*
G04 #@! TO.C,C19*
G36*
X35982956Y31520541D02*
X36269968Y30827632D01*
X35530864Y30521485D01*
X35243852Y31214394D01*
X35982956Y31520541D01*
X35982956Y31520541D01*
G37*
D22*
G04 #@! TO.P,C21,2*
G04 #@! TO.N,GND*
X30988000Y20078000D03*
G04 #@! TO.P,C21,1*
G04 #@! TO.N,/VCC*
X30988000Y21578000D03*
G04 #@! TD*
D23*
G04 #@! TO.P,C22,2*
G04 #@! TO.N,GND*
X37326000Y23876000D03*
G04 #@! TO.P,C22,1*
G04 #@! TO.N,/VCC*
X35826000Y23876000D03*
G04 #@! TD*
G04 #@! TO.P,C23,2*
G04 #@! TO.N,GND*
X37326000Y25146000D03*
G04 #@! TO.P,C23,1*
G04 #@! TO.N,/VCC*
X35826000Y25146000D03*
G04 #@! TD*
D20*
G04 #@! TO.P,C24,2*
G04 #@! TO.N,GND*
X29557987Y32569910D03*
D21*
G04 #@! TD*
G04 #@! TO.N,GND*
G04 #@! TO.C,C24*
G36*
X30057515Y32343864D02*
X29364606Y32056852D01*
X29058459Y32795956D01*
X29751368Y33082968D01*
X30057515Y32343864D01*
X30057515Y32343864D01*
G37*
D20*
G04 #@! TO.P,C24,1*
G04 #@! TO.N,/VCC*
X30132013Y31184090D03*
D21*
G04 #@! TD*
G04 #@! TO.N,/VCC*
G04 #@! TO.C,C24*
G36*
X30631541Y30958044D02*
X29938632Y30671032D01*
X29632485Y31410136D01*
X30325394Y31697148D01*
X30631541Y30958044D01*
X30631541Y30958044D01*
G37*
D23*
G04 #@! TO.P,C25,2*
G04 #@! TO.N,GND*
X24650000Y24638000D03*
G04 #@! TO.P,C25,1*
G04 #@! TO.N,/VCC*
X26150000Y24638000D03*
G04 #@! TD*
D22*
G04 #@! TO.P,C32,2*
G04 #@! TO.N,GND*
X33782000Y20078000D03*
G04 #@! TO.P,C32,1*
G04 #@! TO.N,Net-(C32-Pad1)*
X33782000Y21578000D03*
G04 #@! TD*
D23*
G04 #@! TO.P,C34,2*
G04 #@! TO.N,GND*
X24650000Y25908000D03*
G04 #@! TO.P,C34,1*
G04 #@! TO.N,Net-(C34-Pad1)*
X26150000Y25908000D03*
G04 #@! TD*
G04 #@! TO.P,C35,2*
G04 #@! TO.N,GND*
X24662000Y23368000D03*
G04 #@! TO.P,C35,1*
G04 #@! TO.N,Net-(C35-Pad1)*
X26162000Y23368000D03*
G04 #@! TD*
D20*
G04 #@! TO.P,C38,2*
G04 #@! TO.N,GND*
X28414987Y32188910D03*
D21*
G04 #@! TD*
G04 #@! TO.N,GND*
G04 #@! TO.C,C38*
G36*
X28914515Y31962864D02*
X28221606Y31675852D01*
X27915459Y32414956D01*
X28608368Y32701968D01*
X28914515Y31962864D01*
X28914515Y31962864D01*
G37*
D20*
G04 #@! TO.P,C38,1*
G04 #@! TO.N,Net-(C38-Pad1)*
X28989013Y30803090D03*
D21*
G04 #@! TD*
G04 #@! TO.N,Net-(C38-Pad1)*
G04 #@! TO.C,C38*
G36*
X29488541Y30577044D02*
X28795632Y30290032D01*
X28489485Y31029136D01*
X29182394Y31316148D01*
X29488541Y30577044D01*
X29488541Y30577044D01*
G37*
D23*
G04 #@! TO.P,C40,2*
G04 #@! TO.N,Net-(C40-Pad2)*
X24650000Y6973000D03*
G04 #@! TO.P,C40,1*
G04 #@! TO.N,Net-(C40-Pad1)*
X26150000Y6973000D03*
G04 #@! TD*
D22*
G04 #@! TO.P,C41,2*
G04 #@! TO.N,Net-(C40-Pad1)*
X31750000Y15760000D03*
G04 #@! TO.P,C41,1*
G04 #@! TO.N,/OSCIN_P*
X31750000Y17260000D03*
G04 #@! TD*
D23*
G04 #@! TO.P,C42,2*
G04 #@! TO.N,Net-(C42-Pad2)*
X40120000Y6985000D03*
G04 #@! TO.P,C42,1*
G04 #@! TO.N,Net-(C42-Pad1)*
X38620000Y6985000D03*
G04 #@! TD*
D22*
G04 #@! TO.P,C43,2*
G04 #@! TO.N,Net-(C42-Pad1)*
X33274000Y15760000D03*
G04 #@! TO.P,C43,1*
G04 #@! TO.N,/OSCIN_N*
X33274000Y17260000D03*
G04 #@! TD*
D23*
G04 #@! TO.P,R4,2*
G04 #@! TO.N,/MUX*
X17006000Y20828000D03*
G04 #@! TO.P,R4,1*
G04 #@! TO.N,Net-(D1-Pad2)*
X15506000Y20828000D03*
G04 #@! TD*
D22*
G04 #@! TO.P,R5,2*
G04 #@! TO.N,/5V_unfilt*
X7366000Y19050000D03*
G04 #@! TO.P,R5,1*
G04 #@! TO.N,Net-(D2-Pad2)*
X7366000Y20550000D03*
G04 #@! TD*
G04 #@! TO.P,R6,2*
G04 #@! TO.N,GND*
X14351000Y1294000D03*
G04 #@! TO.P,R6,1*
G04 #@! TO.N,Net-(R6-Pad1)*
X14351000Y2794000D03*
G04 #@! TD*
D23*
G04 #@! TO.P,R9,2*
G04 #@! TO.N,/3V3*
X16994000Y22225000D03*
G04 #@! TO.P,R9,1*
G04 #@! TO.N,Net-(D3-Pad2)*
X15494000Y22225000D03*
G04 #@! TD*
G04 #@! TO.P,R10,2*
G04 #@! TO.N,Net-(R10-Pad2)*
X28206000Y12954000D03*
G04 #@! TO.P,R10,1*
G04 #@! TO.N,Net-(C40-Pad1)*
X29706000Y12954000D03*
G04 #@! TD*
G04 #@! TO.P,R21,2*
G04 #@! TO.N,Net-(C42-Pad1)*
X33262000Y14224000D03*
G04 #@! TO.P,R21,1*
G04 #@! TO.N,Net-(C40-Pad1)*
X31762000Y14224000D03*
G04 #@! TD*
G04 #@! TO.P,R3,2*
G04 #@! TO.N,Net-(C40-Pad1)*
X30468000Y14224000D03*
G04 #@! TO.P,R3,1*
G04 #@! TO.N,GND*
X28968000Y14224000D03*
G04 #@! TD*
G04 #@! TO.P,R8,2*
G04 #@! TO.N,GND*
X36044000Y14224000D03*
G04 #@! TO.P,R8,1*
G04 #@! TO.N,Net-(C42-Pad1)*
X34544000Y14224000D03*
G04 #@! TD*
G04 #@! TO.P,R23,2*
G04 #@! TO.N,/CE*
X26277000Y22098000D03*
G04 #@! TO.P,R23,1*
G04 #@! TO.N,/VCC*
X24777000Y22098000D03*
G04 #@! TD*
G04 #@! TO.P,R24,2*
G04 #@! TO.N,Net-(R24-Pad2)*
X31000000Y12954000D03*
G04 #@! TO.P,R24,1*
G04 #@! TO.N,Net-(C42-Pad1)*
X32500000Y12954000D03*
G04 #@! TD*
G04 #@! TO.P,R25,2*
G04 #@! TO.N,Net-(C19-Pad2)*
X37211000Y31242000D03*
G04 #@! TO.P,R25,1*
G04 #@! TO.N,/VRF*
X38711000Y31242000D03*
G04 #@! TD*
D20*
G04 #@! TO.P,R26,2*
G04 #@! TO.N,Net-(C19-Pad2)*
X35109090Y29430987D03*
D21*
G04 #@! TD*
G04 #@! TO.N,Net-(C19-Pad2)*
G04 #@! TO.C,R26*
G36*
X35335136Y29930515D02*
X35622148Y29237606D01*
X34883044Y28931459D01*
X34596032Y29624368D01*
X35335136Y29930515D01*
X35335136Y29930515D01*
G37*
D20*
G04 #@! TO.P,R26,1*
G04 #@! TO.N,/VCC*
X36494910Y30005013D03*
D21*
G04 #@! TD*
G04 #@! TO.N,/VCC*
G04 #@! TO.C,R26*
G36*
X36720956Y30504541D02*
X37007968Y29811632D01*
X36268864Y29505485D01*
X35981852Y30198394D01*
X36720956Y30504541D01*
X36720956Y30504541D01*
G37*
D22*
G04 #@! TO.P,C9,2*
G04 #@! TO.N,GND*
X11811000Y1294000D03*
G04 #@! TO.P,C9,1*
G04 #@! TO.N,Net-(C9-Pad1)*
X11811000Y2794000D03*
G04 #@! TD*
D24*
G04 #@! TO.P,C17,1*
G04 #@! TO.N,Net-(C17-Pad1)*
X25019000Y36195000D03*
G04 #@! TO.P,C17,2*
G04 #@! TO.N,/RFOUT_A_P*
X25019000Y35095000D03*
G04 #@! TD*
G04 #@! TO.P,C18,1*
G04 #@! TO.N,GND*
X32512000Y33570000D03*
G04 #@! TO.P,C18,2*
G04 #@! TO.N,/RFA_BIAS*
X32512000Y32470000D03*
G04 #@! TD*
G04 #@! TO.P,C20,1*
G04 #@! TO.N,Net-(C20-Pad1)*
X39116000Y36195000D03*
G04 #@! TO.P,C20,2*
G04 #@! TO.N,/RFOUT_A_N*
X39116000Y35095000D03*
G04 #@! TD*
G04 #@! TO.P,C26,1*
G04 #@! TO.N,Net-(C26-Pad1)*
X42291000Y22056000D03*
G04 #@! TO.P,C26,2*
G04 #@! TO.N,/RFOUT_B_N*
X42291000Y23156000D03*
G04 #@! TD*
D25*
G04 #@! TO.P,C27,1*
G04 #@! TO.N,GND*
X38269000Y27686000D03*
G04 #@! TO.P,C27,2*
G04 #@! TO.N,/RFB_BIAS*
X37169000Y27686000D03*
G04 #@! TD*
D26*
G04 #@! TO.P,C46,1*
G04 #@! TO.N,/3V3*
X12446000Y33274000D03*
G04 #@! TO.P,C46,2*
G04 #@! TO.N,GND*
X16446000Y33274000D03*
G04 #@! TD*
D24*
G04 #@! TO.P,C50,1*
G04 #@! TO.N,GND*
X22098000Y38143000D03*
G04 #@! TO.P,C50,2*
G04 #@! TO.N,Net-(C50-Pad2)*
X22098000Y39243000D03*
G04 #@! TD*
G04 #@! TO.P,C51,1*
G04 #@! TO.N,Net-(C51-Pad1)*
X25019000Y41275000D03*
G04 #@! TO.P,C51,2*
G04 #@! TO.N,Net-(C51-Pad2)*
X25019000Y40175000D03*
G04 #@! TD*
G04 #@! TO.P,C52,1*
G04 #@! TO.N,GND*
X37084000Y38143000D03*
G04 #@! TO.P,C52,2*
G04 #@! TO.N,Net-(C52-Pad2)*
X37084000Y39243000D03*
G04 #@! TD*
G04 #@! TO.P,C53,1*
G04 #@! TO.N,Net-(C53-Pad1)*
X39116000Y41317000D03*
G04 #@! TO.P,C53,2*
G04 #@! TO.N,Net-(C53-Pad2)*
X39116000Y40217000D03*
G04 #@! TD*
D25*
G04 #@! TO.P,L2,1*
G04 #@! TO.N,Net-(C50-Pad2)*
X22987000Y40259000D03*
G04 #@! TO.P,L2,2*
G04 #@! TO.N,Net-(C51-Pad2)*
X24087000Y40259000D03*
G04 #@! TD*
G04 #@! TO.P,L4,1*
G04 #@! TO.N,Net-(C52-Pad2)*
X37084000Y40259000D03*
G04 #@! TO.P,L4,2*
G04 #@! TO.N,Net-(C53-Pad2)*
X38184000Y40259000D03*
G04 #@! TD*
D27*
G04 #@! TO.P,R11,1*
G04 #@! TO.N,/RFOUT_A_P*
X32131000Y30792000D03*
G04 #@! TO.P,R11,2*
G04 #@! TO.N,/RFA_BIAS*
X32131000Y31692000D03*
G04 #@! TD*
G04 #@! TO.P,R12,1*
G04 #@! TO.N,/RFA_BIAS*
X32893000Y31692000D03*
G04 #@! TO.P,R12,2*
G04 #@! TO.N,/RFOUT_A_N*
X32893000Y30792000D03*
G04 #@! TD*
D28*
G04 #@! TO.P,R13,1*
G04 #@! TO.N,/RFOUT_B_N*
X35491000Y27305000D03*
G04 #@! TO.P,R13,2*
G04 #@! TO.N,/RFB_BIAS*
X36391000Y27305000D03*
G04 #@! TD*
G04 #@! TO.P,R16,1*
G04 #@! TO.N,/RFB_BIAS*
X36391000Y28067000D03*
G04 #@! TO.P,R16,2*
G04 #@! TO.N,/RFOUT_B_P*
X35491000Y28067000D03*
G04 #@! TD*
D22*
G04 #@! TO.P,R27,2*
G04 #@! TO.N,/5V*
X10795000Y22999000D03*
G04 #@! TO.P,R27,1*
G04 #@! TO.N,Net-(R27-Pad1)*
X10795000Y24499000D03*
G04 #@! TD*
G04 #@! TO.P,R28,2*
G04 #@! TO.N,/9V*
X20955000Y37743000D03*
G04 #@! TO.P,R28,1*
G04 #@! TO.N,Net-(C50-Pad2)*
X20955000Y39243000D03*
G04 #@! TD*
G04 #@! TO.P,R29,2*
G04 #@! TO.N,/9V*
X35052000Y37743000D03*
G04 #@! TO.P,R29,1*
G04 #@! TO.N,Net-(C52-Pad2)*
X35052000Y39243000D03*
G04 #@! TD*
D29*
G04 #@! TO.P,U2,1*
G04 #@! TO.N,Net-(C9-Pad1)*
X11811000Y5461000D03*
G04 #@! TO.P,U2,2*
G04 #@! TO.N,Net-(R6-Pad1)*
X14351000Y5461000D03*
G04 #@! TO.P,U2,3*
G04 #@! TO.N,GND*
X16891000Y5461000D03*
G04 #@! TO.P,U2,4*
G04 #@! TO.N,Net-(R10-Pad2)*
X16891000Y14361000D03*
G04 #@! TO.P,U2,5*
G04 #@! TO.N,Net-(R24-Pad2)*
X14351000Y14361000D03*
G04 #@! TO.P,U2,6*
G04 #@! TO.N,/VCC*
X11811000Y14361000D03*
G04 #@! TD*
D16*
G04 #@! TO.P,U4,2*
G04 #@! TO.N,GND*
X4064000Y6350000D03*
G04 #@! TO.P,U4,3*
G04 #@! TO.N,/5V_unfilt*
X4064000Y8890000D03*
G04 #@! TO.P,U4,1*
G04 #@! TO.N,/VIN*
X4064000Y3810000D03*
G04 #@! TD*
D30*
G04 #@! TO.P,U6,1*
G04 #@! TO.N,GND*
X24011000Y37302000D03*
G04 #@! TO.P,U6,2*
X24511000Y37302000D03*
G04 #@! TO.P,U6,3*
G04 #@! TO.N,Net-(C17-Pad1)*
X25011000Y37302000D03*
G04 #@! TO.P,U6,4*
G04 #@! TO.N,Net-(C51-Pad2)*
X25011000Y39152000D03*
G04 #@! TO.P,U6,5*
G04 #@! TO.N,GND*
X24511000Y39152000D03*
G04 #@! TO.P,U6,6*
X24011000Y39152000D03*
D31*
G04 #@! TO.P,U6,7*
X24866000Y38227000D03*
X24156000Y38227000D03*
G04 #@! TD*
D30*
G04 #@! TO.P,U7,1*
G04 #@! TO.N,GND*
X38108000Y37302000D03*
G04 #@! TO.P,U7,2*
X38608000Y37302000D03*
G04 #@! TO.P,U7,3*
G04 #@! TO.N,Net-(C20-Pad1)*
X39108000Y37302000D03*
G04 #@! TO.P,U7,4*
G04 #@! TO.N,Net-(C53-Pad2)*
X39108000Y39152000D03*
G04 #@! TO.P,U7,5*
G04 #@! TO.N,GND*
X38608000Y39152000D03*
G04 #@! TO.P,U7,6*
X38108000Y39152000D03*
D31*
G04 #@! TO.P,U7,7*
X38963000Y38227000D03*
X38253000Y38227000D03*
G04 #@! TD*
D32*
G04 #@! TO.P,J1,2*
G04 #@! TO.N,GND*
X19729000Y45879000D03*
X25229000Y45879000D03*
D33*
G04 #@! TO.P,J1,1*
G04 #@! TO.N,Net-(C51-Pad1)*
X22479000Y45879000D03*
G04 #@! TD*
D32*
G04 #@! TO.P,J2,2*
G04 #@! TO.N,GND*
X39414000Y45879000D03*
X44914000Y45879000D03*
D33*
G04 #@! TO.P,J2,1*
G04 #@! TO.N,Net-(C53-Pad1)*
X42164000Y45879000D03*
G04 #@! TD*
D34*
G04 #@! TO.P,J4,2*
G04 #@! TO.N,GND*
X45879000Y20784000D03*
X45879000Y15284000D03*
D35*
G04 #@! TO.P,J4,1*
G04 #@! TO.N,Net-(C26-Pad1)*
X45879000Y18034000D03*
G04 #@! TD*
D34*
G04 #@! TO.P,J5,2*
G04 #@! TO.N,GND*
X45752000Y40088000D03*
X45752000Y34588000D03*
D35*
G04 #@! TO.P,J5,1*
G04 #@! TO.N,Net-(C33-Pad1)*
X45752000Y37338000D03*
G04 #@! TD*
D32*
G04 #@! TO.P,J7,2*
G04 #@! TO.N,GND*
X25356000Y2508000D03*
X19856000Y2508000D03*
D33*
G04 #@! TO.P,J7,1*
G04 #@! TO.N,Net-(C40-Pad2)*
X22606000Y2508000D03*
G04 #@! TD*
D32*
G04 #@! TO.P,J9,2*
G04 #@! TO.N,GND*
X44914000Y2508000D03*
X39414000Y2508000D03*
D33*
G04 #@! TO.P,J9,1*
G04 #@! TO.N,Net-(C42-Pad2)*
X42164000Y2508000D03*
G04 #@! TD*
D24*
G04 #@! TO.P,C55,1*
G04 #@! TO.N,GND*
X22987000Y38143000D03*
G04 #@! TO.P,C55,2*
G04 #@! TO.N,Net-(C50-Pad2)*
X22987000Y39243000D03*
G04 #@! TD*
D25*
G04 #@! TO.P,C56,1*
G04 #@! TO.N,GND*
X23198000Y37211000D03*
G04 #@! TO.P,C56,2*
G04 #@! TO.N,/9V*
X22098000Y37211000D03*
G04 #@! TD*
G04 #@! TO.P,C57,1*
G04 #@! TO.N,GND*
X37168000Y37211000D03*
G04 #@! TO.P,C57,2*
G04 #@! TO.N,/9V*
X36068000Y37211000D03*
G04 #@! TD*
D24*
G04 #@! TO.P,C58,1*
G04 #@! TO.N,GND*
X36195000Y38143000D03*
G04 #@! TO.P,C58,2*
G04 #@! TO.N,Net-(C52-Pad2)*
X36195000Y39243000D03*
G04 #@! TD*
G04 #@! TO.P,C33,1*
G04 #@! TO.N,Net-(C33-Pad1)*
X42291000Y33316000D03*
G04 #@! TO.P,C33,2*
G04 #@! TO.N,/RFOUT_B_P*
X42291000Y32216000D03*
G04 #@! TD*
D22*
G04 #@! TO.P,C16,2*
G04 #@! TO.N,GND*
X19304000Y29718000D03*
G04 #@! TO.P,C16,1*
G04 #@! TO.N,Net-(C16-Pad1)*
X19304000Y28218000D03*
G04 #@! TD*
G04 #@! TO.P,C45,2*
G04 #@! TO.N,GND*
X9398000Y25424000D03*
G04 #@! TO.P,C45,1*
G04 #@! TO.N,Net-(C45-Pad1)*
X9398000Y26924000D03*
G04 #@! TD*
D23*
G04 #@! TO.P,C44,2*
G04 #@! TO.N,GND*
X15518000Y23622000D03*
G04 #@! TO.P,C44,1*
G04 #@! TO.N,Net-(C44-Pad1)*
X17018000Y23622000D03*
G04 #@! TD*
G04 #@! TO.P,C59,2*
G04 #@! TO.N,GND*
X9791000Y16256000D03*
G04 #@! TO.P,C59,1*
G04 #@! TO.N,/VCC*
X11291000Y16256000D03*
G04 #@! TD*
D36*
G04 #@! TO.P,C10,1*
G04 #@! TO.N,/VIN*
X14859000Y38735000D03*
G04 #@! TO.P,C10,2*
G04 #@! TO.N,GND*
X14859000Y41735000D03*
G04 #@! TD*
G04 #@! TO.P,C15,1*
G04 #@! TO.N,/9V*
X14859000Y46966000D03*
G04 #@! TO.P,C15,2*
G04 #@! TO.N,GND*
X14859000Y43966000D03*
G04 #@! TD*
D20*
G04 #@! TO.P,C36,2*
G04 #@! TO.N,GND*
X27017987Y32188910D03*
D21*
G04 #@! TD*
G04 #@! TO.N,GND*
G04 #@! TO.C,C36*
G36*
X27517515Y31962864D02*
X26824606Y31675852D01*
X26518459Y32414956D01*
X27211368Y32701968D01*
X27517515Y31962864D01*
X27517515Y31962864D01*
G37*
D20*
G04 #@! TO.P,C36,1*
G04 #@! TO.N,Net-(C36-Pad1)*
X27592013Y30803090D03*
D21*
G04 #@! TD*
G04 #@! TO.N,Net-(C36-Pad1)*
G04 #@! TO.C,C36*
G36*
X28091541Y30577044D02*
X27398632Y30290032D01*
X27092485Y31029136D01*
X27785394Y31316148D01*
X28091541Y30577044D01*
X28091541Y30577044D01*
G37*
D22*
G04 #@! TO.P,C37,2*
G04 #@! TO.N,GND*
X28702000Y20090000D03*
G04 #@! TO.P,C37,1*
G04 #@! TO.N,Net-(C37-Pad1)*
X28702000Y21590000D03*
G04 #@! TD*
D23*
G04 #@! TO.P,C39,2*
G04 #@! TO.N,GND*
X24650000Y27432000D03*
G04 #@! TO.P,C39,1*
G04 #@! TO.N,Net-(C39-Pad1)*
X26150000Y27432000D03*
G04 #@! TD*
D28*
G04 #@! TO.P,R18,1*
G04 #@! TO.N,GND*
X26681000Y35052000D03*
G04 #@! TO.P,R18,2*
G04 #@! TO.N,/RFOUT_A_P*
X25781000Y35052000D03*
G04 #@! TD*
G04 #@! TO.P,R19,1*
G04 #@! TO.N,/RFOUT_A_N*
X39878000Y35052000D03*
G04 #@! TO.P,R19,2*
G04 #@! TO.N,GND*
X40778000Y35052000D03*
G04 #@! TD*
G04 #@! TO.P,R20,2*
G04 #@! TO.N,Net-(C17-Pad1)*
X25781000Y36195000D03*
G04 #@! TO.P,R20,1*
G04 #@! TO.N,GND*
X26681000Y36195000D03*
G04 #@! TD*
G04 #@! TO.P,R22,2*
G04 #@! TO.N,GND*
X40778000Y36195000D03*
G04 #@! TO.P,R22,1*
G04 #@! TO.N,Net-(C20-Pad1)*
X39878000Y36195000D03*
G04 #@! TD*
D37*
G04 #@! TO.N,GND*
X36044000Y14224000D03*
X28968000Y14224000D03*
D38*
X31242000Y25019000D03*
D37*
X24650000Y27432000D03*
X24662000Y23368000D03*
X24650000Y24638000D03*
X24650000Y25908000D03*
X37326000Y23876000D03*
X30988000Y20078000D03*
X33782000Y20078000D03*
D38*
X28702000Y20090000D03*
X31242000Y25654000D03*
X30607000Y26289000D03*
X29972000Y27559000D03*
X30607000Y27559000D03*
X31242000Y27559000D03*
X31877000Y27559000D03*
X29972000Y26924000D03*
X31877000Y26924000D03*
X31242000Y26924000D03*
X30607000Y26924000D03*
X29972000Y26289000D03*
X31877000Y26289000D03*
X31242000Y26289000D03*
X30607000Y25654000D03*
X31877000Y25654000D03*
X29972000Y25654000D03*
X29972000Y25019000D03*
X31877000Y25019000D03*
X30607000Y25019000D03*
D39*
X37326000Y25146000D03*
X40374000Y25146000D03*
X35756910Y31021013D03*
D37*
X44914000Y45879000D03*
X45752000Y40088000D03*
X39414000Y45879000D03*
X25229000Y45879000D03*
X19729000Y45879000D03*
X14859000Y43966000D03*
X14859000Y41735000D03*
X16446000Y33274000D03*
X9397376Y24764376D03*
X45879000Y20784000D03*
X45879000Y15284000D03*
X44914000Y2508000D03*
X39414000Y2508000D03*
X25356000Y2508000D03*
X19856000Y2508000D03*
X6096000Y6882000D03*
X24874000Y38191000D03*
X24164000Y38191000D03*
X22987000Y38143000D03*
X22098000Y38143000D03*
X24257000Y39116000D03*
X24257000Y37478002D03*
X23198000Y37211000D03*
X38963000Y38227000D03*
X38253000Y38227000D03*
X38354000Y37338000D03*
X38354000Y39243000D03*
X37168000Y37211000D03*
X37084000Y38143000D03*
X36195000Y38143000D03*
X45752000Y34588000D03*
X22733000Y17106950D03*
X20651845Y15783626D03*
X32512000Y33570000D03*
X38269000Y27686000D03*
X1397000Y4675000D03*
X1397000Y5993000D03*
X30861000Y43156000D03*
X32004000Y35699000D03*
X40616000Y21590000D03*
X14478000Y27686000D03*
X15367000Y27686000D03*
X13589000Y27686000D03*
X13589000Y26797000D03*
X14478000Y26797000D03*
X15367000Y26797000D03*
X15367000Y28575000D03*
X14478000Y28575000D03*
X13589000Y28575000D03*
X16383000Y32385000D03*
X16383000Y34163000D03*
X19685000Y43942000D03*
X19685000Y44958000D03*
X19685000Y47625000D03*
X19685000Y46736000D03*
X25273000Y47625000D03*
X25273000Y46736000D03*
X25273000Y44958000D03*
X25273000Y43942000D03*
X29090949Y32569910D03*
X28414987Y32188910D03*
X27017987Y32188910D03*
X39370000Y47625000D03*
X39370000Y43942000D03*
X39370000Y44958000D03*
X39370000Y46736000D03*
X44958000Y47625000D03*
X44958000Y43942000D03*
X44958000Y44958000D03*
X44958000Y46736000D03*
X47625000Y40132000D03*
X46736000Y40132000D03*
X43942000Y40132000D03*
X44831000Y40132000D03*
X47625000Y34544000D03*
X43942000Y34544000D03*
X44831000Y34544000D03*
X46736000Y34544000D03*
X47625000Y20828000D03*
X43942000Y20828000D03*
X44831000Y20828000D03*
X46736000Y20828000D03*
X47625000Y15240000D03*
X46736000Y15240000D03*
X44831000Y15240000D03*
X43942000Y15240000D03*
X44958000Y635000D03*
X44958000Y1524000D03*
X44958000Y4318000D03*
X44958000Y3429000D03*
X39370000Y635000D03*
X39370000Y1524000D03*
X39370000Y3429000D03*
X39370000Y4318000D03*
X25400000Y635000D03*
X25400000Y1524000D03*
X25400000Y4318000D03*
X25400000Y3429000D03*
X19685000Y635000D03*
X19685000Y1524000D03*
X19685000Y3429000D03*
X19685000Y4318000D03*
X15748000Y43942000D03*
X15748000Y41783000D03*
X11938000Y18161000D03*
X23622000Y17106950D03*
X21844000Y17145000D03*
X31750000Y43180000D03*
X29845000Y43180000D03*
X40640000Y22479000D03*
X40640000Y20701000D03*
X9779000Y16256000D03*
X14351000Y1294000D03*
X11811000Y1294000D03*
X16891000Y5461000D03*
X26670000Y35052000D03*
X40767000Y36195000D03*
X40767000Y35052000D03*
G04 #@! TO.N,/VIN*
X10033000Y40640000D03*
D39*
G04 #@! TO.N,/VRF*
X38874000Y25146000D03*
D37*
X37297360Y17780000D03*
X37338000Y18923000D03*
D39*
X38711000Y31242000D03*
D37*
X37297360Y17780000D03*
X37338000Y16764000D03*
X34459000Y32512000D03*
X37719000Y30099000D03*
D39*
G04 #@! TO.N,/VCC*
X35826000Y23876000D03*
X26150000Y24638000D03*
D37*
X30532015Y30659015D03*
D39*
X35826000Y25146000D03*
D37*
X24765000Y21209000D03*
D39*
X36494910Y30005013D03*
X30988000Y21578000D03*
D37*
X30607000Y36195000D03*
X29845000Y36195000D03*
X28956000Y36195000D03*
G04 #@! TO.N,GND*
X26718782Y36185304D03*
D38*
G04 #@! TO.N,/MUX*
X33941998Y28412000D03*
X17526000Y24564500D03*
G04 #@! TO.N,/RAMPDIR*
X26928043Y28185914D03*
G04 #@! TO.N,/RAMPCLK*
X26670000Y28702000D03*
G04 #@! TO.N,/SCK*
X33528000Y26416000D03*
G04 #@! TO.N,/SDI*
X33941998Y26912000D03*
G04 #@! TO.N,/CSB*
X31738000Y29162000D03*
G04 #@! TO.N,/CE*
X26670000Y21844000D03*
D37*
G04 #@! TO.N,/SYNC*
X29604002Y21320492D03*
G04 #@! TO.N,/3V3*
X26797000Y17780000D03*
X12446000Y33274000D03*
X11811000Y28321000D03*
X11811000Y29591000D03*
X17526000Y21752980D03*
X12446000Y32385000D03*
X12446000Y34163000D03*
X26797000Y18923000D03*
X26797000Y16764000D03*
X18796000Y36576000D03*
X18796000Y37973000D03*
X18796000Y35306000D03*
G04 #@! TO.N,/RFA_BIAS*
X32512000Y32470000D03*
G04 #@! TO.N,/RFB_BIAS*
X37169000Y27686000D03*
D38*
G04 #@! TO.N,/VTUNE*
X27988000Y26412000D03*
G04 #@! TO.N,/CPOUT*
X34532000Y24389000D03*
D37*
G04 #@! TO.N,/5V*
X19982180Y10033000D03*
X17145000Y29591000D03*
X10795000Y23011980D03*
X20574000Y14478000D03*
X22733000Y14351000D03*
X19939000Y8890000D03*
X19939000Y11303000D03*
X23622000Y14351000D03*
X21844000Y14351000D03*
G04 #@! TO.N,/9V*
X22098000Y37211000D03*
X36068000Y37211000D03*
X35052000Y37743000D03*
X20955000Y37743000D03*
D38*
G04 #@! TO.N,Net-(U3-Pad28)*
X29718000Y29845000D03*
G04 #@! TD*
D40*
G04 #@! TO.N,GND*
X30713000Y25287000D02*
X30738000Y25287000D01*
X30338000Y25512000D02*
X30338000Y25287000D01*
X31638000Y26812000D02*
X31638000Y27037000D01*
X32013000Y24912000D02*
X31638000Y25287000D01*
X31238000Y24887000D02*
X31638000Y25287000D01*
X30738000Y25287000D02*
X31638000Y25287000D01*
X30238000Y24787000D02*
X30738000Y25287000D01*
D41*
X30338000Y27037000D02*
X30338000Y27222979D01*
X30338000Y27222979D02*
X29972000Y27588979D01*
X29972000Y27178000D02*
X29972000Y27559000D01*
X30607000Y27559000D02*
X31242000Y27559000D01*
X30338000Y27037000D02*
X30338000Y27290000D01*
X30338000Y27290000D02*
X30607000Y27559000D01*
X31638000Y25512000D02*
X29972000Y27178000D01*
X31638000Y25287000D02*
X31638000Y25512000D01*
X31638000Y27037000D02*
X31638000Y27320000D01*
X31638000Y27320000D02*
X31877000Y27559000D01*
D40*
X32244000Y25287000D02*
X32101999Y25429001D01*
X32101999Y25429001D02*
X31877000Y25654000D01*
X32905000Y25412000D02*
X32780000Y25287000D01*
X32780000Y25287000D02*
X32244000Y25287000D01*
X33988000Y25412000D02*
X32905000Y25412000D01*
X30238000Y23162000D02*
X30238000Y23864000D01*
X30607000Y24233000D02*
X30607000Y25019000D01*
X30238000Y23864000D02*
X30607000Y24233000D01*
X28702000Y28348000D02*
X28702000Y28321000D01*
X28638000Y28412000D02*
X28702000Y28348000D01*
X27988000Y28412000D02*
X28638000Y28412000D01*
X28638000Y26912000D02*
X28702000Y26848000D01*
X27988000Y26912000D02*
X28638000Y26912000D01*
X27988000Y24412000D02*
X28674000Y24412000D01*
X28674000Y24412000D02*
X28674000Y24523000D01*
X28674000Y24523000D02*
X29438000Y25287000D01*
X29438000Y25287000D02*
X30338000Y25287000D01*
X28638000Y23912000D02*
X28702000Y23976000D01*
X27988000Y23912000D02*
X28638000Y23912000D01*
X29238000Y23467000D02*
X29210000Y23495000D01*
X29210000Y23495000D02*
X29210000Y24003000D01*
X29279000Y24003000D02*
X30338000Y25062000D01*
X29210000Y24003000D02*
X29279000Y24003000D01*
X29238000Y23162000D02*
X29238000Y23467000D01*
X31238000Y23812000D02*
X31242000Y23816000D01*
X31238000Y23162000D02*
X31238000Y23812000D01*
X33988000Y24912000D02*
X33040000Y24912000D01*
X32933000Y25019000D02*
X31877000Y25019000D01*
X33040000Y24912000D02*
X32933000Y25019000D01*
X31238000Y29162000D02*
X31238000Y28325000D01*
X31238000Y28325000D02*
X31475000Y28325000D01*
X31475000Y28325000D02*
X31638000Y28162000D01*
X31638000Y28162000D02*
X31638000Y27037000D01*
X29557987Y32569910D02*
X29090949Y32569910D01*
X30338000Y27262000D02*
X30338000Y27037000D01*
X29188000Y28412000D02*
X30338000Y27262000D01*
X28638000Y28412000D02*
X29188000Y28412000D01*
X28763000Y27037000D02*
X30338000Y27037000D01*
X28638000Y26912000D02*
X28763000Y27037000D01*
X30338000Y25062000D02*
X30338000Y25287000D01*
X29188000Y23912000D02*
X30338000Y25062000D01*
X28638000Y23912000D02*
X29188000Y23912000D01*
X31638000Y24162000D02*
X31638000Y25287000D01*
X31288000Y23812000D02*
X31638000Y24162000D01*
X31238000Y23812000D02*
X31288000Y23812000D01*
D42*
X19304000Y30416000D02*
X16446000Y33274000D01*
X19304000Y29718000D02*
X19304000Y30416000D01*
X14859000Y43966000D02*
X14859000Y42926000D01*
X14859000Y42926000D02*
X14859000Y41735000D01*
D43*
X24019000Y38336000D02*
X24164000Y38191000D01*
X24019000Y39116000D02*
X24019000Y38336000D01*
X24519000Y38546000D02*
X24164000Y38191000D01*
X24519000Y39116000D02*
X24519000Y38546000D01*
X24019000Y38046000D02*
X24164000Y38191000D01*
X24019000Y37266000D02*
X24019000Y38046000D01*
X24519000Y37836000D02*
X24164000Y38191000D01*
X24519000Y37266000D02*
X24519000Y37836000D01*
X23198000Y37225000D02*
X24164000Y38191000D01*
X23198000Y37211000D02*
X23198000Y37225000D01*
X22987000Y37422000D02*
X23198000Y37211000D01*
X22987000Y38143000D02*
X22987000Y37422000D01*
X22098000Y38143000D02*
X22987000Y38143000D01*
X24874000Y38191000D02*
X24519000Y38546000D01*
X38169000Y38143000D02*
X38253000Y38227000D01*
X37084000Y38143000D02*
X38169000Y38143000D01*
X38108000Y38082000D02*
X38253000Y38227000D01*
X38108000Y37302000D02*
X38108000Y38082000D01*
X38608000Y37872000D02*
X38963000Y38227000D01*
X38608000Y37302000D02*
X38608000Y37872000D01*
X38108000Y38372000D02*
X38253000Y38227000D01*
X38108000Y39152000D02*
X38108000Y38372000D01*
X38608000Y38582000D02*
X38253000Y38227000D01*
X38608000Y39152000D02*
X38608000Y38582000D01*
D44*
X10160000Y18128000D02*
X11938000Y18128000D01*
X11938000Y18128000D02*
X13716000Y18128000D01*
D42*
X9398000Y25424000D02*
X9398000Y24765000D01*
X9398000Y24765000D02*
X9397376Y24764376D01*
D43*
X24019000Y39116000D02*
X24257000Y39116000D01*
X24019000Y37266000D02*
X24044998Y37266000D01*
X24044998Y37266000D02*
X24257000Y37478002D01*
X38108000Y37302000D02*
X38318000Y37302000D01*
X38318000Y37302000D02*
X38354000Y37338000D01*
X38108000Y39152000D02*
X38263000Y39152000D01*
X38263000Y39152000D02*
X38354000Y39243000D01*
D42*
X15065500Y27098500D02*
X14478000Y27686000D01*
X15065500Y27098500D02*
X14176500Y27098500D01*
X14176500Y27098500D02*
X13589000Y27686000D01*
X13890500Y27098500D02*
X13589000Y26797000D01*
X15065500Y27098500D02*
X14779500Y27098500D01*
X14779500Y27098500D02*
X14478000Y26797000D01*
X15065500Y27098500D02*
X15367000Y26797000D01*
X15065500Y27098500D02*
X15065500Y28273500D01*
X15065500Y28273500D02*
X15367000Y28575000D01*
X13890500Y27098500D02*
X13890500Y28273500D01*
X13890500Y28273500D02*
X13589000Y28575000D01*
X16446000Y33274000D02*
X16446000Y32448000D01*
X16446000Y32448000D02*
X16383000Y32385000D01*
X16446000Y33274000D02*
X16446000Y34100000D01*
X16446000Y34100000D02*
X16383000Y34163000D01*
X19729000Y45879000D02*
X19729000Y43986000D01*
X19729000Y43986000D02*
X19685000Y43942000D01*
X19729000Y45879000D02*
X19729000Y47581000D01*
X19729000Y47581000D02*
X19685000Y47625000D01*
X25229000Y45879000D02*
X25229000Y47581000D01*
X25229000Y47581000D02*
X25273000Y47625000D01*
X25273000Y46736000D02*
X25273000Y44958000D01*
X15518000Y26646000D02*
X15367000Y26797000D01*
X15518000Y23622000D02*
X15518000Y26646000D01*
X39414000Y45879000D02*
X39414000Y47581000D01*
X39414000Y47581000D02*
X39370000Y47625000D01*
X39370000Y43942000D02*
X39370000Y44958000D01*
X44914000Y45879000D02*
X44914000Y47581000D01*
X44914000Y47581000D02*
X44958000Y47625000D01*
X44958000Y43942000D02*
X44958000Y44958000D01*
X45752000Y40088000D02*
X47581000Y40088000D01*
X47581000Y40088000D02*
X47625000Y40132000D01*
X46736000Y40132000D02*
X43942000Y40132000D01*
X45752000Y34588000D02*
X47581000Y34588000D01*
X47581000Y34588000D02*
X47625000Y34544000D01*
X43942000Y34544000D02*
X44831000Y34544000D01*
X45879000Y20784000D02*
X47581000Y20784000D01*
X47581000Y20784000D02*
X47625000Y20828000D01*
X43942000Y20828000D02*
X44831000Y20828000D01*
X45879000Y15284000D02*
X47581000Y15284000D01*
X47581000Y15284000D02*
X47625000Y15240000D01*
X46736000Y15240000D02*
X44831000Y15240000D01*
X44914000Y2508000D02*
X44914000Y679000D01*
X44914000Y679000D02*
X44958000Y635000D01*
X44958000Y635000D02*
X44958000Y1524000D01*
X44958000Y4318000D02*
X44958000Y3429000D01*
X39370000Y635000D02*
X39370000Y1524000D01*
X39370000Y3429000D02*
X39370000Y4318000D01*
X25400000Y635000D02*
X25400000Y1524000D01*
X25400000Y4318000D02*
X25400000Y3429000D01*
X19685000Y635000D02*
X19685000Y1524000D01*
X19685000Y3429000D02*
X19685000Y4318000D01*
X14859000Y43966000D02*
X15724000Y43966000D01*
X15724000Y43966000D02*
X15748000Y43942000D01*
X14859000Y41735000D02*
X15700000Y41735000D01*
X15700000Y41735000D02*
X15748000Y41783000D01*
D45*
X14859000Y43966000D02*
X14859000Y41656000D01*
X12192000Y42926000D02*
X14859000Y42926000D01*
D42*
X11938000Y18128000D02*
X11938000Y18161000D01*
X9791000Y16256000D02*
X9779000Y16256000D01*
X26681000Y35052000D02*
X26670000Y35052000D01*
X40778000Y36195000D02*
X40767000Y36195000D01*
X40778000Y35052000D02*
X40767000Y35052000D01*
D45*
G04 #@! TO.N,/VIN*
X13843000Y38735000D02*
X12192000Y40386000D01*
X14859000Y38735000D02*
X13843000Y38735000D01*
D42*
G04 #@! TO.N,/VRF*
X37297360Y16804640D02*
X37338000Y16764000D01*
D40*
G04 #@! TO.N,/VCC*
X26924000Y25412000D02*
X27988000Y25412000D01*
X26150000Y24638000D02*
X26924000Y25412000D01*
X35790000Y23912000D02*
X35826000Y23876000D01*
X33988000Y23912000D02*
X35790000Y23912000D01*
X31738000Y23162000D02*
X31738000Y22328000D01*
X31508000Y22098000D02*
X30988000Y21578000D01*
X31738000Y22328000D02*
X31508000Y22098000D01*
X30738000Y30578103D02*
X30132013Y31184090D01*
X30738000Y29162000D02*
X30738000Y30578103D01*
X30132013Y31184090D02*
X30132013Y31059017D01*
X30132013Y31059017D02*
X30532015Y30659015D01*
D43*
X35060000Y25912000D02*
X35826000Y25146000D01*
X33988000Y25912000D02*
X35060000Y25912000D01*
D40*
X24777000Y22098000D02*
X24777000Y21221000D01*
X24777000Y21221000D02*
X24765000Y21209000D01*
D44*
X24365001Y20809001D02*
X22206001Y20809001D01*
X24765000Y21209000D02*
X24365001Y20809001D01*
X22206001Y20809001D02*
X20447000Y19050000D01*
X20447000Y19050000D02*
X18796000Y19050000D01*
X18796000Y19050000D02*
X16383000Y16637000D01*
X16383000Y16637000D02*
X15494000Y16637000D01*
D46*
X15494000Y16637000D02*
X12319000Y16637000D01*
D42*
X12319000Y16637000D02*
X11684000Y16637000D01*
X11684000Y16637000D02*
X11303000Y16256000D01*
X12317000Y16637000D02*
X12319000Y16637000D01*
X11811000Y16131000D02*
X12317000Y16637000D01*
X11811000Y14361000D02*
X11811000Y16131000D01*
D43*
G04 #@! TO.N,Net-(C17-Pad1)*
X25019000Y37266000D02*
X25019000Y36195000D01*
D42*
G04 #@! TO.N,GND*
X26681000Y36195000D02*
X26709086Y36195000D01*
X26709086Y36195000D02*
X26718782Y36185304D01*
D43*
G04 #@! TO.N,Net-(C17-Pad1)*
X25019000Y36195000D02*
X25781000Y36195000D01*
G04 #@! TO.N,Net-(C20-Pad1)*
X39108000Y36203000D02*
X39116000Y36195000D01*
X39108000Y37302000D02*
X39108000Y36203000D01*
X39116000Y36195000D02*
X39878000Y36195000D01*
G04 #@! TO.N,Net-(C26-Pad1)*
X44079000Y18034000D02*
X45879000Y18034000D01*
X42291000Y19822000D02*
X44079000Y18034000D01*
X42291000Y22056000D02*
X42291000Y19822000D01*
D40*
G04 #@! TO.N,Net-(C32-Pad1)*
X33238000Y22122000D02*
X33782000Y21578000D01*
X33238000Y23162000D02*
X33238000Y22122000D01*
D43*
G04 #@! TO.N,Net-(C33-Pad1)*
X43952000Y37338000D02*
X45752000Y37338000D01*
X42291000Y35677000D02*
X43952000Y37338000D01*
X42291000Y33316000D02*
X42291000Y35677000D01*
D40*
G04 #@! TO.N,Net-(C34-Pad1)*
X27984000Y25908000D02*
X27988000Y25912000D01*
X26150000Y25908000D02*
X27984000Y25908000D01*
G04 #@! TO.N,Net-(C35-Pad1)*
X27262999Y24836999D02*
X27338000Y24912000D01*
X27262999Y24443999D02*
X27262999Y24836999D01*
X27338000Y24912000D02*
X27988000Y24912000D01*
X26187000Y23368000D02*
X27262999Y24443999D01*
X26162000Y23368000D02*
X26187000Y23368000D01*
D47*
G04 #@! TO.N,Net-(C36-Pad1)*
X28603602Y29791501D02*
X27968869Y30426234D01*
X29046601Y29791501D02*
X28603602Y29791501D01*
X27968869Y30426234D02*
X27592013Y30803090D01*
X29238000Y29600102D02*
X29046601Y29791501D01*
X29238000Y29162000D02*
X29238000Y29600102D01*
D40*
G04 #@! TO.N,Net-(C37-Pad1)*
X29738000Y22626000D02*
X28702000Y21590000D01*
X29738000Y23162000D02*
X29738000Y22626000D01*
G04 #@! TO.N,Net-(C38-Pad1)*
X29365869Y30426234D02*
X28989013Y30803090D01*
X29842728Y30426234D02*
X29365869Y30426234D01*
X30238000Y30030962D02*
X29842728Y30426234D01*
X30238000Y29162000D02*
X30238000Y30030962D01*
G04 #@! TO.N,Net-(C39-Pad1)*
X27968000Y27432000D02*
X27988000Y27412000D01*
X26150000Y27432000D02*
X27968000Y27432000D01*
D43*
G04 #@! TO.N,Net-(C40-Pad1)*
X31750000Y14236000D02*
X31762000Y14224000D01*
X31750000Y15760000D02*
X31750000Y14236000D01*
X31762000Y14224000D02*
X30468000Y14224000D01*
X31762000Y12449508D02*
X26805492Y7493000D01*
X26670000Y7493000D02*
X26150000Y6973000D01*
X26805492Y7493000D02*
X26670000Y7493000D01*
X31729900Y13621100D02*
X30398100Y13621100D01*
X31762000Y13589000D02*
X31729900Y13621100D01*
X29731000Y12954000D02*
X29706000Y12954000D01*
X31762000Y13589000D02*
X31762000Y12449508D01*
X30398100Y13621100D02*
X29731000Y12954000D01*
X31762000Y14224000D02*
X31762000Y13589000D01*
G04 #@! TO.N,Net-(C40-Pad2)*
X22606000Y4954000D02*
X24625000Y6973000D01*
X24625000Y6973000D02*
X24650000Y6973000D01*
X22606000Y2508000D02*
X22606000Y4954000D01*
G04 #@! TO.N,Net-(C42-Pad1)*
X33274000Y14236000D02*
X33262000Y14224000D01*
X33274000Y15760000D02*
X33274000Y14236000D01*
X38595000Y6985000D02*
X38620000Y6985000D01*
X33262000Y12318000D02*
X38595000Y6985000D01*
X33262000Y14224000D02*
X34544000Y14224000D01*
X33262000Y14224000D02*
X33262000Y12954000D01*
X32500000Y12954000D02*
X33262000Y12954000D01*
X33262000Y12954000D02*
X33262000Y12318000D01*
G04 #@! TO.N,Net-(C42-Pad2)*
X40145000Y6985000D02*
X40120000Y6985000D01*
X42164000Y4966000D02*
X40145000Y6985000D01*
X42164000Y2508000D02*
X42164000Y4966000D01*
D42*
G04 #@! TO.N,Net-(D1-Pad2)*
X15506000Y20828000D02*
X13716000Y20828000D01*
G04 #@! TO.N,Net-(D2-Pad2)*
X7644000Y20828000D02*
X7366000Y20550000D01*
X10160000Y20828000D02*
X7644000Y20828000D01*
G04 #@! TO.N,Net-(D3-Pad2)*
X11938000Y22078000D02*
X11938000Y20828000D01*
X12085000Y22225000D02*
X11938000Y22078000D01*
X15494000Y22225000D02*
X12085000Y22225000D01*
D43*
G04 #@! TO.N,/MUX*
X33988000Y28412000D02*
X33941998Y28412000D01*
D40*
X18178001Y21440019D02*
X17565982Y20828000D01*
X18178001Y23594301D02*
X18178001Y21440019D01*
X17526000Y24564500D02*
X17526000Y24246302D01*
X17526000Y24246302D02*
X18178001Y23594301D01*
X17565982Y20828000D02*
X17018000Y20828000D01*
D47*
G04 #@! TO.N,/RAMPDIR*
X27988000Y27912000D02*
X27201957Y27912000D01*
X27201957Y27912000D02*
X26928043Y28185914D01*
G04 #@! TO.N,/RAMPCLK*
X28738000Y29162000D02*
X27130000Y29162000D01*
X27130000Y29162000D02*
X26670000Y28702000D01*
D43*
G04 #@! TO.N,/SCK*
X33988000Y26412000D02*
X33532000Y26412000D01*
X33532000Y26412000D02*
X33528000Y26416000D01*
G04 #@! TO.N,/SDI*
X33988000Y26912000D02*
X33941998Y26912000D01*
D47*
G04 #@! TO.N,/CE*
X27988000Y23162000D02*
X26670000Y21844000D01*
X28738000Y23162000D02*
X27988000Y23162000D01*
D40*
X26416000Y22098000D02*
X26670000Y21844000D01*
X26277000Y22098000D02*
X26416000Y22098000D01*
D43*
G04 #@! TO.N,/SYNC*
X30738000Y23162000D02*
X30738000Y22594492D01*
X30738000Y22594492D02*
X29604002Y21320492D01*
X29604002Y21320492D02*
X29464000Y21320492D01*
D42*
G04 #@! TO.N,/3V3*
X12446000Y30259000D02*
X11778000Y29591000D01*
X12446000Y33274000D02*
X12446000Y30259000D01*
X11778000Y29591000D02*
X11778000Y28321000D01*
X11778000Y28321000D02*
X11811000Y28321000D01*
X11778000Y29591000D02*
X11811000Y29591000D01*
X16994000Y22225000D02*
X17053980Y22225000D01*
X17053980Y22225000D02*
X17526000Y21752980D01*
D44*
X12446000Y33024000D02*
X12446000Y33274000D01*
X9946000Y29851508D02*
X9946000Y30524000D01*
X3970492Y23876000D02*
X9946000Y29851508D01*
X9946000Y30524000D02*
X12446000Y33024000D01*
X3556000Y23876000D02*
X3970492Y23876000D01*
D42*
X12446000Y33274000D02*
X12446000Y32385000D01*
X12446000Y33274000D02*
X12446000Y34163000D01*
G04 #@! TO.N,/RFA_BIAS*
X32512000Y32470000D02*
X32512000Y31750000D01*
X32570000Y31692000D02*
X32512000Y31750000D01*
X32893000Y31692000D02*
X32570000Y31692000D01*
X32454000Y31692000D02*
X32512000Y31750000D01*
X32131000Y31692000D02*
X32454000Y31692000D01*
G04 #@! TO.N,/RFB_BIAS*
X36391000Y28067000D02*
X36391000Y27686000D01*
X37169000Y27686000D02*
X36391000Y27686000D01*
X36391000Y27686000D02*
X36391000Y27305000D01*
D43*
G04 #@! TO.N,/CPOUT*
X34509000Y24412000D02*
X34532000Y24389000D01*
X33988000Y24412000D02*
X34509000Y24412000D01*
G04 #@! TO.N,/RFOUT_A_P*
X32031000Y30792000D02*
X31496000Y31327000D01*
X32131000Y30792000D02*
X32031000Y30792000D01*
X25019000Y34502900D02*
X25612900Y33909000D01*
X25019000Y35095000D02*
X25019000Y34502900D01*
X25612900Y33909000D02*
X30988000Y33909000D01*
X30988000Y33909000D02*
X31496000Y33401000D01*
X31496000Y31327000D02*
X31496000Y33401000D01*
X32238000Y29678492D02*
X32238000Y29162000D01*
X32131000Y29785492D02*
X32238000Y29678492D01*
X32131000Y30861000D02*
X32131000Y29785492D01*
X25019000Y35095000D02*
X25738000Y35095000D01*
X25738000Y35095000D02*
X25781000Y35052000D01*
G04 #@! TO.N,/RFOUT_A_N*
X32893000Y29922000D02*
X32893000Y30861000D01*
X32893000Y29833492D02*
X32893000Y29922000D01*
X32738000Y29678492D02*
X32893000Y29833492D01*
X32738000Y29162000D02*
X32738000Y29678492D01*
X32993000Y30792000D02*
X32893000Y30792000D01*
X33528000Y31327000D02*
X32993000Y30792000D01*
X34036000Y33909000D02*
X33528000Y33401000D01*
X33528000Y33401000D02*
X33528000Y31327000D01*
X38522100Y33909000D02*
X34036000Y33909000D01*
X39116000Y34502900D02*
X38522100Y33909000D01*
X39116000Y35095000D02*
X39116000Y34502900D01*
X39116000Y35095000D02*
X39835000Y35095000D01*
X39835000Y35095000D02*
X39878000Y35052000D01*
G04 #@! TO.N,/RFOUT_B_N*
X42291000Y23156000D02*
X42291000Y25400000D01*
X34564000Y27412000D02*
X33988000Y27412000D01*
X35491000Y27305000D02*
X34671000Y27305000D01*
X34671000Y27305000D02*
X34564000Y27412000D01*
X35491000Y27205000D02*
X36026000Y26670000D01*
X35491000Y27305000D02*
X35491000Y27205000D01*
X36026000Y26670000D02*
X41402000Y26670000D01*
X42291000Y25400000D02*
X42291000Y25781000D01*
X41402000Y26670000D02*
X42291000Y25781000D01*
G04 #@! TO.N,/RFOUT_B_P*
X42291000Y29718000D02*
X42291000Y32216000D01*
X35491000Y28067000D02*
X34671000Y28067000D01*
X34516000Y27912000D02*
X33988000Y27912000D01*
X34671000Y28067000D02*
X34516000Y27912000D01*
X35491000Y28167000D02*
X36153000Y28829000D01*
X35491000Y28067000D02*
X35491000Y28167000D01*
X36153000Y28829000D02*
X41402000Y28829000D01*
X41402000Y28829000D02*
X42291000Y29718000D01*
D47*
G04 #@! TO.N,/OSCIN_P*
X32238000Y21906050D02*
X32238000Y23162000D01*
X32175950Y21844000D02*
X32238000Y21906050D01*
D43*
X32175950Y17685950D02*
X31750000Y17260000D01*
X32175950Y21844000D02*
X32175950Y17685950D01*
G04 #@! TO.N,/OSCIN_N*
X32848050Y17640802D02*
X32848050Y21844000D01*
D47*
X32738000Y21954050D02*
X32738000Y23162000D01*
X32848050Y21844000D02*
X32738000Y21954050D01*
D43*
X32893198Y17640802D02*
X33274000Y17260000D01*
X32848050Y17640802D02*
X32893198Y17640802D01*
G04 #@! TO.N,Net-(C19-Pad2)*
X33238000Y29313897D02*
X34371090Y30446987D01*
X33238000Y29162000D02*
X33238000Y29313897D01*
X35109090Y29708987D02*
X34371090Y30446987D01*
X35109090Y29430987D02*
X35109090Y29708987D01*
X36543900Y31909100D02*
X37211000Y31242000D01*
X34747946Y31104655D02*
X35552391Y31909100D01*
X35552391Y31909100D02*
X36543900Y31909100D01*
X34747946Y30823843D02*
X34747946Y31104655D01*
X34371090Y30446987D02*
X34747946Y30823843D01*
D42*
G04 #@! TO.N,/5V_unfilt*
X7112000Y18796000D02*
X7366000Y19050000D01*
X3556000Y18796000D02*
X7112000Y18796000D01*
G04 #@! TO.N,/5V*
X17178000Y29591000D02*
X17145000Y29591000D01*
G04 #@! TO.N,Net-(C9-Pad1)*
X11811000Y5461000D02*
X11811000Y2794000D01*
G04 #@! TO.N,/9V*
X13692000Y46966000D02*
X12192000Y45466000D01*
X14859000Y46966000D02*
X13692000Y46966000D01*
D43*
X21487000Y37211000D02*
X20955000Y37743000D01*
X22098000Y37211000D02*
X21487000Y37211000D01*
X35536000Y37743000D02*
X36068000Y37211000D01*
X35052000Y37743000D02*
X35536000Y37743000D01*
D45*
X12954000Y45466000D02*
X14478000Y46990000D01*
X12192000Y45466000D02*
X12954000Y45466000D01*
X14478000Y46990000D02*
X14732000Y46990000D01*
D42*
G04 #@! TO.N,Net-(C16-Pad1)*
X19201000Y28321000D02*
X19304000Y28218000D01*
X17178000Y28321000D02*
X19201000Y28321000D01*
G04 #@! TO.N,Net-(C44-Pad1)*
X17178000Y27051000D02*
X17178000Y25814000D01*
X17178000Y25814000D02*
X17145000Y25781000D01*
X16923999Y23716001D02*
X16923999Y25559999D01*
X17018000Y23622000D02*
X16923999Y23716001D01*
X16923999Y25559999D02*
X17145000Y25781000D01*
G04 #@! TO.N,Net-(C45-Pad1)*
X11651000Y26924000D02*
X11778000Y27051000D01*
X9398000Y26924000D02*
X11651000Y26924000D01*
D43*
G04 #@! TO.N,Net-(C51-Pad1)*
X22479000Y43222900D02*
X22479000Y47879000D01*
X24426900Y41275000D02*
X22479000Y43222900D01*
X25019000Y41275000D02*
X24426900Y41275000D01*
G04 #@! TO.N,Net-(C50-Pad2)*
X20955000Y39243000D02*
X22098000Y39243000D01*
X22098000Y39243000D02*
X22987000Y39243000D01*
X22987000Y39243000D02*
X22987000Y40259000D01*
G04 #@! TO.N,Net-(C51-Pad2)*
X25019000Y39116000D02*
X25019000Y40175000D01*
X24171000Y40175000D02*
X24087000Y40259000D01*
X25019000Y40175000D02*
X24171000Y40175000D01*
G04 #@! TO.N,Net-(C52-Pad2)*
X35052000Y39243000D02*
X36195000Y39243000D01*
X36195000Y39243000D02*
X37084000Y39243000D01*
X37084000Y39243000D02*
X37084000Y40259000D01*
G04 #@! TO.N,Net-(C53-Pad2)*
X39108000Y40209000D02*
X39116000Y40217000D01*
X39108000Y39152000D02*
X39108000Y40209000D01*
X39074000Y40259000D02*
X39116000Y40217000D01*
X38184000Y40259000D02*
X39074000Y40259000D01*
G04 #@! TO.N,Net-(C53-Pad1)*
X42164000Y43829000D02*
X39652000Y41317000D01*
X39652000Y41317000D02*
X39116000Y41317000D01*
X42164000Y45879000D02*
X42164000Y43829000D01*
D42*
G04 #@! TO.N,Net-(R6-Pad1)*
X14351000Y5461000D02*
X14351000Y2794000D01*
D43*
G04 #@! TO.N,Net-(R10-Pad2)*
X28206000Y12954000D02*
X19182000Y12954000D01*
X19182000Y12954000D02*
X18288000Y12954000D01*
X18288000Y12954000D02*
X16891000Y14351000D01*
G04 #@! TO.N,Net-(R24-Pad2)*
X30326949Y12305949D02*
X16655051Y12305949D01*
X30975000Y12954000D02*
X30326949Y12305949D01*
X31000000Y12954000D02*
X30975000Y12954000D01*
X16655051Y12305949D02*
X16396051Y12305949D01*
X16396051Y12305949D02*
X14351000Y14351000D01*
D42*
G04 #@! TO.N,Net-(R27-Pad1)*
X10795000Y24798000D02*
X11778000Y25781000D01*
X10795000Y24499000D02*
X10795000Y24798000D01*
D40*
G04 #@! TO.N,Net-(U3-Pad28)*
X29738000Y29162000D02*
X29738000Y29825000D01*
X29738000Y29825000D02*
X29718000Y29845000D01*
G04 #@! TD*
D48*
G04 #@! TO.N,GND*
G36*
X31513894Y28522737D02*
X31613000Y28503024D01*
X31863000Y28503024D01*
X31962106Y28522737D01*
X31988000Y28540039D01*
X32013894Y28522737D01*
X32113000Y28503024D01*
X32363000Y28503024D01*
X32462106Y28522737D01*
X32488000Y28540039D01*
X32513894Y28522737D01*
X32613000Y28503024D01*
X32863000Y28503024D01*
X32962106Y28522737D01*
X32988000Y28540039D01*
X33013894Y28522737D01*
X33113000Y28503024D01*
X33329024Y28503024D01*
X33329024Y28287000D01*
X33348737Y28187894D01*
X33366039Y28162000D01*
X33348737Y28136106D01*
X33329024Y28037000D01*
X33329024Y27787000D01*
X33348737Y27687894D01*
X33366039Y27662000D01*
X33348737Y27636106D01*
X33329024Y27537000D01*
X33329024Y27287000D01*
X33348737Y27187894D01*
X33366039Y27162000D01*
X33348737Y27136106D01*
X33329024Y27037000D01*
X33329024Y26852047D01*
X33256668Y26822076D01*
X33121924Y26687332D01*
X33049000Y26511279D01*
X33049000Y26320721D01*
X33121924Y26144668D01*
X33256668Y26009924D01*
X33329024Y25979953D01*
X33329024Y25787000D01*
X33348737Y25687894D01*
X33401000Y25609677D01*
X33401000Y24714323D01*
X33348737Y24636106D01*
X33329024Y24537000D01*
X33329024Y24287000D01*
X33348737Y24187894D01*
X33366039Y24162000D01*
X33348737Y24136106D01*
X33329024Y24037000D01*
X33329024Y23820976D01*
X33113000Y23820976D01*
X33013894Y23801263D01*
X32988000Y23783961D01*
X32962106Y23801263D01*
X32863000Y23820976D01*
X32613000Y23820976D01*
X32513894Y23801263D01*
X32488000Y23783961D01*
X32462106Y23801263D01*
X32363000Y23820976D01*
X32113000Y23820976D01*
X32013894Y23801263D01*
X31988000Y23783961D01*
X31962106Y23801263D01*
X31863000Y23820976D01*
X31613000Y23820976D01*
X31513894Y23801263D01*
X31435677Y23749000D01*
X31040323Y23749000D01*
X30962106Y23801263D01*
X30863000Y23820976D01*
X30613000Y23820976D01*
X30513894Y23801263D01*
X30435677Y23749000D01*
X30040323Y23749000D01*
X29962106Y23801263D01*
X29863000Y23820976D01*
X29613000Y23820976D01*
X29513894Y23801263D01*
X29435677Y23749000D01*
X29040323Y23749000D01*
X28962106Y23801263D01*
X28863000Y23820976D01*
X28613000Y23820976D01*
X28575000Y23813417D01*
X28575000Y24609677D01*
X28627263Y24687894D01*
X28646976Y24787000D01*
X28646976Y25037000D01*
X28628826Y25128250D01*
X29561000Y25128250D01*
X29561000Y24386738D01*
X29580335Y24340060D01*
X29616060Y24304335D01*
X29662738Y24285000D01*
X30179250Y24285000D01*
X30211000Y24316750D01*
X30211000Y25160000D01*
X30465000Y25160000D01*
X30465000Y24316750D01*
X30496750Y24285000D01*
X31479250Y24285000D01*
X31511000Y24316750D01*
X31511000Y25160000D01*
X31765000Y25160000D01*
X31765000Y24316750D01*
X31796750Y24285000D01*
X32313262Y24285000D01*
X32359940Y24304335D01*
X32395665Y24340060D01*
X32415000Y24386738D01*
X32415000Y25128250D01*
X32383250Y25160000D01*
X31765000Y25160000D01*
X31511000Y25160000D01*
X30465000Y25160000D01*
X30211000Y25160000D01*
X29592750Y25160000D01*
X29561000Y25128250D01*
X28628826Y25128250D01*
X28627263Y25136106D01*
X28609961Y25162000D01*
X28627263Y25187894D01*
X28646976Y25287000D01*
X28646976Y25537000D01*
X28627263Y25636106D01*
X28609961Y25662000D01*
X28627263Y25687894D01*
X28646976Y25787000D01*
X28646976Y26037000D01*
X28627263Y26136106D01*
X28609961Y26162000D01*
X28627263Y26187894D01*
X28646976Y26287000D01*
X28646976Y26537000D01*
X28627263Y26636106D01*
X28575000Y26714323D01*
X28575000Y26878250D01*
X29561000Y26878250D01*
X29561000Y25445750D01*
X29592750Y25414000D01*
X30211000Y25414000D01*
X30211000Y26910000D01*
X30465000Y26910000D01*
X30465000Y25414000D01*
X31511000Y25414000D01*
X31511000Y26910000D01*
X31765000Y26910000D01*
X31765000Y25414000D01*
X32383250Y25414000D01*
X32415000Y25445750D01*
X32415000Y26878250D01*
X32383250Y26910000D01*
X31765000Y26910000D01*
X31511000Y26910000D01*
X30465000Y26910000D01*
X30211000Y26910000D01*
X29592750Y26910000D01*
X29561000Y26878250D01*
X28575000Y26878250D01*
X28575000Y27109677D01*
X28627263Y27187894D01*
X28646976Y27287000D01*
X28646976Y27537000D01*
X28627263Y27636106D01*
X28609961Y27662000D01*
X28627263Y27687894D01*
X28646976Y27787000D01*
X28646976Y27937262D01*
X29561000Y27937262D01*
X29561000Y27195750D01*
X29592750Y27164000D01*
X30211000Y27164000D01*
X30211000Y28007250D01*
X30465000Y28007250D01*
X30465000Y27164000D01*
X31511000Y27164000D01*
X31511000Y28007250D01*
X31765000Y28007250D01*
X31765000Y27164000D01*
X32383250Y27164000D01*
X32415000Y27195750D01*
X32415000Y27937262D01*
X32395665Y27983940D01*
X32359940Y28019665D01*
X32313262Y28039000D01*
X31796750Y28039000D01*
X31765000Y28007250D01*
X31511000Y28007250D01*
X31479250Y28039000D01*
X30496750Y28039000D01*
X30465000Y28007250D01*
X30211000Y28007250D01*
X30179250Y28039000D01*
X29662738Y28039000D01*
X29616060Y28019665D01*
X29580335Y27983940D01*
X29561000Y27937262D01*
X28646976Y27937262D01*
X28646976Y28037000D01*
X28627263Y28136106D01*
X28575000Y28214323D01*
X28575000Y28510583D01*
X28613000Y28503024D01*
X28863000Y28503024D01*
X28962106Y28522737D01*
X28988000Y28540039D01*
X29013894Y28522737D01*
X29113000Y28503024D01*
X29363000Y28503024D01*
X29462106Y28522737D01*
X29488000Y28540039D01*
X29513894Y28522737D01*
X29613000Y28503024D01*
X29863000Y28503024D01*
X29962106Y28522737D01*
X29988000Y28540039D01*
X30013894Y28522737D01*
X30113000Y28503024D01*
X30363000Y28503024D01*
X30462106Y28522737D01*
X30488000Y28540039D01*
X30513894Y28522737D01*
X30613000Y28503024D01*
X30863000Y28503024D01*
X30962106Y28522737D01*
X31040323Y28575000D01*
X31435677Y28575000D01*
X31513894Y28522737D01*
X31513894Y28522737D01*
G37*
X31513894Y28522737D02*
X31613000Y28503024D01*
X31863000Y28503024D01*
X31962106Y28522737D01*
X31988000Y28540039D01*
X32013894Y28522737D01*
X32113000Y28503024D01*
X32363000Y28503024D01*
X32462106Y28522737D01*
X32488000Y28540039D01*
X32513894Y28522737D01*
X32613000Y28503024D01*
X32863000Y28503024D01*
X32962106Y28522737D01*
X32988000Y28540039D01*
X33013894Y28522737D01*
X33113000Y28503024D01*
X33329024Y28503024D01*
X33329024Y28287000D01*
X33348737Y28187894D01*
X33366039Y28162000D01*
X33348737Y28136106D01*
X33329024Y28037000D01*
X33329024Y27787000D01*
X33348737Y27687894D01*
X33366039Y27662000D01*
X33348737Y27636106D01*
X33329024Y27537000D01*
X33329024Y27287000D01*
X33348737Y27187894D01*
X33366039Y27162000D01*
X33348737Y27136106D01*
X33329024Y27037000D01*
X33329024Y26852047D01*
X33256668Y26822076D01*
X33121924Y26687332D01*
X33049000Y26511279D01*
X33049000Y26320721D01*
X33121924Y26144668D01*
X33256668Y26009924D01*
X33329024Y25979953D01*
X33329024Y25787000D01*
X33348737Y25687894D01*
X33401000Y25609677D01*
X33401000Y24714323D01*
X33348737Y24636106D01*
X33329024Y24537000D01*
X33329024Y24287000D01*
X33348737Y24187894D01*
X33366039Y24162000D01*
X33348737Y24136106D01*
X33329024Y24037000D01*
X33329024Y23820976D01*
X33113000Y23820976D01*
X33013894Y23801263D01*
X32988000Y23783961D01*
X32962106Y23801263D01*
X32863000Y23820976D01*
X32613000Y23820976D01*
X32513894Y23801263D01*
X32488000Y23783961D01*
X32462106Y23801263D01*
X32363000Y23820976D01*
X32113000Y23820976D01*
X32013894Y23801263D01*
X31988000Y23783961D01*
X31962106Y23801263D01*
X31863000Y23820976D01*
X31613000Y23820976D01*
X31513894Y23801263D01*
X31435677Y23749000D01*
X31040323Y23749000D01*
X30962106Y23801263D01*
X30863000Y23820976D01*
X30613000Y23820976D01*
X30513894Y23801263D01*
X30435677Y23749000D01*
X30040323Y23749000D01*
X29962106Y23801263D01*
X29863000Y23820976D01*
X29613000Y23820976D01*
X29513894Y23801263D01*
X29435677Y23749000D01*
X29040323Y23749000D01*
X28962106Y23801263D01*
X28863000Y23820976D01*
X28613000Y23820976D01*
X28575000Y23813417D01*
X28575000Y24609677D01*
X28627263Y24687894D01*
X28646976Y24787000D01*
X28646976Y25037000D01*
X28628826Y25128250D01*
X29561000Y25128250D01*
X29561000Y24386738D01*
X29580335Y24340060D01*
X29616060Y24304335D01*
X29662738Y24285000D01*
X30179250Y24285000D01*
X30211000Y24316750D01*
X30211000Y25160000D01*
X30465000Y25160000D01*
X30465000Y24316750D01*
X30496750Y24285000D01*
X31479250Y24285000D01*
X31511000Y24316750D01*
X31511000Y25160000D01*
X31765000Y25160000D01*
X31765000Y24316750D01*
X31796750Y24285000D01*
X32313262Y24285000D01*
X32359940Y24304335D01*
X32395665Y24340060D01*
X32415000Y24386738D01*
X32415000Y25128250D01*
X32383250Y25160000D01*
X31765000Y25160000D01*
X31511000Y25160000D01*
X30465000Y25160000D01*
X30211000Y25160000D01*
X29592750Y25160000D01*
X29561000Y25128250D01*
X28628826Y25128250D01*
X28627263Y25136106D01*
X28609961Y25162000D01*
X28627263Y25187894D01*
X28646976Y25287000D01*
X28646976Y25537000D01*
X28627263Y25636106D01*
X28609961Y25662000D01*
X28627263Y25687894D01*
X28646976Y25787000D01*
X28646976Y26037000D01*
X28627263Y26136106D01*
X28609961Y26162000D01*
X28627263Y26187894D01*
X28646976Y26287000D01*
X28646976Y26537000D01*
X28627263Y26636106D01*
X28575000Y26714323D01*
X28575000Y26878250D01*
X29561000Y26878250D01*
X29561000Y25445750D01*
X29592750Y25414000D01*
X30211000Y25414000D01*
X30211000Y26910000D01*
X30465000Y26910000D01*
X30465000Y25414000D01*
X31511000Y25414000D01*
X31511000Y26910000D01*
X31765000Y26910000D01*
X31765000Y25414000D01*
X32383250Y25414000D01*
X32415000Y25445750D01*
X32415000Y26878250D01*
X32383250Y26910000D01*
X31765000Y26910000D01*
X31511000Y26910000D01*
X30465000Y26910000D01*
X30211000Y26910000D01*
X29592750Y26910000D01*
X29561000Y26878250D01*
X28575000Y26878250D01*
X28575000Y27109677D01*
X28627263Y27187894D01*
X28646976Y27287000D01*
X28646976Y27537000D01*
X28627263Y27636106D01*
X28609961Y27662000D01*
X28627263Y27687894D01*
X28646976Y27787000D01*
X28646976Y27937262D01*
X29561000Y27937262D01*
X29561000Y27195750D01*
X29592750Y27164000D01*
X30211000Y27164000D01*
X30211000Y28007250D01*
X30465000Y28007250D01*
X30465000Y27164000D01*
X31511000Y27164000D01*
X31511000Y28007250D01*
X31765000Y28007250D01*
X31765000Y27164000D01*
X32383250Y27164000D01*
X32415000Y27195750D01*
X32415000Y27937262D01*
X32395665Y27983940D01*
X32359940Y28019665D01*
X32313262Y28039000D01*
X31796750Y28039000D01*
X31765000Y28007250D01*
X31511000Y28007250D01*
X31479250Y28039000D01*
X30496750Y28039000D01*
X30465000Y28007250D01*
X30211000Y28007250D01*
X30179250Y28039000D01*
X29662738Y28039000D01*
X29616060Y28019665D01*
X29580335Y27983940D01*
X29561000Y27937262D01*
X28646976Y27937262D01*
X28646976Y28037000D01*
X28627263Y28136106D01*
X28575000Y28214323D01*
X28575000Y28510583D01*
X28613000Y28503024D01*
X28863000Y28503024D01*
X28962106Y28522737D01*
X28988000Y28540039D01*
X29013894Y28522737D01*
X29113000Y28503024D01*
X29363000Y28503024D01*
X29462106Y28522737D01*
X29488000Y28540039D01*
X29513894Y28522737D01*
X29613000Y28503024D01*
X29863000Y28503024D01*
X29962106Y28522737D01*
X29988000Y28540039D01*
X30013894Y28522737D01*
X30113000Y28503024D01*
X30363000Y28503024D01*
X30462106Y28522737D01*
X30488000Y28540039D01*
X30513894Y28522737D01*
X30613000Y28503024D01*
X30863000Y28503024D01*
X30962106Y28522737D01*
X31040323Y28575000D01*
X31435677Y28575000D01*
X31513894Y28522737D01*
G36*
X21209000Y30988000D02*
X18288000Y30988000D01*
X18239399Y30978333D01*
X18198197Y30950803D01*
X18170667Y30909601D01*
X18161000Y30861000D01*
X18161000Y30353000D01*
X16256000Y30353000D01*
X16207399Y30343333D01*
X16166197Y30315803D01*
X16138667Y30274601D01*
X16129000Y30226000D01*
X16129000Y25146000D01*
X14605000Y25146000D01*
X14556399Y25136333D01*
X14515197Y25108803D01*
X14487667Y25067601D01*
X14478000Y25019000D01*
X14478000Y22860000D01*
X11557000Y22860000D01*
X11557000Y24847237D01*
X11855764Y25146000D01*
X12700000Y25146000D01*
X12748601Y25155667D01*
X12789803Y25183197D01*
X12817333Y25224399D01*
X12827000Y25273000D01*
X12827000Y29922032D01*
X12853346Y29961461D01*
X12920757Y30062349D01*
X12959873Y30259000D01*
X12950000Y30308635D01*
X12950000Y31623000D01*
X21209000Y31623000D01*
X21209000Y30988000D01*
X21209000Y30988000D01*
G37*
X21209000Y30988000D02*
X18288000Y30988000D01*
X18239399Y30978333D01*
X18198197Y30950803D01*
X18170667Y30909601D01*
X18161000Y30861000D01*
X18161000Y30353000D01*
X16256000Y30353000D01*
X16207399Y30343333D01*
X16166197Y30315803D01*
X16138667Y30274601D01*
X16129000Y30226000D01*
X16129000Y25146000D01*
X14605000Y25146000D01*
X14556399Y25136333D01*
X14515197Y25108803D01*
X14487667Y25067601D01*
X14478000Y25019000D01*
X14478000Y22860000D01*
X11557000Y22860000D01*
X11557000Y24847237D01*
X11855764Y25146000D01*
X12700000Y25146000D01*
X12748601Y25155667D01*
X12789803Y25183197D01*
X12817333Y25224399D01*
X12827000Y25273000D01*
X12827000Y29922032D01*
X12853346Y29961461D01*
X12920757Y30062349D01*
X12959873Y30259000D01*
X12950000Y30308635D01*
X12950000Y31623000D01*
X21209000Y31623000D01*
X21209000Y30988000D01*
G36*
X16383000Y24102486D02*
X16378737Y24096106D01*
X16359024Y23997000D01*
X16359024Y23247000D01*
X16378737Y23147894D01*
X16383000Y23141514D01*
X16383000Y22860000D01*
X14732000Y22860000D01*
X14732000Y23438250D01*
X14891000Y23438250D01*
X14891000Y23201847D01*
X14925559Y23118415D01*
X14989415Y23054559D01*
X15072847Y23020000D01*
X15334250Y23020000D01*
X15391000Y23076750D01*
X15391000Y23495000D01*
X15645000Y23495000D01*
X15645000Y23076750D01*
X15701750Y23020000D01*
X15963153Y23020000D01*
X16046585Y23054559D01*
X16110441Y23118415D01*
X16145000Y23201847D01*
X16145000Y23438250D01*
X16088250Y23495000D01*
X15645000Y23495000D01*
X15391000Y23495000D01*
X14947750Y23495000D01*
X14891000Y23438250D01*
X14732000Y23438250D01*
X14732000Y24042153D01*
X14891000Y24042153D01*
X14891000Y23805750D01*
X14947750Y23749000D01*
X15391000Y23749000D01*
X15391000Y24167250D01*
X15645000Y24167250D01*
X15645000Y23749000D01*
X16088250Y23749000D01*
X16145000Y23805750D01*
X16145000Y24042153D01*
X16110441Y24125585D01*
X16046585Y24189441D01*
X15963153Y24224000D01*
X15701750Y24224000D01*
X15645000Y24167250D01*
X15391000Y24167250D01*
X15334250Y24224000D01*
X15072847Y24224000D01*
X14989415Y24189441D01*
X14925559Y24125585D01*
X14891000Y24042153D01*
X14732000Y24042153D01*
X14732000Y24892000D01*
X16383000Y24892000D01*
X16383000Y24102486D01*
X16383000Y24102486D01*
G37*
X16383000Y24102486D02*
X16378737Y24096106D01*
X16359024Y23997000D01*
X16359024Y23247000D01*
X16378737Y23147894D01*
X16383000Y23141514D01*
X16383000Y22860000D01*
X14732000Y22860000D01*
X14732000Y23438250D01*
X14891000Y23438250D01*
X14891000Y23201847D01*
X14925559Y23118415D01*
X14989415Y23054559D01*
X15072847Y23020000D01*
X15334250Y23020000D01*
X15391000Y23076750D01*
X15391000Y23495000D01*
X15645000Y23495000D01*
X15645000Y23076750D01*
X15701750Y23020000D01*
X15963153Y23020000D01*
X16046585Y23054559D01*
X16110441Y23118415D01*
X16145000Y23201847D01*
X16145000Y23438250D01*
X16088250Y23495000D01*
X15645000Y23495000D01*
X15391000Y23495000D01*
X14947750Y23495000D01*
X14891000Y23438250D01*
X14732000Y23438250D01*
X14732000Y24042153D01*
X14891000Y24042153D01*
X14891000Y23805750D01*
X14947750Y23749000D01*
X15391000Y23749000D01*
X15391000Y24167250D01*
X15645000Y24167250D01*
X15645000Y23749000D01*
X16088250Y23749000D01*
X16145000Y23805750D01*
X16145000Y24042153D01*
X16110441Y24125585D01*
X16046585Y24189441D01*
X15963153Y24224000D01*
X15701750Y24224000D01*
X15645000Y24167250D01*
X15391000Y24167250D01*
X15334250Y24224000D01*
X15072847Y24224000D01*
X14989415Y24189441D01*
X14925559Y24125585D01*
X14891000Y24042153D01*
X14732000Y24042153D01*
X14732000Y24892000D01*
X16383000Y24892000D01*
X16383000Y24102486D01*
G36*
X18425539Y36021565D02*
X18620041Y35941000D01*
X18425539Y35860435D01*
X18241565Y35676461D01*
X18142000Y35436089D01*
X18142000Y35175911D01*
X18241565Y34935539D01*
X18425539Y34751565D01*
X18665911Y34652000D01*
X18926089Y34652000D01*
X19166461Y34751565D01*
X19350435Y34935539D01*
X19450000Y35175911D01*
X19450000Y35436089D01*
X19350435Y35676461D01*
X19166461Y35860435D01*
X18971959Y35941000D01*
X19166461Y36021565D01*
X19212896Y36068000D01*
X21209000Y36068000D01*
X21209000Y31877000D01*
X17620026Y31877000D01*
X17638441Y31895415D01*
X17673000Y31978847D01*
X17673000Y33090250D01*
X17616250Y33147000D01*
X16573000Y33147000D01*
X16573000Y33127000D01*
X16319000Y33127000D01*
X16319000Y33147000D01*
X15275750Y33147000D01*
X15219000Y33090250D01*
X15219000Y31978847D01*
X15253559Y31895415D01*
X15271974Y31877000D01*
X13716000Y31877000D01*
X13716000Y34569153D01*
X15219000Y34569153D01*
X15219000Y33457750D01*
X15275750Y33401000D01*
X16319000Y33401000D01*
X16319000Y34694250D01*
X16573000Y34694250D01*
X16573000Y33401000D01*
X17616250Y33401000D01*
X17673000Y33457750D01*
X17673000Y34569153D01*
X17638441Y34652585D01*
X17574585Y34716441D01*
X17491153Y34751000D01*
X16629750Y34751000D01*
X16573000Y34694250D01*
X16319000Y34694250D01*
X16262250Y34751000D01*
X15400847Y34751000D01*
X15317415Y34716441D01*
X15253559Y34652585D01*
X15219000Y34569153D01*
X13716000Y34569153D01*
X13716000Y36068000D01*
X18379104Y36068000D01*
X18425539Y36021565D01*
X18425539Y36021565D01*
G37*
X18425539Y36021565D02*
X18620041Y35941000D01*
X18425539Y35860435D01*
X18241565Y35676461D01*
X18142000Y35436089D01*
X18142000Y35175911D01*
X18241565Y34935539D01*
X18425539Y34751565D01*
X18665911Y34652000D01*
X18926089Y34652000D01*
X19166461Y34751565D01*
X19350435Y34935539D01*
X19450000Y35175911D01*
X19450000Y35436089D01*
X19350435Y35676461D01*
X19166461Y35860435D01*
X18971959Y35941000D01*
X19166461Y36021565D01*
X19212896Y36068000D01*
X21209000Y36068000D01*
X21209000Y31877000D01*
X17620026Y31877000D01*
X17638441Y31895415D01*
X17673000Y31978847D01*
X17673000Y33090250D01*
X17616250Y33147000D01*
X16573000Y33147000D01*
X16573000Y33127000D01*
X16319000Y33127000D01*
X16319000Y33147000D01*
X15275750Y33147000D01*
X15219000Y33090250D01*
X15219000Y31978847D01*
X15253559Y31895415D01*
X15271974Y31877000D01*
X13716000Y31877000D01*
X13716000Y34569153D01*
X15219000Y34569153D01*
X15219000Y33457750D01*
X15275750Y33401000D01*
X16319000Y33401000D01*
X16319000Y34694250D01*
X16573000Y34694250D01*
X16573000Y33401000D01*
X17616250Y33401000D01*
X17673000Y33457750D01*
X17673000Y34569153D01*
X17638441Y34652585D01*
X17574585Y34716441D01*
X17491153Y34751000D01*
X16629750Y34751000D01*
X16573000Y34694250D01*
X16319000Y34694250D01*
X16262250Y34751000D01*
X15400847Y34751000D01*
X15317415Y34716441D01*
X15253559Y34652585D01*
X15219000Y34569153D01*
X13716000Y34569153D01*
X13716000Y36068000D01*
X18379104Y36068000D01*
X18425539Y36021565D01*
G36*
X21209000Y28956000D02*
X18415000Y28956000D01*
X18415000Y29534250D01*
X18702000Y29534250D01*
X18702000Y29272847D01*
X18736559Y29189415D01*
X18800415Y29125559D01*
X18883847Y29091000D01*
X19120250Y29091000D01*
X19177000Y29147750D01*
X19177000Y29591000D01*
X19431000Y29591000D01*
X19431000Y29147750D01*
X19487750Y29091000D01*
X19724153Y29091000D01*
X19807585Y29125559D01*
X19871441Y29189415D01*
X19906000Y29272847D01*
X19906000Y29534250D01*
X19849250Y29591000D01*
X19431000Y29591000D01*
X19177000Y29591000D01*
X18758750Y29591000D01*
X18702000Y29534250D01*
X18415000Y29534250D01*
X18415000Y30163153D01*
X18702000Y30163153D01*
X18702000Y29901750D01*
X18758750Y29845000D01*
X19177000Y29845000D01*
X19177000Y30288250D01*
X19431000Y30288250D01*
X19431000Y29845000D01*
X19849250Y29845000D01*
X19906000Y29901750D01*
X19906000Y30163153D01*
X19871441Y30246585D01*
X19807585Y30310441D01*
X19724153Y30345000D01*
X19487750Y30345000D01*
X19431000Y30288250D01*
X19177000Y30288250D01*
X19120250Y30345000D01*
X18883847Y30345000D01*
X18800415Y30310441D01*
X18736559Y30246585D01*
X18702000Y30163153D01*
X18415000Y30163153D01*
X18415000Y30734000D01*
X21209000Y30734000D01*
X21209000Y28956000D01*
X21209000Y28956000D01*
G37*
X21209000Y28956000D02*
X18415000Y28956000D01*
X18415000Y29534250D01*
X18702000Y29534250D01*
X18702000Y29272847D01*
X18736559Y29189415D01*
X18800415Y29125559D01*
X18883847Y29091000D01*
X19120250Y29091000D01*
X19177000Y29147750D01*
X19177000Y29591000D01*
X19431000Y29591000D01*
X19431000Y29147750D01*
X19487750Y29091000D01*
X19724153Y29091000D01*
X19807585Y29125559D01*
X19871441Y29189415D01*
X19906000Y29272847D01*
X19906000Y29534250D01*
X19849250Y29591000D01*
X19431000Y29591000D01*
X19177000Y29591000D01*
X18758750Y29591000D01*
X18702000Y29534250D01*
X18415000Y29534250D01*
X18415000Y30163153D01*
X18702000Y30163153D01*
X18702000Y29901750D01*
X18758750Y29845000D01*
X19177000Y29845000D01*
X19177000Y30288250D01*
X19431000Y30288250D01*
X19431000Y29845000D01*
X19849250Y29845000D01*
X19906000Y29901750D01*
X19906000Y30163153D01*
X19871441Y30246585D01*
X19807585Y30310441D01*
X19724153Y30345000D01*
X19487750Y30345000D01*
X19431000Y30288250D01*
X19177000Y30288250D01*
X19120250Y30345000D01*
X18883847Y30345000D01*
X18800415Y30310441D01*
X18736559Y30246585D01*
X18702000Y30163153D01*
X18415000Y30163153D01*
X18415000Y30734000D01*
X21209000Y30734000D01*
X21209000Y28956000D01*
G04 #@! TO.N,/VCC*
G36*
X24150000Y22281750D02*
X24206750Y22225000D01*
X24650000Y22225000D01*
X24650000Y22245000D01*
X24904000Y22245000D01*
X24904000Y22225000D01*
X24924000Y22225000D01*
X24924000Y21971000D01*
X24904000Y21971000D01*
X24904000Y21552750D01*
X24960750Y21496000D01*
X25222153Y21496000D01*
X25273000Y21517062D01*
X25273000Y18288000D01*
X20193000Y18288000D01*
X20144399Y18278333D01*
X20103197Y18250803D01*
X20075667Y18209601D01*
X20066000Y18161000D01*
X20066000Y16078256D01*
X19997845Y15913715D01*
X19997845Y15875000D01*
X17601291Y15875000D01*
X17526000Y15889976D01*
X16256000Y15889976D01*
X16180709Y15875000D01*
X15061291Y15875000D01*
X14986000Y15889976D01*
X13716000Y15889976D01*
X13640709Y15875000D01*
X11918000Y15875000D01*
X11918000Y16072250D01*
X11861250Y16129000D01*
X11418000Y16129000D01*
X11418000Y16109000D01*
X11164000Y16109000D01*
X11164000Y16129000D01*
X11144000Y16129000D01*
X11144000Y16383000D01*
X11164000Y16383000D01*
X11164000Y16801250D01*
X11418000Y16801250D01*
X11418000Y16383000D01*
X11861250Y16383000D01*
X11918000Y16439750D01*
X11918000Y16676153D01*
X11883441Y16759585D01*
X11819585Y16823441D01*
X11736153Y16858000D01*
X11474750Y16858000D01*
X11418000Y16801250D01*
X11164000Y16801250D01*
X11107250Y16858000D01*
X10845847Y16858000D01*
X10762415Y16823441D01*
X10698559Y16759585D01*
X10668000Y16685810D01*
X10668000Y17018000D01*
X14732000Y17018000D01*
X14780601Y17027667D01*
X14821803Y17055197D01*
X14849333Y17096399D01*
X14859000Y17145000D01*
X14859000Y19939000D01*
X19431000Y19939000D01*
X19479601Y19948667D01*
X19520803Y19976197D01*
X19548333Y20017399D01*
X19558000Y20066000D01*
X19558000Y21914250D01*
X24150000Y21914250D01*
X24150000Y21677847D01*
X24184559Y21594415D01*
X24248415Y21530559D01*
X24331847Y21496000D01*
X24593250Y21496000D01*
X24650000Y21552750D01*
X24650000Y21971000D01*
X24206750Y21971000D01*
X24150000Y21914250D01*
X19558000Y21914250D01*
X19558000Y22479000D01*
X24150000Y22479000D01*
X24150000Y22281750D01*
X24150000Y22281750D01*
G37*
X24150000Y22281750D02*
X24206750Y22225000D01*
X24650000Y22225000D01*
X24650000Y22245000D01*
X24904000Y22245000D01*
X24904000Y22225000D01*
X24924000Y22225000D01*
X24924000Y21971000D01*
X24904000Y21971000D01*
X24904000Y21552750D01*
X24960750Y21496000D01*
X25222153Y21496000D01*
X25273000Y21517062D01*
X25273000Y18288000D01*
X20193000Y18288000D01*
X20144399Y18278333D01*
X20103197Y18250803D01*
X20075667Y18209601D01*
X20066000Y18161000D01*
X20066000Y16078256D01*
X19997845Y15913715D01*
X19997845Y15875000D01*
X17601291Y15875000D01*
X17526000Y15889976D01*
X16256000Y15889976D01*
X16180709Y15875000D01*
X15061291Y15875000D01*
X14986000Y15889976D01*
X13716000Y15889976D01*
X13640709Y15875000D01*
X11918000Y15875000D01*
X11918000Y16072250D01*
X11861250Y16129000D01*
X11418000Y16129000D01*
X11418000Y16109000D01*
X11164000Y16109000D01*
X11164000Y16129000D01*
X11144000Y16129000D01*
X11144000Y16383000D01*
X11164000Y16383000D01*
X11164000Y16801250D01*
X11418000Y16801250D01*
X11418000Y16383000D01*
X11861250Y16383000D01*
X11918000Y16439750D01*
X11918000Y16676153D01*
X11883441Y16759585D01*
X11819585Y16823441D01*
X11736153Y16858000D01*
X11474750Y16858000D01*
X11418000Y16801250D01*
X11164000Y16801250D01*
X11107250Y16858000D01*
X10845847Y16858000D01*
X10762415Y16823441D01*
X10698559Y16759585D01*
X10668000Y16685810D01*
X10668000Y17018000D01*
X14732000Y17018000D01*
X14780601Y17027667D01*
X14821803Y17055197D01*
X14849333Y17096399D01*
X14859000Y17145000D01*
X14859000Y19939000D01*
X19431000Y19939000D01*
X19479601Y19948667D01*
X19520803Y19976197D01*
X19548333Y20017399D01*
X19558000Y20066000D01*
X19558000Y21914250D01*
X24150000Y21914250D01*
X24150000Y21677847D01*
X24184559Y21594415D01*
X24248415Y21530559D01*
X24331847Y21496000D01*
X24593250Y21496000D01*
X24650000Y21552750D01*
X24650000Y21971000D01*
X24206750Y21971000D01*
X24150000Y21914250D01*
X19558000Y21914250D01*
X19558000Y22479000D01*
X24150000Y22479000D01*
X24150000Y22281750D01*
G04 #@! TD*
M02*
